<svg width="1600" height="1200" viewBox="0 0 1600 1200" fill="none" xmlns="http://www.w3.org/2000/svg">
<path d="M1361.6 969.1C1354.8 960.6 1349.7 951 1345.4 941.1C1343.3 936.2 1341.3 931.1 1339.4 926.1C1338.5 923.7 1337.5 921.4 1336.8 919C1336 916.5 1335.7 915.2 1336.9 912.8C1336.9 911.1 1337.6 910.4 1338.9 910.6C1340 910.3 1340.7 910.8 1341.1 912.1C1342.1 912 1343.1 911.8 1344 911.7C1338 893.6 1334.1 874.9 1332.4 856C1331.6 846.8 1331.3 837.5 1331.5 828.2C1331.6 823.9 1331.8 819.6 1332.2 815.2C1332.3 813.5 1332.1 808.7 1333.1 807.3C1334.2 807 1335.2 806.7 1336.3 806.5C1338.1 805 1339.5 805 1340.4 806.6C1341.5 807.5 1342.2 809.1 1342.9 810.3C1361.2 840.7 1373.4 875 1379.3 909.9C1382.7 930 1384 950.3 1383.1 970.7C1383 972.6 1386 972.6 1386.1 970.7C1387.7 930.2 1381 889.5 1366.3 851.7C1362.6 842.3 1358.5 833.1 1353.9 824.1C1351.8 819.9 1349.5 815.8 1347.2 811.8C1345.3 808.5 1343.4 804.5 1340.2 802.3C1334 798.1 1330.4 804.1 1329.7 809.6C1328.4 820 1328.2 830.6 1328.5 841.1C1329.2 865.4 1333.4 889.4 1341 912.4C1341.5 914 1344 913.8 1343.9 912C1343.9 908 1339.4 906.3 1336 908C1330 910.9 1333.4 919.2 1335 923.6C1341.2 940.4 1347.9 957 1359.2 971.1C1360.7 972.8 1362.8 970.6 1361.6 969.1Z" fill="#16A34A"/>
<path d="M1379.2 894.3C1380 881 1381.7 867.8 1384.6 854.7C1386 848.6 1387.5 842.5 1389.4 836.5C1390.3 833.5 1391.3 830.5 1392.3 827.6C1392.8 826.1 1393.3 824.6 1393.9 823.2C1394.1 822.6 1394.3 822 1394.6 821.4C1395 819.3 1396.4 818.1 1398.7 817.7C1398.5 819.4 1401.2 819.7 1401.6 818.1C1403.6 811.5 1419.8 769 1429.7 776.3C1432.6 778.4 1433.4 783.3 1433.9 786.6C1434.7 791.2 1435.4 795.9 1435.9 800.5C1436.8 808.4 1437.4 816.3 1437.6 824.3C1438.5 856.8 1433.6 889.5 1423.2 920.4C1417.2 938.1 1409.4 955 1400 971.1C1399 972.8 1401.6 974.3 1402.6 972.6C1421.5 940.4 1433.6 904.6 1438.4 867.7C1440.8 849.1 1441.4 830.3 1440 811.6C1439.3 802.7 1438.3 793.8 1436.7 785C1435.8 780.2 1433.6 773.1 1427.9 772.2C1420.4 771 1414.6 783.4 1411.6 788.4C1406.1 797.5 1401.9 807.2 1398.8 817.3C1399.8 817.4 1400.8 817.6 1401.7 817.7C1402.3 812.9 1396.3 812.6 1393.9 815.7C1392.1 818 1391.3 821.4 1390.4 824.1C1388.7 828.8 1387.2 833.6 1385.8 838.4C1380.5 856.6 1377.4 875.3 1376.3 894.2C1376.1 896.2 1379.1 896.2 1379.2 894.3Z" fill="#16A34A"/>
<path d="M1332.2 806.2C1354 857.1 1367.7 911.2 1372.7 966.3C1372.9 968.2 1375.9 968.2 1375.7 966.3C1370.6 910.6 1356.8 856.1 1334.8 804.6C1334 802.9 1331.4 804.5 1332.2 806.2Z" fill="#16A34A"/>
<path d="M1331.6 872.1C1342 877.3 1351.6 883.8 1360.3 891.4C1361.7 892.7 1363.9 890.6 1362.4 889.3C1353.4 881.5 1343.7 874.9 1333 869.5C1331.4 868.7 1329.8 871.3 1331.6 872.1Z" fill="#16A34A"/>
<path d="M1359.4 842.8C1356.6 848.3 1354.5 854.1 1353.2 860.2C1352.8 862.1 1355.7 862.9 1356.1 861C1357.4 855.2 1359.3 849.6 1362 844.3C1362.9 842.6 1360.3 841.1 1359.4 842.8Z" fill="#16A34A"/>
<path d="M1424.8 778.6C1418.3 836.7 1411.2 896.7 1382.9 948.9C1382 950.6 1384.6 952.1 1385.5 950.4C1414.1 897.7 1421.2 837.3 1427.8 778.6C1428 776.7 1425 776.7 1424.8 778.6Z" fill="#16A34A"/>
<path d="M1387.4 835.5C1395.4 854.3 1401.3 873.8 1405.2 893.8C1405.6 895.7 1408.5 894.9 1408.1 893C1404.1 872.7 1398 853 1390 834C1389.2 832.2 1386.7 833.7 1387.4 835.5Z" fill="#16A34A"/>
<path d="M1417.5 850.6C1425 841.1 1432.5 831.6 1440 822.2C1441.2 820.7 1439.1 818.6 1437.9 820.1C1430.4 829.6 1422.9 839.1 1415.4 848.5C1414.2 849.9 1416.3 852.1 1417.5 850.6Z" fill="#16A34A"/>
<path d="M174.8 955.8C168.3 948.8 161.7 941.6 156.4 933.6C153.9 929.7 151.6 925.7 149.8 921.4C148.8 919 144.1 906.2 150.6 908.8C152.2 909.4 152.9 907.3 152.1 906.3C145.5 897.9 141.1 888.1 137.3 878.2C133.7 868.8 130.2 859.3 126.9 849.8C123.3 839.4 120.2 828.7 119 817.8C118.1 809.2 117.2 797.4 123.4 790.3C132.5 780 141.7 797 146 803.4C151.8 812 157.5 820.8 163 829.6C173.9 847.5 183.8 866.1 191.1 885.9C199.4 908.5 204 932.4 202.9 956.5C202.8 958.4 205.8 958.4 205.9 956.5C208.1 907.7 187.2 862.2 161.7 821.8C155.4 811.9 149.1 801.9 142.2 792.4C138.3 787.1 132.1 781.6 125.1 785.1C118.7 788.2 116.3 796.5 115.7 803C114.6 814.8 116.9 826.8 120.1 838.1C123.7 850.9 128.6 863.3 133.2 875.7C137.5 887.3 142.3 898.6 150 908.4C150.5 907.6 151 906.7 151.5 905.9C148.9 904.9 146.6 905.2 144.4 906.8C144 907.1 143.6 907.6 143.7 908.1C145.9 928.3 159.6 943.8 172.8 958C174 959.4 176.1 957.3 174.8 955.8Z" fill="#16A34A"/>
<path d="M183 860.7C179.9 832.7 183.6 804.6 193.8 778.3C193 778.5 192.1 778.7 191.3 779C194.4 781.8 196.5 785 197.7 789C198.1 790.4 200.2 790.5 200.6 789C207.4 765.4 217.3 742.9 230.3 722C229.4 721.9 228.5 721.8 227.6 721.6C235.4 741.5 240.3 762.5 241.9 783.9C243.3 803.1 243.8 825.2 232.1 841.5C231.5 842.3 232.1 843.5 233 843.7C242 845.8 239.3 860 238.5 866.4C237.3 877 235.5 887.6 233.2 898C228.8 918.1 222.4 937.8 214.3 956.7C213.5 958.5 216.1 960 216.9 958.2C226.4 936.2 233.5 913.2 238 889.7C240 878.9 242.3 867.5 242.5 856.5C242.6 850.2 241 842.3 233.9 840.7C234.2 841.4 234.5 842.2 234.8 842.9C246.5 826.6 246.3 804.8 245.1 785.6C243.7 763.3 238.7 741.4 230.6 720.7C230.1 719.5 228.6 719.2 227.9 720.3C214.8 741.4 204.8 764.1 197.9 788C198.9 788 199.8 788 200.8 788C199.4 783.5 197.1 779.9 193.6 776.7C192.7 775.9 191.5 776.3 191.1 777.4C180.8 803.9 177.1 832.4 180.2 860.6C180.2 862.6 183.2 862.6 183 860.7Z" fill="#16A34A"/>
<path d="M124.5 789.8C138.4 817.3 152.6 844.7 165.9 872.5C178.9 899.9 190.4 928.2 196.6 958C197 959.9 199.9 959.1 199.5 957.2C193.3 927.7 182.1 899.8 169.2 872.6C155.8 844.2 141.2 816.3 127 788.2C126.2 786.6 123.6 788.1 124.5 789.8Z" fill="#16A34A"/>
<path d="M228.2 725.8C226.1 755.5 216.9 783.9 210.1 812.7C203.3 841.5 198.6 870.8 196 900.3C195.8 902.2 198.8 902.2 199 900.3C201.7 869.8 206.7 839.5 213.9 809.8C220.7 782 229.1 754.5 231.2 725.8C231.3 723.8 228.3 723.8 228.2 725.8Z" fill="#16A34A"/>
<path d="M122.9 847.1C138 852.2 151.8 860 164.1 870.2C165.6 871.4 167.7 869.3 166.2 868.1C153.5 857.6 139.3 849.6 123.7 844.2C121.8 843.5 121 846.4 122.9 847.1Z" fill="#16A34A"/>
<path d="M190.4 780.7C193.8 798.8 198.8 816.6 205.3 833.8C206 835.6 208.9 834.8 208.2 833C201.7 815.7 196.8 798 193.3 779.9C192.9 778 190.1 778.8 190.4 780.7Z" fill="#16A34A"/>
<path d="M201.2 906.9C212 892.7 223.1 878.4 238.9 869.5C240.6 868.6 239.1 866 237.4 866.9C221.2 876.1 209.7 890.8 198.6 905.4C197.5 906.9 200.1 908.4 201.2 906.9Z" fill="#16A34A"/>
<path d="M1241.2 974.5C1325.3 974.5 1409.5 974.5 1493.6 974.5C1497.5 974.5 1497.5 968.5 1493.6 968.5C1409.5 968.5 1325.3 968.5 1241.2 968.5C1237.3 968.5 1237.3 974.5 1241.2 974.5Z" fill="black"/>
<path d="M327.7 954.5C261.7 954.5 195.7 954.5 129.7 954.5C125.8 954.5 125.8 960.5 129.7 960.5C195.7 960.5 261.7 960.5 327.7 960.5C331.5 960.5 331.5 954.5 327.7 954.5Z" fill="black"/>
<path d="M999.9 1023.3C1091.1 1023.3 1182.3 1023.3 1273.5 1023.3C1299.5 1023.3 1325.4 1023.3 1351.4 1023.3C1355.3 1023.3 1355.3 1017.3 1351.4 1017.3C1260.2 1017.3 1169 1017.3 1077.8 1017.3C1051.8 1017.3 1025.9 1017.3 999.9 1017.3C996.1 1017.3 996 1023.3 999.9 1023.3Z" fill="black"/>
<path d="M1215.8 976.1C924.8 970.3 633.8 964.5 342.8 958.7C290.7 957.7 254.3 906.8 270.1 857.2L449.8 291.8C460 259.7 489.8 237.7 523.5 237.5C792.8 235.6 1062.1 233.6 1331.4 231.7C1380.6 231.3 1417.9 276.2 1408.4 324.5L1293.7 913.1C1286.6 950.3 1253.7 976.9 1215.8 976.1Z" fill="#16A34A" stroke="black" stroke-width="6" stroke-miterlimit="10"/>
<path d="M1210.2 971.2C919.2 965.7 628.2 960.3 337.2 954.8C285.1 953.8 248.7 905.8 264.5 859L444.2 325.3C454.4 295 484.2 274.3 517.9 274C787.2 272.2 1056.5 270.3 1325.8 268.5C1375 268.2 1412.3 310.5 1402.8 356.1L1288.1 911.8C1281 946.8 1248.1 971.9 1210.2 971.2Z" fill="white" stroke="black" stroke-width="6" stroke-miterlimit="10"/>
<path d="M1284.8 926.7C1275.2 947.8 1256.7 963.7 1234.4 969.9C1232.5 970.4 1233.3 973.3 1235.2 972.8C1258.2 966.4 1277.5 949.9 1287.4 928.2C1288.1 926.5 1285.6 924.9 1284.8 926.7Z" fill="black"/>
<path d="M531.2 259.6C528.2 259.3 527.1 256.1 527.9 253.5C529 250.2 532.2 249.5 535.2 251C537.3 252.1 538.4 254.7 537.5 257C536.5 259.5 533.6 260.3 531.2 259.4C529.4 258.7 528.6 261.6 530.4 262.3C534.3 263.8 539.1 261.8 540.5 257.7C541.9 253.3 539.1 249 534.9 247.7C530.2 246.3 526.1 248.5 524.9 253.4C523.9 257.9 526.7 262.1 531.2 262.6C533.1 262.8 533.1 259.8 531.2 259.6Z" fill="black"/>
<path d="M527.7 257.2C528.9 260.3 533.3 261.3 535.9 259.4C537.6 258.1 538.4 255.6 537.6 253.4C536.7 251 534.1 249.6 531.8 250C528.6 250.6 526.5 254.3 527.7 257.2Z" fill="white"/>
<path d="M565 258.7C562 258.4 560.9 255.2 561.7 252.6C562.8 249.3 566 248.6 569 250.1C571.1 251.2 572.2 253.8 571.3 256.1C570.3 258.6 567.4 259.4 565 258.5C563.2 257.8 562.4 260.7 564.2 261.4C568.1 262.9 572.9 260.9 574.3 256.8C575.7 252.4 572.9 248.1 568.7 246.8C564 245.4 559.9 247.6 558.7 252.5C557.7 257 560.5 261.2 565 261.7C566.9 261.9 566.9 258.9 565 258.7Z" fill="black"/>
<path d="M561.5 256.3C562.7 259.4 567.1 260.4 569.7 258.5C571.4 257.2 572.2 254.7 571.4 252.5C570.5 250.1 567.9 248.7 565.6 249.1C562.4 249.7 560.3 253.4 561.5 256.3Z" stroke="black" stroke-miterlimit="10"/>
<path d="M529.2 251C530.6 254.1 532.2 257.1 534.1 260C535.1 261.6 537.7 260.1 536.7 258.5C534.9 255.6 533.3 252.6 531.8 249.5C531 247.8 528.4 249.3 529.2 251Z" fill="black"/>
<path d="M529.5 260C530.9 258.8 532.2 257.5 533.6 256.3C534.8 255.2 536 253.9 537.5 253.1C539.2 252.2 537.7 249.6 536 250.5C534.5 251.3 533.3 252.6 532 253.8C530.5 255.2 528.9 256.6 527.4 258C526 259.2 528.1 261.3 529.5 260Z" fill="black"/>
<path d="M900.9 327.5C892 356.1 883 384.8 874.1 413.4C868.6 431.2 881.7 449.2 900.3 449.5C1024.4 451 1148.4 452.4 1272.5 453.9C1286.1 454.1 1297.8 444.3 1300.2 430.9C1305.5 400.5 1310.9 370.1 1316.2 339.7C1319.2 322.7 1306.1 307.1 1288.8 307.1C1168.3 307.4 1047.8 307.7 927.4 308C915.3 308 904.5 315.9 900.9 327.5Z" fill="white" stroke="black" stroke-width="3" stroke-miterlimit="10"/>
<path d="M424.7 726.2C407.4 775.9 390.1 825.6 372.8 875.3C362.1 906.1 387.5 937.5 423.5 937.9C663.7 940.4 904 943 1144.2 945.5C1170.6 945.8 1193.3 928.9 1197.8 905.6C1208.2 852.9 1218.5 800.1 1228.9 747.4C1234.7 717.8 1209.3 690.8 1175.8 690.8C942.5 691.3 709.2 691.8 475.9 692.3C452.4 692.4 431.7 706.1 424.7 726.2Z" fill="white" stroke="black" stroke-width="3" stroke-miterlimit="10"/>
<path d="M938.5 498.8C922.4 547 906.3 595.2 890.2 643.4C889.6 645.2 892.5 646 893.1 644.2C909.2 596 925.3 547.8 941.4 499.6C942 497.7 939.1 496.9 938.5 498.8Z" fill="#16A34A"/>
<path d="M940.4 499.1C982.2 496.9 1024.2 493.5 1066.1 493.5C1107.8 493.5 1149.4 497.1 1190.9 500.7C1192.8 500.9 1192.8 497.9 1190.9 497.7C1149.4 494.1 1107.8 490.6 1066.1 490.5C1024.2 490.5 982.2 493.9 940.4 496.1C938.5 496.2 938.4 499.2 940.4 499.1Z" fill="#16A34A"/>
<path d="M1190.4 500.6C1179.2 548.4 1167.9 596.1 1156.7 643.9C1156.3 645.8 1159.2 646.6 1159.6 644.7C1170.8 596.9 1182.1 549.2 1193.3 501.4C1193.7 499.6 1190.8 498.8 1190.4 500.6Z" fill="#16A34A"/>
<path d="M892 648.6C960.6 644.9 1029.3 644 1098 646.1C1117.6 646.7 1137.1 647.5 1156.7 648.6C1158.6 648.7 1158.6 645.7 1156.7 645.6C1088.1 641.8 1019.4 641 950.7 643.1C931.1 643.7 911.6 644.5 892 645.6C890.1 645.7 890 648.7 892 648.6Z" fill="#16A34A"/>
<path d="M1025.2 643.5C1068 621.2 1116.9 617.9 1164.2 615C1166.1 614.9 1166.1 611.9 1164.2 612C1116.4 615 1067 618.4 1023.7 640.9C1021.9 641.8 1023.4 644.4 1025.2 643.5Z" fill="#16A34A"/>
<path d="M1093.5 548.3C1098.2 571.2 1100.6 594.5 1100.7 617.9C1100.7 619.8 1103.7 619.8 1103.7 617.9C1103.5 594.2 1101.1 570.7 1096.4 547.5C1096 545.6 1093.1 546.4 1093.5 548.3Z" fill="#16A34A"/>
<path d="M1092.4 547.8C1086.3 556.7 1080.3 565.7 1074.2 574.6C1075.1 574.9 1076.1 575.1 1077 575.4C1076.5 566.4 1078.8 558 1083.9 550.6C1085 549 1082.4 547.5 1081.3 549.1C1075.9 556.9 1073.4 566 1073.9 575.4C1074 576.9 1075.8 577.4 1076.7 576.2C1082.8 567.3 1088.8 558.3 1094.9 549.4C1096.1 547.7 1093.5 546.2 1092.4 547.8Z" fill="#16A34A"/>
<path d="M1082.3 547C1078.9 545.5 1075.5 544.8 1071.8 545C1069.6 545.1 1060.7 547.8 1062 544.5C1062.5 543.2 1065.3 541.5 1066.4 540.6C1068.5 538.9 1070.7 537.3 1073 536C1078.1 533.1 1083.8 531.7 1089.6 532.6C1091.5 532.9 1092.3 530 1090.4 529.7C1078.8 527.9 1066.7 534.2 1059.2 542.9C1057.2 545.2 1057.5 548.4 1060.8 549.4C1062.6 549.9 1064.6 549.2 1066.3 548.8C1071.2 547.7 1076 547.3 1080.8 549.4C1082.5 550.4 1084 547.8 1082.3 547Z" fill="#16A34A"/>
<path d="M1092.3 529.5C1096.1 520.5 1103.6 513.9 1112.9 511.1C1112.4 510.3 1111.9 509.4 1111.4 508.6C1108 513 1106 517.8 1105.3 523.3C1105.1 525.2 1108.1 525.2 1108.3 523.3C1108.9 518.6 1110.7 514.4 1113.5 510.7C1114.3 509.6 1113.6 507.7 1112 508.2C1101.6 511.3 1093.5 518.7 1089.3 528.7C1088.7 530.5 1091.6 531.3 1092.3 529.5Z" fill="#16A34A"/>
<path d="M1107.5 525.1C1115.3 520.6 1124.5 520.5 1132.4 524.8C1132.4 523.9 1132.4 523.1 1132.4 522.2C1126.1 525.2 1120.1 528.8 1114.4 532.8C1112.8 533.9 1114.3 536.5 1115.9 535.4C1121.6 531.4 1127.6 527.8 1133.9 524.8C1134.9 524.3 1134.8 522.7 1133.9 522.2C1125 517.3 1114.7 517.4 1106 522.5C1104.3 523.5 1105.8 526.1 1107.5 525.1Z" fill="#16A34A"/>
<path d="M1113.3 535.6C1119.8 539.2 1126.1 545.1 1124.3 553.3C1125.2 553.2 1126.1 553.1 1127 552.9C1122.8 546.2 1115.6 542.4 1107.7 542.7C1105.8 542.8 1105.8 545.8 1107.7 545.7C1114.6 545.4 1120.8 548.6 1124.4 554.4C1125 555.4 1126.9 555.4 1127.1 554C1129.1 544.5 1122.5 537.2 1114.7 532.9C1113.1 532.1 1111.6 534.7 1113.3 535.6Z" fill="#16A34A"/>
<path d="M1105.1 545.2C1109.7 569.2 1111.4 593.5 1110.1 617.9C1110 619.8 1113 619.8 1113.1 617.9C1114.4 593.3 1112.7 568.6 1108 544.4C1107.6 542.5 1104.7 543.3 1105.1 545.2Z" fill="#16A34A"/>
<path d="M1101.8 592.3C1105.1 592.7 1108.2 592.1 1111.2 590.8C1113 590 1111.4 587.4 1109.7 588.2C1107.2 589.4 1104.5 589.7 1101.8 589.3C1099.9 589 1099.9 592 1101.8 592.3Z" fill="#16A34A"/>
<path d="M905 607.7C921.4 608.7 938 609 954.3 610.9C962.3 611.8 970 614.2 977.9 615.4C985.6 616.5 993.1 615.4 1000.8 614C1034.5 608.1 1068.4 611.3 1102.1 614.9C1104 615.1 1104 612.1 1102.1 611.9C1069.5 608.4 1036.4 605 1003.8 610.4C994.6 611.9 985.9 613.7 976.6 612.1C969.1 610.8 961.9 608.8 954.4 607.9C938.1 606 921.5 605.7 905.1 604.7C903.1 604.5 903.1 607.5 905 607.7Z" fill="#16A34A"/>
<path d="M1098.3 571.6C1098.7 573.3 1100.4 573.7 1102 573.4C1105.1 572.9 1108.3 571.8 1111.3 570.9C1113.2 570.4 1112.4 567.5 1110.5 568C1108.7 568.5 1106.9 569 1105.1 569.4C1104.3 569.6 1103.4 569.8 1102.6 570.1C1102.2 570.2 1101.8 570.3 1101.4 570.4C1100.7 570.3 1100.7 570.4 1101.2 570.7C1100.8 568.9 1097.9 569.7 1098.3 571.6Z" fill="#16A34A"/>
<path d="M971.6 533.4C961.7 530.2 974.6 513.2 981.5 520.8C984 523.5 983.9 528.2 981.6 531C979 534.2 974.5 534.7 971 532.7C969.3 531.7 967.8 534.3 969.5 535.3C974.6 538.2 981.5 537.1 984.7 532C987.6 527.3 986.8 520 981.7 517.1C970.6 510.9 957.3 532 970.9 536.4C972.7 536.9 973.5 534 971.6 533.4Z" fill="#16A34A"/>
<path d="M1202.8 509.3C1235.1 511 1267.1 514.8 1298.9 520.8C1300.8 521.2 1301.6 518.3 1299.7 517.9C1267.7 511.8 1235.4 507.9 1202.8 506.2C1200.9 506.2 1200.9 509.2 1202.8 509.3Z" fill="#16A34A"/>
<path d="M1202.3 518C1233.1 521.3 1264 524.8 1294.7 528.5C1296.6 528.7 1296.6 525.7 1294.7 525.5C1263.9 521.8 1233.1 518.3 1202.3 515C1200.4 514.8 1200.4 517.8 1202.3 518Z" fill="#16A34A"/>
<path d="M1201.3 527C1219.9 530.1 1238.6 532.1 1257.4 532.7C1259.3 532.8 1259.3 529.8 1257.4 529.7C1238.9 529 1220.4 527.2 1202.1 524.1C1200.2 523.8 1199.4 526.7 1201.3 527Z" fill="#16A34A"/>
<path d="M1190.1 580.9C1215.4 584.5 1240.8 587.5 1266.2 589.9C1268.1 590.1 1268.1 587.1 1266.2 586.9C1241 584.5 1215.9 581.5 1190.9 578C1189 577.7 1188.2 580.6 1190.1 580.9Z" fill="#16A34A"/>
<path d="M1188.2 589.5C1208.3 593 1228.4 595.9 1248.6 598.3C1250.5 598.5 1250.5 595.5 1248.6 595.3C1228.6 593 1208.8 590.1 1189 586.6C1187.1 586.2 1186.3 589.1 1188.2 589.5Z" fill="#16A34A"/>
<path d="M1186.1 602.2C1211.3 607.2 1236.7 610.6 1262.3 612.2C1264.2 612.3 1264.2 609.3 1262.3 609.2C1237 607.5 1211.8 604.2 1186.9 599.3C1185 598.9 1184.2 601.8 1186.1 602.2Z" fill="#16A34A"/>
<path d="M468 730.9C514 733.2 560.2 730.8 606.2 730.1C652.2 729.4 698.1 729.2 744.1 729.3C836.4 729.5 928.6 731.2 1020.9 733.3C1072.9 734.5 1124.8 735.9 1176.8 737.2C1178.7 737.3 1178.7 734.3 1176.8 734.2C1084.6 731.8 992.3 729.3 900 727.8C807.7 726.3 715.5 725.6 623.2 726.8C571.5 727.4 519.6 730.5 468 727.8C466 727.8 466 730.8 468 730.9Z" fill="#16A34A"/>
<path d="M466.2 378.7C472.2 379.6 476.4 375.5 488.3 366.7C506.2 353.4 510 353 512.7 353.2C514 353.3 516.4 353.7 527.7 362.2C544.2 374.6 545.2 378.4 550.6 378.7C560.4 379.1 561.8 366.7 573.5 365.6C584.1 364.6 587.4 374.3 600.5 373.8C610.6 373.5 616.5 367.3 617.4 368.6C618.5 370.3 609 383.4 595.3 385.5C585.2 387 583 381.1 573.2 382.5C559.6 384.5 557 396.9 547 396C541.1 395.4 540.3 391 530.1 384C524.7 380.3 515.3 373.9 505 373.1C486.1 371.7 476.3 390 464.9 384.7C459.4 382.2 456.3 375.4 457 374.6C457.5 373.8 461 377.9 466.2 378.7Z" fill="#64748B"/>
<path d="M934.7 327.4C928.6 355.1 921.1 382.5 912.3 409.5C911.7 411.3 914.6 412.1 915.2 410.3C924 383.3 931.5 355.9 937.6 328.2C938 326.3 935.1 325.5 934.7 327.4Z" fill="#16A34A"/>
<path d="M914.1 411.8C924.4 413 934.7 412.5 945.1 412.3C955.9 412 966.7 411.8 977.6 411.5C999.2 411 1020.9 410.4 1042.5 409.9C1044.4 409.9 1044.4 406.9 1042.5 406.9C1020.9 407.4 999.2 408 977.6 408.5C967.1 408.8 956.6 409 946.1 409.3C935.4 409.6 924.8 410.1 914.1 408.9C912.2 408.6 912.2 411.6 914.1 411.8Z" fill="#16A34A"/>
<path d="M951.3 355.3C947.5 373.1 944.3 391 941.6 409C941.3 410.9 944.2 411.7 944.5 409.8C947.2 391.8 950.4 373.9 954.2 356.1C954.6 354.2 951.7 353.4 951.3 355.3Z" fill="#16A34A"/>
<path d="M953.6 356.9C958.9 357.2 964.1 357.7 969.3 358.7C969 358.1 968.6 357.5 968.3 356.9C963.6 373.8 959.6 390.9 956.3 408.1C955.9 410 958.8 410.8 959.2 408.9C962.5 391.7 966.5 374.6 971.2 357.7C971.4 357 971 356 970.2 355.9C964.7 354.9 959.3 354.3 953.7 354C951.6 353.8 951.6 356.8 953.6 356.9Z" fill="#16A34A"/>
<path d="M979.4 372.3C977.9 384.5 975.9 396.5 973.4 408.5C973 410.4 975.9 411.2 976.3 409.3C978.9 397.1 980.9 384.7 982.4 372.3C982.6 370.4 979.6 370.4 979.4 372.3Z" fill="#16A34A"/>
<path d="M980.9 372.5C986.5 372.3 992.2 372.4 997.8 372.8C997.3 372.2 996.8 371.5 996.4 370.9C994.2 382.8 992.3 394.7 990.7 406.7C990.4 408.6 993.4 408.6 993.7 406.7C995.3 395 997.1 383.4 999.3 371.7C999.5 370.7 998.9 369.9 997.9 369.8C992.3 369.4 986.6 369.4 981 369.5C978.9 369.5 978.9 372.5 980.9 372.5Z" fill="#16A34A"/>
<path d="M1015.9 345.1C1012.4 366 1008.3 386.9 1003.8 407.6C1003.4 409.5 1006.3 410.3 1006.7 408.4C1011.2 387.7 1015.3 366.8 1018.8 345.9C1019.2 344 1016.3 343.2 1015.9 345.1Z" fill="#16A34A"/>
<path d="M1018.3 343.6C1018.3 343.8 1018.3 343.9 1018.3 344.1C1018.3 344.9 1019 345.6 1019.8 345.6C1020.6 345.6 1021.3 344.9 1021.3 344.1C1021.3 343.9 1021.3 343.8 1021.3 343.6C1021.3 342.8 1020.6 342.1 1019.8 342.1C1019 342.2 1018.3 342.8 1018.3 343.6Z" fill="#16A34A"/>
<path d="M1019 346.1C1023.6 347.1 1028 347.6 1032.7 347.5C1032.2 346.9 1031.7 346.2 1031.3 345.6C1027.4 366.5 1023.8 387.5 1020.4 408.5C1020.1 410.4 1023 411.2 1023.3 409.3C1026.7 388.3 1030.3 367.3 1034.2 346.4C1034.4 345.5 1033.8 344.5 1032.8 344.5C1028.4 344.5 1024.2 344.1 1019.9 343.2C1017.9 342.8 1017.1 345.6 1019 346.1Z" fill="#16A34A"/>
<path d="M1064.7 339.3C1098.7 338.9 1132.6 339.1 1166.6 340C1168.5 340 1168.5 337 1166.6 337C1132.6 336.2 1098.7 336 1064.7 336.3C1062.8 336.3 1062.8 339.3 1064.7 339.3Z" fill="#16A34A"/>
<path d="M1067 351.5C1088.1 352.9 1109.3 352.6 1130.4 350.6C1132.3 350.4 1132.3 347.4 1130.4 347.6C1109.3 349.6 1088.1 349.9 1067 348.5C1065.1 348.4 1065.1 351.4 1067 351.5Z" fill="#16A34A"/>
<path d="M1062.4 366.6C1091.4 366.1 1120.4 366.6 1149.4 368.1C1151.3 368.2 1151.3 365.2 1149.4 365.1C1120.4 363.5 1091.4 363 1062.4 363.6C1060.5 363.6 1060.5 366.6 1062.4 366.6Z" fill="#16A34A"/>
<path d="M1218 413C1207.8 411.7 1202.9 401.5 1200 392.8C1197.3 384.6 1196.3 376 1199.4 367.8C1204.8 353.4 1219.5 341.8 1234.3 338.5C1249.7 335 1265.3 343.2 1272.7 356.9C1280.5 371.3 1277.8 389.8 1268.7 402.9C1257.5 419 1233.9 420.8 1217.5 412.3C1215.8 411.4 1214.3 414 1216 414.9C1231.7 423 1253.4 422.6 1266.7 409.9C1279.7 397.5 1283.9 375.4 1277.1 359C1270.6 343.5 1254.2 332.7 1237.2 334.9C1220.4 337.1 1203.5 349.9 1197.1 365.6C1192.8 376.3 1194.6 387.5 1198.8 397.9C1202.4 406.7 1208.1 414.7 1218.1 416C1219.9 416.2 1219.9 413.2 1218 413Z" fill="#16A34A"/>
<path d="M1222.2 342.5C1226.9 354.6 1231.2 366.9 1235.3 379.3C1235.9 381.1 1238.8 380.3 1238.2 378.5C1234.1 366.1 1229.8 353.9 1225.1 341.7C1224.4 340 1221.5 340.7 1222.2 342.5Z" fill="#16A34A"/>
<path d="M1238.4 381C1250.2 372.8 1261.9 364.3 1273.3 355.6C1274.8 354.4 1273.3 351.8 1271.8 353C1260.3 361.7 1248.7 370.2 1236.9 378.4C1235.3 379.5 1236.8 382.1 1238.4 381Z" fill="#16A34A"/>
<path d="M1237.9 381.1C1251.3 380.5 1264.5 378.3 1277.4 374.5C1279.2 374 1278.5 371.1 1276.6 371.6C1264 375.3 1251.1 377.5 1237.9 378C1236 378.2 1236 381.2 1237.9 381.1Z" fill="#16A34A"/>
<path d="M1235.5 380.1C1227.5 390.4 1219.6 400.7 1211.6 411C1210.4 412.5 1213 414 1214.2 412.5C1222.2 402.2 1230.1 391.9 1238.1 381.6C1239.3 380.1 1236.7 378.6 1235.5 380.1Z" fill="#16A34A"/>
<path d="M470 725.8C467.5 725.1 469 721.8 470.1 720.7C471.3 719.5 474.3 719.6 475.9 719.6C478.8 719.5 481.7 719.6 484.7 719.5C490.7 719.5 496.7 719.4 502.7 719.4C514.7 719.3 526.7 719.3 538.7 719.2C562.4 719.1 586 718.9 609.7 718.8C657.4 718.5 705 718.3 752.7 718.2C847.7 717.9 942.6 717.9 1037.6 718.4C1063.6 718.6 1089.7 718.6 1115.7 719.7C1128.6 720.2 1141.5 721 1154.4 722.2C1160.8 722.8 1167.3 723.5 1173.7 724.3C1175.8 724.6 1177.9 724.8 1180 725.2C1181.7 725.5 1182.7 725.2 1183.3 726.8C1184.9 730.6 1179.8 734.5 1176.7 734.7C1174.8 734.8 1174.8 737.8 1176.7 737.7C1183.4 737.2 1188.1 730.4 1185.6 724C1185.4 723.5 1185.1 723 1184.6 723C1136.9 715.9 1088.6 715.9 1040.5 715.6C990.8 715.3 941.2 715.2 891.5 715.1C791.9 715.1 692.2 715.5 592.6 716C564.6 716.2 536.6 716.3 508.6 716.5C501.9 716.5 495.3 716.6 488.6 716.6C483 716.6 476.4 715.7 471 717.3C465.8 718.8 462.4 727 469.2 728.9C471 729.2 471.8 726.3 470 725.8Z" fill="#16A34A"/>
<path d="M462.6 743.4C452.6 779.5 440.4 815 425.9 849.6C425.2 851.4 428.1 852.2 428.8 850.4C443.3 815.8 455.5 780.3 465.5 744.2C466 742.3 463.1 741.5 462.6 743.4Z" fill="#16A34A"/>
<path d="M463.6 746.4C489.3 749.5 515.8 747.4 541.6 747.1C543.5 747.1 543.5 744.1 541.6 744.1C515.8 744.5 489.3 746.5 463.6 743.4C461.6 743.2 461.7 746.2 463.6 746.4Z" fill="#16A34A"/>
<path d="M538.4 746.9C529.9 778.3 520.9 809.5 511.4 840.7C510.8 842.6 513.7 843.3 514.3 841.5C523.8 810.4 532.8 779.1 541.3 747.7C541.8 745.8 538.9 745 538.4 746.9Z" fill="#16A34A"/>
<path d="M427.3 851.1C441.4 851 455.4 850.9 469.5 850.8C476.4 850.8 483.2 850.7 490.1 850.7C496.2 850.7 502.3 850.9 508.3 849.5C510.2 849.1 509.4 846.2 507.5 846.6C501.2 848.1 494.6 847.7 488.1 847.7C481.2 847.7 474.4 847.8 467.5 847.8C454.1 847.9 440.7 848 427.3 848C425.4 848.1 425.4 851.1 427.3 851.1Z" fill="#16A34A"/>
<path d="M554.1 747.6C621.7 745.7 689.4 745.8 757 748C758.9 748.1 758.9 745.1 757 745C689.4 742.8 621.7 742.6 554.1 744.6C552.2 744.6 552.2 747.6 554.1 747.6Z" fill="#16A34A"/>
<path d="M551.3 765.2C590.5 765.1 629.7 765.1 669 765C670.9 765 670.9 762 669 762C629.8 762.1 590.6 762.1 551.3 762.2C549.3 762.2 549.3 765.2 551.3 765.2Z" fill="#16A34A"/>
<path d="M511 847.6C512.8 844.6 514.1 841.4 514.8 838.1C515.2 836.2 512.3 835.4 511.9 837.3C511.2 840.4 510.1 843.4 508.4 846.1C507.4 847.7 510 849.2 511 847.6Z" fill="#16A34A"/>
<path d="M886.2 756.4C878.2 794.6 870.5 832.8 863 871C862.6 872.9 865.5 873.7 865.9 871.8C873.4 833.6 881.1 795.4 889.1 757.2C889.5 755.3 886.6 754.5 886.2 756.4Z" fill="#16A34A"/>
<path d="M863.6 873.5C904.7 874.6 945.7 875.7 986.8 876.8C1027.4 877.9 1068 879.6 1108.6 879.6C1110.5 879.6 1110.5 876.6 1108.6 876.6C1068 876.6 1027.4 874.8 986.8 873.8C945.7 872.7 904.7 871.6 863.6 870.5C861.7 870.4 861.7 873.4 863.6 873.5Z" fill="#16A34A"/>
<path d="M866.6 873.2C879 859.8 891.4 846.3 903.8 832.9C903.1 832.9 902.4 832.9 901.7 832.9C905.8 838 910.6 842.2 916.2 845.6C917.9 846.6 919.4 844 917.7 843C912.3 839.8 907.7 835.7 903.8 830.8C903.3 830.2 902.2 830.3 901.7 830.8C889.3 844.2 876.9 857.7 864.5 871.1C863.2 872.5 865.3 874.6 866.6 873.2Z" fill="#16A34A"/>
<path d="M917 844.6C930.3 828.9 943.7 813.3 957 797.6C958.2 796.1 956.1 794 954.9 795.5C941.6 811.2 928.2 826.8 914.9 842.5C913.6 843.9 915.7 846 917 844.6Z" fill="#16A34A"/>
<path d="M954.9 796.1C957.6 799.7 960.3 803.2 963 806.8C963.6 807.6 964.5 807.8 965.4 807.1C977.6 797.1 989.5 786.6 1001 775.8C1002.4 774.5 1000.3 772.4 998.9 773.7C987.4 784.5 975.5 795 963.3 805C964.1 805.1 964.9 805.2 965.7 805.3C963 801.7 960.3 798.2 957.6 794.6C956.3 793 953.7 794.5 954.9 796.1Z" fill="#16A34A"/>
<path d="M997.8 777.1C1014.5 790.3 1030.6 804.2 1046.2 818.6C1047.6 819.9 1049.7 817.8 1048.3 816.5C1032.7 802 1016.6 788.2 999.9 775C998.4 773.8 996.3 775.9 997.8 777.1Z" fill="#16A34A"/>
<path d="M1048 818.2C1068.6 805.1 1083.4 784.9 1103.5 771.1C1105.1 770 1103.6 767.4 1102 768.5C1081.9 782.3 1067.1 802.5 1046.5 815.6C1044.9 816.6 1046.4 819.2 1048 818.2Z" fill="#16A34A"/>
<path d="M1086 774.2C1092.3 773.1 1098.4 771.5 1104.5 769.6C1103.9 769 1103.3 768.4 1102.7 767.8C1101.6 772.8 1100.6 777.8 1099.5 782.8C1099.1 784.7 1102 785.5 1102.4 783.6C1103.5 778.6 1104.5 773.6 1105.6 768.6C1105.8 767.5 1104.9 766.4 1103.8 766.8C1097.7 768.7 1091.6 770.3 1085.3 771.4C1083.4 771.7 1084.2 774.6 1086 774.2Z" fill="#16A34A"/>
<path d="M923 764.3C919.5 800 915.9 835.7 912.4 871.4C912.2 873.3 915.2 873.3 915.4 871.4C918.9 835.7 922.5 800 926 764.3C926.1 762.4 923.1 762.4 923 764.3Z" fill="#16A34A"/>
<path d="M967.4 758C963.7 796.3 960.7 834.7 958.5 873.1C958.4 875 961.4 875 961.5 873.1C963.7 834.7 966.7 796.3 970.4 758C970.5 756 967.5 756.1 967.4 758Z" fill="#16A34A"/>
<path d="M1051.2 756.9C1047.3 796.9 1044.5 836.9 1042.8 877.1C1042.7 879 1045.7 879 1045.8 877.1C1047.5 837 1050.3 796.9 1054.2 756.9C1054.4 755 1051.4 755 1051.2 756.9Z" fill="#16A34A"/>
<path d="M1001.1 742.3C998.5 786.9 995.9 831.4 993.3 876C993.2 877.9 996.2 877.9 996.3 876C998.9 831.4 1001.5 786.9 1004.1 742.3C1004.2 740.3 1001.2 740.3 1001.1 742.3Z" fill="#16A34A"/>
<path d="M689.4 764.7C709.7 766.5 730 762 750.3 764.5C752.2 764.7 752.2 761.7 750.3 761.5C730 759 709.7 763.5 689.4 761.7C687.4 761.6 687.5 764.6 689.4 764.7Z" fill="#16A34A"/>
<path d="M374.5 584.3C409.9 579.1 444 593.3 475.4 608.1C504.5 621.9 533.3 636 565.6 640.1C634.6 648.7 700.7 619.7 765.6 601.4C803.7 590.7 843.2 583.2 882.9 588.2C884.8 588.4 884.8 585.4 882.9 585.2C812.6 576.3 746.2 605.9 680 624.2C646.4 633.5 611.6 640.5 576.6 638.2C541.5 635.9 510.6 621.7 479.3 606.8C446.4 591.1 411 576 373.7 581.5C371.8 581.7 372.7 584.6 374.5 584.3Z" fill="#16A34A"/>
<path d="M563.9 611.6C652 616.3 733.6 577 817.9 558.1C842.2 552.7 866.9 548.9 891.9 548.4C893.8 548.4 893.8 545.4 891.9 545.4C803.9 547.4 723.4 587.9 637.8 603.4C613.4 607.8 588.7 610 563.9 608.7C562 608.4 562 611.4 563.9 611.6Z" fill="#16A34A"/>
<path d="M394.4 509.3C434.3 512.1 470.7 529.9 507.5 543.8C544.9 557.9 583.9 565.8 623.9 564.8C646.8 564.2 669.6 560.9 691.8 555.1C693.7 554.6 692.9 551.7 691 552.2C650.7 562.8 608.4 564.8 567.3 557.7C528.1 550.9 492.8 533.8 455.7 520.5C435.9 513.4 415.5 507.8 394.4 506.4C392.4 506.2 392.5 509.2 394.4 509.3Z" fill="#16A34A"/>
<path d="M665.7 317C664.9 322 663.6 326.9 661.8 331.7C661.4 332.7 662.4 333.6 663.2 333.6C726.9 336.4 790.6 337 854.3 335.3C856.2 335.2 856.2 332.2 854.3 332.3C790.6 334 726.8 333.5 663.2 330.6C663.7 331.2 664.2 331.9 664.6 332.5C666.4 327.7 667.7 322.9 668.5 317.8C668.9 315.9 666 315.1 665.7 317Z" fill="#16A34A"/>
<path d="M667.7 318.1C731.8 318.9 795.8 319.7 859.9 320.5C861.8 320.5 861.8 317.5 859.9 317.5C795.8 316.7 731.8 315.9 667.7 315.1C665.8 315 665.8 318 667.7 318.1Z" fill="#16A34A"/>
<path d="M859.6 318.7C857.6 323.4 856.1 328.3 855.3 333.4C855 335.3 857.9 336.1 858.2 334.2C859 329.4 860.3 324.7 862.2 320.2C862.9 318.4 860.3 316.9 859.6 318.7Z" fill="#16A34A"/>
<path d="M151.2 892.6C134.1 896.7 116.9 900.8 99.8 904.9C108.7 961.1 115.7 989.1 120.6 988.7C124.8 988.4 127.5 967.4 128.7 925.7C138.2 922.4 147.7 919.2 157.2 915.9C155.2 908.2 153.2 900.4 151.2 892.6Z" fill="#161616" stroke="#161616" stroke-width="3" stroke-miterlimit="10"/>
<path d="M268.1 683.1C265.9 689.7 262.6 700.2 259.2 713.5C252.1 741.2 251.8 753 244.6 788.2C236 830.1 231.6 837.3 228.8 841.4C216.1 859.6 198.5 867.9 188.9 872.4C165.7 883.3 144.1 884.3 131.3 883.8C130.8 889.7 130.3 904.1 138.9 918.6C143.2 925.8 148.3 930.7 152.2 933.8C165.1 934.5 187.3 934 212.3 924.3C223 920.2 250.3 909.2 271.1 881.9C287.1 860.9 291.5 840.4 296.4 817.4C305.9 773.1 294.1 766.4 305.9 728.8C313 706 321.2 694.8 315.4 686.4C308.5 676.1 286.8 678.8 268.1 683.1Z" fill="#16A34A"/>
<path opacity="0.09" d="M269.3 683.2C268.3 693.9 266.8 708.7 264.7 726.3C262.8 741.8 260.7 758.6 257.3 778.2C251.4 811.8 248.4 828.6 242 842.6C236.4 854.8 225.6 877.4 200.8 894.5C175 912.2 148.3 913.9 136.4 914C135 910.8 133.6 906.7 132.7 902C131.4 895.2 131.4 889.3 131.8 884.9C139.5 885 150.1 884.4 162.4 881.7C183.8 876.9 198.1 868.2 201.8 865.9C210.9 860.2 220.4 854.3 228.2 842.7C233.5 834.9 235.7 827.8 239.3 813C244.6 791.2 247.3 780.4 249.5 764.4C251.9 745.9 257.2 718.9 269.3 683.2Z" fill="#3D3D3D"/>
<path opacity="0.12" d="M132 884.6C131.6 889 131.4 895 132.8 901.9C133.8 907 135.3 911.2 136.7 914.5C150.4 911.6 193.5 900.6 220.2 861.2C228.1 849.5 232.8 838 235.7 828.1C233 834.4 228.3 843.6 220 852.5C205.7 867.8 189.3 873.4 177.5 877.4C167.5 880.9 151.9 884.9 132 884.6Z" fill="#3D3D3D"/>
<path d="M260.8 984.4C253 1005.9 245.2 1027.4 237.4 1049C292.2 1055.4 320.1 1056.3 321.1 1051.5C321.9 1047.8 305.7 1040.5 272.7 1029.8C277.2 1016.5 281.8 1003.2 286.3 989.9C277.8 988.1 269.3 986.2 260.8 984.4Z" fill="#161616" stroke="#161616" stroke-width="3" stroke-miterlimit="10"/>
<path d="M342.1 694.5C343.2 709.3 344.2 729.5 344 753.3C343.5 819 334.6 868.3 332 881.7C325.3 916.8 313.7 962.1 292.8 1012.7C286.2 1013 269.9 1012.8 253.6 1002.6C243.6 996.3 237.4 988.7 234 983.6C240.1 972 247.6 956.7 254.9 938C267.8 905 273.4 878.7 277 861.4C285.1 822.5 289.2 803.1 285.9 782.3C282.7 762.6 277.5 759.2 278.3 742.4C278.5 738.7 281 695.6 308 687.4C321.9 683.3 335.7 690.5 342.1 694.5Z" fill="#16A34A"/>
<path opacity="0.14" d="M318.4 687C327.3 690.8 324.4 715.8 323.6 722.4C312.9 816.6 327.6 765.9 314.7 824C297 903.8 273.1 980.5 264.7 1006.9C262.7 1006.9 259.9 1006.7 256.9 1005.3C254.1 1004 253.5 1002.3 250.1 999.6C246.4 996.7 245.1 996.9 242.3 994.9C239.8 993.1 236.7 989.9 234.5 984C239.7 973.8 245.9 960.7 252.2 944.9C260.2 924.9 264.6 909.7 269.4 893.3C269.4 893.3 284.4 841.6 287.1 802.1C287.6 794.2 287.2 788.8 286.6 784.9C285.7 778.7 284.4 775.6 282.4 768.2C281.9 766.3 279.1 755.5 278.2 747.4C275.7 723.5 288.4 704.3 294.4 697.4C296.5 694.9 299.3 692.2 303.3 690.1C304.8 689.4 313.5 684.9 318.4 687Z" fill="#3D3D3D"/>
<path opacity="0.11" d="M295.5 849.7C293.8 874 288.1 881.2 271.5 940.9C264.2 967.1 258.8 988.6 255.3 1002.4C252.5 1001.3 249 999.5 245.4 996.7C240 992.5 236.8 987.9 235 984.7C240 974.4 246.7 959.7 253.2 941.4C255.8 934.2 257.5 928.7 259.1 923.7C281.9 850.6 285.5 828.4 286.6 813.2C287.5 800.3 286.8 789.9 286.6 786.6C285.6 772.8 283.2 763.3 283.2 763.3C283.2 763.3 298.8 802.5 295.5 849.7Z" fill="#3D3D3D"/>
<path d="M169.1 649.8C169.3 649.5 170.3 649.6 172.3 649.8C175.7 650.1 176.8 650.6 179 650.8C181.1 650.9 183.9 651.1 184.7 649.8C185.8 648.1 182.3 644.8 177.4 637.7C169 625.7 169.4 621.5 170.1 619.6C170.3 619.1 170.9 617.2 172.2 616.9C173.9 616.5 175.8 618.8 177.6 621.1C180.6 624.8 181.8 627.7 182.1 627.5C182.7 627.3 179.2 619.8 180 610.6C180.2 608.1 180.6 604.5 182.4 604C184 603.5 186.4 605.5 188.3 608.7C188.3 608.3 188.8 602.8 190.7 602.4C192.2 602.1 193.9 605 195.6 607.8C197 610.1 197.9 612.2 198.4 613.6C198.3 610.8 199.8 608.5 201.9 607.8C204.2 607.1 206.3 608.9 206.4 609C208.7 611.1 208.5 614.8 208.5 616.1C208.3 621.8 208.9 631.4 210.2 645.4C212.8 644.4 216.6 642.6 220.8 639.8C225.1 636.9 229.6 633.1 240.7 619.8C245 614.6 247.2 612 251 606.9C264.7 588.6 272.8 577.8 281 562.5C283.6 557.6 287.8 549.3 296.5 541.9C299.3 539.5 304.8 535 308 536.7C310.3 537.9 310.5 541.7 310.4 547.3C310.3 559.5 310.2 565.5 308.1 573.8C303.3 593 294.4 606.4 292.4 609.4C284.5 621 276.6 627.7 266.4 636.4C255.8 645.4 247 652.8 233.1 658.4C224 662 216.8 663.3 209.2 664.7C196.6 666.9 190.1 668 183.6 665.2C174.3 661.2 168 651.3 169.1 649.8Z" fill="white"/>
<path d="M307.6 535.3C296.8 536.8 290.4 546.9 284.6 555.2C277.2 565.8 270.2 576.7 263 587.4C255.8 598.2 248.3 608.8 239.8 618.7C235.7 623.4 231.5 628 226.9 632.2C221.8 637 216.2 642.5 209.5 644.8C207.7 645.4 208.5 648.3 210.3 647.7C220.8 644.2 229.7 634.2 237 626.3C245.4 617.2 252.9 607.3 260 597.1C267.2 586.7 274.1 576 281.1 565.5C287.7 555.7 295.5 540 308.4 538.2C310.3 537.9 309.5 535.1 307.6 535.3Z" fill="black"/>
<path d="M213 666.3C225.8 665.1 236.6 659.2 247.3 652.4C257.9 645.7 268 638 277 629.2C288.6 618 298.4 604.7 304.9 589.8C311.3 574.9 314.3 558.6 312.2 542.4C312 540.5 309 540.5 309.2 542.4C312.6 569.5 301.8 596.4 284.4 617C276.6 626.2 267.5 634.3 257.9 641.5C244.7 651.3 229.7 661.8 212.9 663.4C211.1 663.5 211.1 666.5 213 666.3Z" fill="black"/>
<path d="M213 663.2C207.1 663.1 201.4 664.5 195.6 664.9C188.9 665.4 183.3 663.4 177.8 659.7C175.6 658.2 173.2 656.4 171.8 654C168.9 648.9 174.9 651.9 177 652.5C180.4 653.5 183.5 653.1 186.1 650.8C187.6 649.5 185.4 647.4 184 648.7C179.5 652.7 171.1 643.8 168.1 648.9C165.8 652.8 171.1 658.4 173.7 660.5C178.2 664.2 183.7 667.2 189.6 667.9C197.4 668.8 205.2 666.1 213 666.3C214.9 666.2 214.9 663.2 213 663.2Z" fill="black"/>
<path d="M186.3 649.1C184.3 642.4 179.8 637.2 176.2 631.3C175.7 630.5 169.7 619.6 171.7 618.7C175.2 617.1 180.2 627.2 180.9 629.2C181.5 631 184.4 630.2 183.8 628.4C182.2 623.8 179.4 619.5 175.2 616.7C173 615.2 169.8 614.1 168.8 617.5C167.5 622.1 170.9 628.3 173.2 632.1C176.8 638 181.5 643.1 183.5 649.9C184 651.8 186.9 651 186.3 649.1Z" fill="black"/>
<path d="M184.7 628.3C183.8 624.6 182.6 620.8 182 617C181.6 614.7 181.5 612.4 181.7 610.1C182 607.1 182.6 604.1 185 607.6C188.7 613.1 189.9 620.6 191.7 626.8C192.2 628.7 195.1 627.9 194.6 626C193.1 620.7 191.9 615.1 189.7 610C188.6 607.5 186.1 601.9 182.6 601.9C179 601.9 178.9 607.5 178.7 610C178.2 616.5 180.2 622.7 181.8 628.9C182.2 631 185.1 630.2 184.7 628.3Z" fill="black"/>
<path d="M191.7 614.1C191.2 612 190.2 608.5 191 606.4C192.5 602.5 194.7 609.5 195.3 611C197.5 616.3 198.7 621.9 199 627.6C199.1 629.5 202.1 629.5 202 627.6C201.6 622.1 200.7 616.8 198.8 611.7C197.7 608.6 196.1 603.1 193.1 601.4C186.3 597.5 188.2 612.5 188.7 615C189.2 616.8 192.1 616 191.7 614.1Z" fill="black"/>
<path d="M201.8 617.6C201.7 616.6 201 611.2 202.2 610.2C205.5 607.3 206.4 612.6 206.8 614.2C207.5 617.6 207.4 621.4 207.7 624.9C208.2 632.1 208.7 639.2 209.2 646.4C209.3 648.3 212.3 648.3 212.2 646.4C211.7 639.2 211.2 632.1 210.7 624.9C210.4 619.9 210.8 613.3 208.2 608.8C206.8 606.4 204.4 604.2 201.6 606C198 608.4 198.5 614.8 199 618.4C199.2 620.3 202.1 619.5 201.8 617.6Z" fill="black"/>
<path opacity="0.09" d="M308.7 538.8C308.2 538.8 308.6 546.7 305.5 557.7C303.1 566.1 299.2 574.1 286.6 590.7C275 606 266.6 617.1 252 630.1C236 644.4 228 651.5 217 654.2C193.2 660.1 171.3 646.4 169.2 651C168.1 653.5 174.1 658.5 176.4 660.2C179.3 662.3 184.9 665.6 198.1 665.8C212.2 666 223 662.6 225.4 661.8C250.8 653.4 267.5 636.8 276.4 627.6C288.2 615.6 297.8 605.8 304.1 589.4C314.2 563.9 309.7 538.8 308.7 538.8Z" fill="#3D3D3D"/>
<path opacity="0.13" d="M306.7 577.4C306 577 301.8 584 295.8 592.3C295.8 592.3 281.4 612.3 262.8 629.3C252.6 638.6 234 653 204.5 664.3C210.6 664.7 219.7 664.5 229.8 661.1C233 660 241 657 260.3 640.2C275.7 626.8 284.3 619.4 292.9 606.4C302.2 592.5 307.7 577.9 306.7 577.4Z" fill="#3D3D3D"/>
<path d="M319.2 524.3C312.9 526.5 309 530.4 304.9 534.5C293.5 546 289.4 559 286.2 569.5C276.6 601.1 271.7 616.8 269.5 630.6C266.9 646.3 264.7 667.1 265.4 691.7C270.6 695.3 278 699.9 287.4 703.9C298.2 708.5 307.9 712.6 320.4 711.6C325.4 711.2 334 709.8 343.6 703.9C344.1 697.4 345.2 687.3 348.1 675.4C353.1 654.3 358.5 648.2 367.3 622C374.2 601.3 377.6 590.7 377.1 578C376.7 569.1 375.9 551.7 362.8 538.1C352.8 527.8 334.9 518.8 319.2 524.3Z" fill="white"/>
<path d="M314.7 525C302.7 532.2 295.4 544.2 289.4 556.5C283 569.8 278.2 583.8 274.7 598.2C267.4 628.2 265.6 659.3 264.4 690.1C264.3 692 267.3 692 267.4 690.1C268.5 660.7 270.2 631.2 276.8 602.4C280 588.3 284.4 574.4 290.5 561.2C296.4 548.3 303.7 535 316.2 527.6C317.8 526.6 316.3 524 314.7 525Z" fill="black"/>
<path d="M353.4 531.5C364.7 540.3 372.5 552.7 375 566.8C377.8 582.9 373.9 599.3 368.5 614.4C363.3 629 356.5 642.9 351.8 657.7C347.1 672.2 344.2 687.3 343 702.5C342.8 704.4 345.8 704.4 346 702.5C347.4 685.4 351 668.5 356.8 652.4C362.3 637 369.6 622.3 374.3 606.6C378.5 592.5 380.7 577.2 377.2 562.6C374.1 549.4 366.3 537.7 355.6 529.5C354 528.2 351.9 530.3 353.4 531.5Z" fill="black"/>
<path d="M265 692.1C277.1 702.9 292.1 710 308.2 712.3C321 714.1 337.5 714.2 345.9 702.7C347 701.1 344.4 699.6 343.3 701.2C334.9 712.6 316.3 711.1 304.1 708.6C290.3 705.8 277.6 699.3 267.1 690C265.7 688.7 263.6 690.8 265 692.1Z" fill="black"/>
<path opacity="0.11" d="M332.1 524.7C335.5 530.6 322.9 541.5 313.2 558.5C307 569.3 304.6 578.7 299.9 597.5C288.9 641.5 291 691.5 291.9 706C283.3 701.4 274.8 696.9 266.2 692.3C266.6 682.5 267.4 668.5 269 651.7C271.6 625.1 273.1 610.6 278.2 591.8C282.7 575.5 287.1 560.3 299.1 544C306.9 533.4 315.2 526.1 321.2 521.5C325 521.3 330.3 521.6 332.1 524.7Z" fill="#3D3D3D"/>
<path opacity="0.15" d="M293.9 554.9C295.2 555.3 289.9 576.2 281.4 622.4C275.8 652.7 274.5 663.6 279 677.1C284.8 694.4 296.5 704.9 294.3 707.2C292.9 708.6 286.9 706.6 266.2 691.1C265.7 669.3 267.1 639.2 275.8 604.7C282.7 577.4 292.5 554.4 293.9 554.9Z" fill="#3D3D3D"/>
<path d="M387.2 483.5C391.9 487.8 391.3 496.2 390.4 508.4C389.8 516.9 389.5 521.2 386.6 525.3C380.6 533.8 367 537.7 356.3 532.9C355 532.3 348.4 529.2 344.8 521.7C339.6 510.9 345 500.1 346.1 498.1C354.5 482.4 378.8 475.7 387.2 483.5Z" fill="#64748B"/>
<path d="M387.4 428.2C391.2 429 393.5 434.3 398.1 445C402 454.1 403.8 461.5 404.6 465C405.9 471.1 406.6 476.3 406.9 480.2C404.2 481 401.5 481.7 398.8 482.5C398.2 486 396.9 491.2 394.3 497C390.7 505 387.7 511.9 380.7 515.1C372.6 518.8 363.9 515.5 361 514.1C359.9 516.9 358.3 520.1 356.2 523.5C354.7 525.9 353.1 527.9 351.7 529.6C342.6 531.9 338.4 529.5 336.8 528.3C328.4 522.1 329.1 502.1 342 479.5C341.3 478.4 340.2 476.8 338.8 475C335.9 471.4 334.9 471.3 333.6 469.2C333.2 468.6 330.1 463.3 332.6 458.5C333.8 456.2 336.3 454.2 339.1 454C342.5 453.7 343.6 456.4 346.5 457.2C351.5 458.7 357 453.3 370.7 440.4C382.2 429.6 384.5 427.6 387.4 428.2Z" fill="white"/>
<path d="M397 444.6C401.7 456.4 404.7 468.7 405.8 481.4C405.9 482.8 408.2 482.8 408.1 481.4C407 468.5 404 456 399.2 444C398.7 442.6 396.5 443.2 397 444.6Z" fill="black"/>
<path d="M406.4 480.4C403.7 480.7 401 481.1 398.3 481.4C396.9 481.6 396.9 483.8 398.3 483.7C401 483.4 403.7 483 406.4 482.7C407.8 482.4 407.8 480.2 406.4 480.4Z" fill="black"/>
<path d="M397.7 482.4C395.9 492.4 391.8 502.1 385.1 509.8C377.1 519.2 364.4 514.3 354.6 510.3C353.3 509.7 352.7 511.9 354 512.5C363.2 516.3 376.4 521.5 384.7 513.5C392.9 505.7 397.8 494 399.8 483C400.1 481.6 398 481 397.7 482.4Z" fill="black"/>
<path d="M359.5 514.6C357.4 519.4 354.8 523.9 351.8 528.2C351 529.4 352.9 530.5 353.7 529.3C356.7 525 359.3 520.4 361.4 515.7C362 514.4 360.1 513.3 359.5 514.6Z" fill="black"/>
<path d="M353.8 512.8C355.3 514.4 357 515.8 358.9 516.8C360.2 517.5 361.3 515.6 360 514.9C358.2 513.9 356.7 512.7 355.3 511.2C354.4 510.1 352.8 511.7 353.8 512.8Z" fill="black"/>
<path d="M388.6 460.9C388 459.7 388.1 458.2 388.9 457.2C388.3 457 387.6 456.9 387 456.7C387.3 458.4 387.3 460 387.2 461.7C387.6 461.3 388 460.9 388.3 460.6C388.4 460.8 388.5 461 388.7 461.2C389 459.8 386.8 459.2 386.5 460.6C386.2 461.8 387 462.9 388.3 462.9C389 462.9 389.4 462.4 389.4 461.8C389.6 459.9 389.5 458.1 389.2 456.2C389.1 455.4 387.8 455.1 387.3 455.7C385.8 457.6 385.5 460 386.7 462.1C387.3 463.3 389.3 462.2 388.6 460.9Z" fill="black"/>
<path d="M382.6 447.4C384 443.9 388 442.9 391.1 444.9C392.3 445.7 393.4 443.7 392.2 443C387.8 440.1 382.4 442 380.4 446.8C379.9 448.2 382.1 448.8 382.6 447.4Z" fill="black"/>
<path d="M378 465.4C377.6 465.4 377.1 465.4 376.7 465.4C376.6 465.2 376.6 465 376.5 464.8C376.7 464.1 377 463.9 377.6 464.1C377.7 464.2 377.9 464.4 378 464.5C378 464.5 378 464.5 378 464.4C377.7 463.9 377 463.7 376.5 464C376 464.3 375.8 465 376.1 465.5C376.5 466 377.1 466.3 377.7 466.2C378.3 466 378.8 465.5 378.8 464.8C378.8 463.3 376.7 462.9 376 464.1C375.7 464.6 375.9 465.3 376.4 465.6C377 466.1 377.7 465.9 378 465.4Z" fill="black"/>
<path d="M383 470C382.8 470.2 382.5 470.5 382.2 470.7C382.2 470.7 382.2 470.7 382.3 470.7C382.1 470.7 381.9 470.7 381.7 470.7C381.7 470.7 381.6 470.7 381.6 470.6C381.5 470.5 381.3 470.3 381.2 470.2V470.3C381.2 470 381.1 469.7 381.1 469.4C381.2 469.3 381.3 469.2 381.4 469.1C380.9 469.5 380.7 470.1 381 470.6C381.3 471.1 382.1 471.4 382.5 471C383.2 470.5 383.7 469.5 382.9 468.8C382.6 468.5 382.1 468.3 381.6 468.5C381.1 468.6 380.9 468.9 380.7 469.4C380.5 470 380.9 470.6 381.5 470.8C382.2 471 382.8 470.6 383 470Z" fill="black"/>
<path d="M375.1 470.1C375 470.1 375 470.1 374.9 470.1C373.5 470.1 373.4 472.4 374.9 472.4C375 472.4 375 472.4 375.1 472.4C376.6 472.4 376.6 470.1 375.1 470.1Z" fill="black"/>
<path d="M384.1 484.9C385.7 489.8 388.2 494.2 393.2 496.1C394.5 496.6 395.1 494.5 393.8 493.9C389.7 492.3 387.6 488.2 386.3 484.2C385.8 482.9 383.7 483.5 384.1 484.9Z" fill="black"/>
<path d="M383.8 486.1C384.4 485.2 385.4 484.7 386.6 484.5C387.2 484.4 387.5 483.6 387.4 483.1C387.2 482.4 386.6 482.2 386 482.3C384.3 482.5 382.9 483.5 381.9 484.9C381 486.1 382.9 487.3 383.8 486.1Z" fill="black"/>
<path d="M341.3 473.1C335.2 475.3 331.9 465.9 333 461.5C333.6 459.2 335.2 456.5 337.6 455.8C340.9 454.8 343.9 457.4 346 459.4C347 460.4 348.6 458.8 347.6 457.8C344.9 455.2 341.6 452.7 337.6 453.5C334 454.2 331.8 457.6 330.9 460.9C329.3 467 334.2 478 341.9 475.3C343.3 474.8 342.7 472.6 341.3 473.1Z" fill="black"/>
<path d="M379.5 430.4C378.3 431.8 376.5 434.1 374.4 437.1C366.8 448.2 367.5 452.7 362.2 455.9C358.1 458.4 351.8 459.2 347 457.2C343.4 455.7 342.4 453.4 339.3 453.5C335.9 453.6 332.7 456.4 331.4 459.7C329.8 463.6 331.4 467.2 332.5 469.5C333.5 471.6 334.9 474.7 337.9 475.4C339.8 475.8 341.5 475.1 342.4 474.6C342.3 475.7 342.1 477.4 342 479.5C341.5 488.2 342.5 494.2 342.9 498.1C343.9 507.5 344.8 515 342 522.1C337.7 532.7 327 537.4 323.1 539.1C306.5 546.4 291.1 540.3 289 539.4C285.7 538 269.9 531.5 266 516.7C263.6 507.8 266.3 498.8 267.4 495C267.9 493.4 269.2 489.4 271.8 484.8C277.5 474.6 285.7 468.4 291.4 464.9C293.3 458 296.5 448.1 302.1 436.8C308.4 424 311.9 416.9 319.9 410.3C332.6 399.8 347 398.5 351.7 398.2C354.1 398 365.9 397.3 379.9 403C389.8 407 401.4 411.8 406.2 423.7C411.7 437.6 403.9 451.4 402.4 454C402 452.3 401.2 449.7 399.5 447.2C397 443.5 394.2 442 390 439.1C387.3 437 383.7 434.3 379.5 430.4Z" fill="#64748B"/>
<path d="M338.3 529.2C342.6 531.7 347.6 532.3 352.4 530.7C354.2 530.1 353.4 527.2 351.6 527.8C347.6 529.1 343.5 528.7 339.8 526.6C338.1 525.7 336.6 528.3 338.3 529.2Z" fill="black"/>
<path opacity="0.14" d="M333.6 469.4C334.4 471.7 336.5 473.3 338.8 473.6C341.3 473.9 343.8 472.7 345.1 470.5C344.6 473.8 344.1 480.5 347.2 487.9C351.4 498.1 359.6 502.9 363.2 505C372 510 380.4 510.3 384.5 510.2C383.6 511.8 381.6 514.4 378.2 516.1C370.1 520.1 361.6 514.7 361.1 514.4C358.9 519.2 356.6 522.7 354.8 525.2C352.3 528.6 351.3 529.4 350.6 529.7C345.8 532.5 339.5 529.6 337.7 528.7C335.7 530.6 332.8 533 329 535.3C325.8 537.2 317.2 542.2 305.3 542.3C305.3 542.3 289.3 542.3 276.4 531.5C271.4 527.3 269.3 523.6 268.7 522.4C268.2 521.4 266.1 517.4 265.6 510.9C264.5 498.4 269.9 487.8 272.9 483C278.3 474.4 285.2 469.3 289.6 466.6C289.3 467.7 285.6 483.2 293.8 490.7C304.1 500 327.4 491.2 332.5 477.8C333.8 474.5 333.8 471.4 333.6 469.4Z" fill="#3D3D3D"/>
<path opacity="0.07" d="M345.8 497.1C345 497.5 346.9 502.7 348.7 506.4C351.6 512.5 355.2 517 357.8 519.7C358.5 517.9 359.2 516.1 359.9 514.4C362.2 515.4 366.5 516.8 371.9 516.5C375.5 516.3 378.4 515.4 380.4 514.6C365 514.3 357.2 509.6 352.9 505.3C349.4 501.8 346.6 496.7 345.8 497.1Z" fill="#3D3D3D"/>
<path d="M594.2 404.8C592.8 404 592.5 402.1 592.3 400.8C591.6 396.1 595.1 392.3 595.7 391.5C599.4 387.4 601.5 389.5 605 385.7C607.6 382.9 607.4 380.6 611.4 376.9C614 374.4 614.9 374.7 615.1 374.8C616.5 375.4 615.3 378.5 616.7 383.3C617.9 387.3 619.4 387.3 619.9 390.7C620 391.6 620.7 396.1 618 398.7C616.8 399.9 615.2 400.2 611.9 400.8C608.1 401.5 607.6 401.1 605 401.6C598.7 402.8 596.5 406.1 594.2 404.8Z" fill="white"/>
<path d="M593.9 400.6C578.8 416.2 563.7 431.9 548.6 447.5C546.7 449.7 546.6 453 548.3 455.2C550.2 457.6 553.6 458.2 556.3 456.5C571.8 438.5 587.2 420.4 602.7 402.4C599.8 401.8 596.9 401.2 593.9 400.6Z" fill="black"/>
<path d="M539.3 486C539.8 487.3 538.2 490 529.5 495.8C527 495.3 524.9 493.9 524.5 492.1C523.9 489.1 528.2 486.6 530.1 485.7C533.6 484.1 538.6 484.2 539.3 486Z" fill="black"/>
<path d="M363.4 527.2C358 528.4 348.5 530.7 344.1 538.5C341.2 543.6 341.8 549 342 550.9C343 559.4 348.9 566.5 355.6 569.6C363.8 573.3 372.3 570.5 376.6 569C414 556.1 432.7 549.7 440.3 545.9C462.3 534.8 486.8 522.3 514.7 499.1C521.9 493.1 527.6 487.8 531.6 484C533.2 484.9 536.8 486.6 541.1 486.1C544.6 485.7 546.9 484.1 550.3 481.7C552.7 480 555.5 478 558 474.3C560.4 470.8 561.2 467.7 561.9 465.1C562.6 462.2 564 457 562.2 455.9C560.9 455.1 559.5 457.3 556 457.4C555.7 457.4 551.4 457.4 549.5 454.7C547.7 452.2 549.6 449.9 548 447.9C546.3 445.7 541.9 445.9 539.1 446.7C532.6 448.7 529.5 455.9 527.5 459.7C522 470.6 514.1 476.5 499.4 487.6C488 496.2 477.8 500.2 464.1 505.7C458.7 507.9 448.4 511.9 434.8 515.2C411.9 520.6 393.8 520.4 363.4 527.2Z" fill="white"/>
<path d="M347 537.5C357.3 527.2 373.5 526.8 387.1 524.9C403 522.7 418.9 520.3 434.5 516.6C462.2 510.2 489.7 499.5 511.4 480.7C517.1 475.7 522.4 470.2 526.8 463.9C530.8 458.2 538.4 441.4 547.8 449.4C549.3 450.6 551.4 448.5 549.9 447.3C546.3 444.2 541.5 444 537.3 446.1C531.4 449.1 528.7 455.7 525.2 461C516.1 474.8 502.3 485.4 488.1 493.5C458.2 510.5 423.8 516.6 390.2 521.5C375 523.7 356.6 523.9 345 535.4C343.5 536.7 345.6 538.8 347 537.5Z" fill="black"/>
<path d="M344.8 533.9C338.1 545.3 339.4 560.4 350.6 568.5C364 578.2 382.8 569 396.5 564.3C428.8 553.1 459.6 537.9 488.2 519.1C504.1 508.7 519.2 497.1 533.5 484.6C535 483.3 532.8 481.2 531.4 482.5C486.5 521.7 432 552.7 374.2 568.2C364.3 570.9 354 570.3 347.6 561.3C342 553.6 342.7 543.4 347.4 535.5C348.4 533.8 345.8 532.3 344.8 533.9Z" fill="black"/>
<path d="M560.3 453.8C560.8 456.1 561.3 458.6 561.1 461C560.7 464.3 559.1 465.4 557.9 468.1C557.4 469.3 557.3 470.5 556.9 471.7C556.1 474.4 555 475 553.1 476.6C551 478.3 549.8 480.3 548 482.2C545.1 485.3 543.4 484.3 539.8 483.9C537.2 483.6 534.5 483.2 531.9 482.9C530 482.7 530 485.7 531.9 485.9C536.2 486.5 543.5 489 547.5 486.9C549.1 486.1 550 484.6 551 483.2C552.3 481.4 553.5 479.9 555.5 478.9C556.5 478.4 557 478.8 557.9 478C559 477.1 559.3 475.6 559.6 474.3C560.3 471.1 561.3 469 562.7 466.2C564.8 462.1 564.1 457.5 563.2 453.2C562.8 451.1 559.9 451.9 560.3 453.8Z" fill="black"/>
<path d="M548 448.2C545.7 451.6 547.5 456.5 551.1 458.1C555.3 460 560 457.2 562.1 453.5C563.1 451.8 560.5 450.3 559.5 452C558.2 454.3 555.5 456.4 552.8 455.5C550.4 454.8 549.1 451.8 550.6 449.7C551.6 448.1 549 446.6 548 448.2Z" fill="black"/>
<path d="M549.9 449.6C565 433.9 579.9 418 594.6 401.9C595.9 400.5 593.8 398.3 592.5 399.8C577.8 415.9 562.9 431.8 547.8 447.5C546.4 448.8 548.5 451 549.9 449.6Z" fill="black"/>
<path d="M562 452.8C576.4 436.2 590.7 419.6 605.1 403C606.4 401.5 604.2 399.4 603 400.9C588.6 417.5 574.3 434.1 559.9 450.7C558.6 452.2 560.7 454.3 562 452.8Z" fill="black"/>
<path d="M538.1 485.6C536.2 487.5 534.3 489.5 532.4 491.4C531.8 492 530.9 493.3 530.2 493.7C527.7 495 526.4 492.5 525.5 490.9C524.5 489.2 521.9 490.7 522.9 492.4C524.4 494.9 526.9 498.1 530.2 497.1C532 496.6 533.3 494.8 534.5 493.5C536.4 491.6 538.3 489.6 540.2 487.7C541.6 486.3 539.4 484.2 538.1 485.6Z" fill="black"/>
<path d="M604.3 402.6C610.3 405.3 617.6 403.7 620.7 397.5C622.2 394.5 622.3 390.9 621.2 387.8C619.3 382.8 612.4 378.4 618.5 373.2C620 371.9 617.8 369.8 616.4 371.1C612.9 374.1 611.9 378.7 614.2 382.7C616.4 386.6 619.9 388.8 618.8 393.9C617.6 399.9 611.2 402.4 605.9 400C604 399.2 602.5 401.8 604.3 402.6Z" fill="black"/>
<path d="M594.4 399.3C595 394.9 596.6 392 600.5 389.8C602.5 388.7 604.6 387.8 606.4 386.4C610.1 383.4 611.2 377.9 615.6 375.7C617.3 374.8 615.8 372.3 614.1 373.1C611.6 374.3 610.1 376.2 608.7 378.6C606.5 382.1 604.5 384.4 600.8 386.3C594.8 389.4 592.3 392.5 591.4 399.3C591.2 401.2 594.2 401.2 594.4 399.3Z" fill="black"/>
<path d="M593.9 402.2C596.7 401.1 599.6 401.5 602 403.3C603.5 404.5 605 401.9 603.5 400.7C600.5 398.4 596.5 397.9 593 399.3C591.3 400 592.1 402.9 593.9 402.2Z" fill="black"/>
<path d="M603.8 388.4C607.7 387.1 611.7 387 615.7 388C617.6 388.5 618.4 385.6 616.5 385.1C612 384 607.4 384.1 603 385.5C601.2 386.1 602 389 603.8 388.4Z" fill="#64748B"/>
<path d="M602.1 388.4C609.4 385.3 611.6 376.8 618.4 373C617.8 372.2 617.2 371.4 616.6 370.6C611.4 375.3 616 381.7 617.3 386.9C618 386.3 618.8 385.8 619.5 385.2C615.7 383.6 611.9 382.9 607.8 383.2C608.2 384 608.7 384.7 609.1 385.5C610.5 382.8 612.2 380.4 614.1 378C613.3 377.5 612.4 377 611.6 376.5C610.8 378.6 609.8 381.2 610.2 383.4C610.3 384 611 384.5 611.6 384.5C614 384.4 614.6 381.1 615.4 379.3C614.5 379 613.5 378.8 612.6 378.5C612.8 380 613.3 381.8 613.1 383.4C613.3 383 613.6 382.5 613.8 382.1C613.1 382.5 610.4 382.2 609.2 382.5C607.2 382.9 605.5 383.6 603.7 384.6C602.4 385.3 603 387.5 604.5 387.4C607 387.2 609.5 386.9 612 386.7C613.9 386.5 613.9 383.5 612 383.7C609.5 383.9 607 384.2 604.5 384.4C604.8 385.3 605 386.3 605.3 387.2C607.4 386.1 609.7 385.3 612.1 385.2C613 385.1 614.4 385.5 615.2 384.9C617 383.6 615.8 380.5 615.6 378.6C615.4 377.3 613.5 376.3 612.8 377.8C612.7 378.1 611.1 381.5 611.6 381.5C612.1 381.9 612.6 382.2 613 382.6C612.7 381.1 613.9 378.6 614.4 377.3C614.9 375.9 612.8 374.7 611.9 375.8C609.8 378.3 608 381 606.4 383.9C605.9 384.8 606.5 386.3 607.7 386.2C611.3 385.9 614.6 386.4 617.9 387.8C619.1 388.3 620.5 387.5 620.1 386.1C619.1 382.1 614.7 376.2 618.6 372.7C619.9 371.5 618.2 369.5 616.8 370.3C610.1 374.1 607.7 382.6 600.5 385.7C598.8 386.6 600.4 389.1 602.1 388.4Z" fill="#64748B"/>
<path d="M616.7 369.9C612.5 372.5 609.9 376.4 606.8 380.1C604.9 382.4 602.8 383.8 600.7 385.8C599.9 386.5 599.2 386.9 599.2 388C599.2 388.2 599.3 388.5 599.6 388.6C605.9 391.3 612.9 384.1 619.1 389.2C619.5 389.5 620 389.5 620.3 389C622.1 386.4 618.1 383.9 616.6 382.3C616.1 381.8 615.1 382.3 615.3 383C615.6 384 615.5 383.9 616.2 384.7C616.8 385.5 618.1 384.7 617.5 383.9C617.3 383.4 617 383 616.8 382.5C616.4 382.7 616 383 615.5 383.2C616.2 383.9 619.9 386.8 619 388.1C619.4 388 619.8 388 620.2 387.9C618.1 386.2 615.7 385.4 612.9 385.5C611.3 385.6 609.7 385.9 608.1 386.2C606.8 386.5 605.6 386.8 604.3 386.9C602.9 387.1 601.2 387.9 602.3 386C602.9 385 604.7 384.1 605.5 383.3C606.7 382.1 607.8 380.8 608.8 379.4C611.4 376.2 613.8 373 617.3 370.8C618.3 370.7 617.5 369.4 616.7 369.9Z" fill="#64748B"/>
<path d="M601.3 389.1C604.3 389.5 607.2 388.5 610.2 388.1C612.7 387.8 614.7 388.2 617 389C618.3 389.5 619.1 389.8 620.5 389.6C621 389.5 621.3 389.2 621.2 388.7C621 387.4 620.7 386.7 620 385.6C619.5 384.8 618.2 385.6 618.7 386.4C619.4 387.2 619.7 388.1 619.8 389.1C620 388.8 620.3 388.5 620.5 388.2C617.7 388.5 614.9 386.5 612 386.5C608.6 386.6 605.1 388.2 601.7 387.7C600.7 387.5 600.3 388.9 601.3 389.1Z" fill="#64748B"/>
<path d="M615.5 372.5C616 371.8 616.6 371.2 617.4 370.8C617.6 370.7 618.3 370.2 618.5 370.4C618.8 370.6 618 371.2 617.8 371.3C616.6 372.3 615.8 373.6 615.2 375C614.8 375.9 616.3 376.3 616.6 375.4C617.2 374 618.2 373.1 619.3 372C620 371.4 620.4 370.5 619.7 369.6C618.2 367.6 615.3 370.2 614.3 371.5C613.8 372.2 614.9 373.3 615.5 372.5Z" fill="#64748B"/>
<path d="M618.9 369.2C617.2 370.3 616 372 615.5 374C615.3 374.9 616.7 375.3 616.9 374.4C617.3 372.8 618.2 371.5 619.6 370.5C620.5 369.9 619.7 368.6 618.9 369.2Z" fill="#64748B"/>
<path d="M346 537.3C349.2 531 360.8 528.6 367.2 527.8C369.1 527.5 368.3 524.6 366.4 524.9C359.2 525.9 347.1 528.7 343.4 535.8C342.6 537.5 345.2 539.1 346 537.3Z" fill="black"/>
<path opacity="0.13" d="M342.6 551.8C351.6 551.2 364.7 550 380.2 547C424.6 538.5 456.2 522 475.5 511.8C491.5 503.3 512.7 490.6 536 472.3C546.2 469 552.5 464.5 556.5 460.9C559.2 458.5 561.2 456.1 562.2 456.6C563.8 457.5 561.3 465.8 557.9 471.8C554.9 477.2 551.4 480.3 550.3 481.3C547.5 483.7 545.9 485.4 543.2 486.1C538.2 487.4 533.7 484.7 532.2 483.7C528.5 486.6 523.1 490.9 516.4 496C489.4 516.5 475.8 526.8 457.9 536.6C441.4 545.6 427.6 551 400.7 561.4C398.2 562.4 394.9 563.5 388.3 565.7C370.7 571.6 366.5 572.3 361.6 571.4C359.6 571 354.7 570.1 350.2 566.2C344.3 560.9 343 554.1 342.6 551.8Z" fill="#3D3D3D"/>
<path opacity="0.19" d="M421.9 552.5C421.7 552.2 423.4 550.8 460.9 527C510.3 495.6 506.8 498.4 512 494.6C533.6 478.6 543.2 467.8 548.2 471C551.6 473.2 552.2 481.2 548.5 484.7C545.3 487.8 538.6 487.5 532.6 483.1C520.5 493.9 502.5 508.6 478.8 523.5C450.8 540.8 422.6 553.7 421.9 552.5Z" fill="#3D3D3D"/>
</svg>
