<svg id="Layer_1" data-name="Layer 1" xmlns="http://www.w3.org/2000/svg" viewBox="0 0 651.97 184.13"><defs><style>.cls-1,.cls-2{fill:#141414;}.cls-1{stroke:#141414;stroke-miterlimit:10;stroke-width:0.25px;}</style></defs><path class="cls-1" d="M220.23,110.25c0-13.17,9.81-21.37,26.64-22.68l22.54-1.76v-2c0-12-7.17-16.24-16.83-16.24-11.56,0-18.15,5.12-18.15,13.75h-12c0-14.93,12.29-24.73,30.74-24.73,17.7,0,29.71,9.37,29.71,28.69v44.93H271.17l-1.47-17.11c-3.66,8.19-13.46,18.86-25,18.86C229.31,131.91,220.23,123.28,220.23,110.25Zm49.33-11V95.47l-18.3,1.46c-12.15,1.17-17.12,5.86-17.12,12.88,0,7.61,5.56,11.42,14.49,11.42C261.65,121.23,269.56,112.74,269.56,99.28Z"/><path class="cls-1" d="M293.85,58.59h12.44l1,17.9c4.83-9.81,14.49-19.95,25.91-19.95,20.49,0,33.22,15.37,33.22,37.32s-12,38.2-33.22,38.2c-11.42,0-20.93-9.64-25.61-18.42v39.51H293.85Zm36.44,61c14,0,22.39-10.54,22.39-25.17,0-14.79-8.34-25.32-22.39-25.32s-22.54,10.39-22.54,25.32C307.75,109.08,316.24,119.62,330.29,119.62Z"/><path class="cls-1" d="M373.61,58.59h12.44l1,17.9c4.83-9.81,14.49-19.95,25.91-19.95,20.49,0,33.22,15.37,33.22,37.32s-12,38.2-33.22,38.2c-11.42,0-20.93-9.64-25.62-18.42v39.51H373.61Zm36.44,61c14.05,0,22.39-10.54,22.39-25.17,0-14.79-8.34-25.32-22.39-25.32s-22.54,10.39-22.54,25.32C387.51,109.08,396,119.62,410.05,119.62Z"/><path class="cls-1" d="M453.66,130.16V22.44h13.76V130.16Z"/><path class="cls-1" d="M479.56,58.59h13.76v71.57H479.56Z"/><path class="cls-1" d="M533.86,56.54c11.27,0,21.07,10.14,25.76,19.95l1.17-17.9h12.29v94.56H559.47V113.64c-4.83,8.78-14.34,18.42-25.76,18.42-21.07,0-33.22-16.39-33.22-38.2S513.37,56.54,533.86,56.54Zm2.78,63.08c14.05,0,22.69-10.54,22.69-25.17,0-14.93-8.64-25.32-22.69-25.32s-22.25,10.53-22.25,25.32C514.39,109.08,522.59,119.62,536.64,119.62Z"/><path class="cls-1" d="M581.42,110.25c0-13.17,9.8-21.37,26.64-22.68l22.54-1.76v-2c0-12-7.18-16.24-16.84-16.24-11.56,0-18.14,5.12-18.14,13.75h-12c0-14.93,12.3-24.73,30.74-24.73,17.71,0,29.71,9.37,29.71,28.69v44.93H632.35l-1.46-17.11c-3.66,8.19-13.47,18.86-25,18.86C590.49,131.91,581.42,123.28,581.42,110.25Zm49.32-11V95.47l-18.29,1.46c-12.15,1.17-17.13,5.86-17.13,12.88,0,7.61,5.56,11.42,14.49,11.42C622.84,121.23,630.74,112.74,630.74,99.28Z"/><path class="cls-2" d="M96.37,6.14A88.46,88.46,0,1,0,184.83,94.6,88.46,88.46,0,0,0,96.37,6.14Zm-53.31,114-4.67-17c1.19-.23,2.39-.51,3.59-.84A47.29,47.29,0,0,0,75.1,44.18c-.13-.5-.28-1-.44-1.51l17-4.66c.15.5.29,1,.43,1.51A64.92,64.92,0,0,1,46.64,119.3C45.45,119.63,44.25,119.93,43.06,120.18Zm88.19,23.22q-1.2-1.38-2.52-2.7a47.3,47.3,0,0,0-66.9.38c-.37.37-.73.76-1.08,1.14l-12.54-12.4c.35-.38.71-.75,1.09-1.13a64.92,64.92,0,0,1,91.82-.52q1.32,1.31,2.55,2.67ZM149,122.29c-.51-.12-1-.24-1.53-.38a64.92,64.92,0,0,1-46.36-79.26c.31-1.19.65-2.38,1-3.54l17.09,4.47c-.39,1.15-.75,2.33-1.07,3.54A47.3,47.3,0,0,0,152,104.86c.5.13,1,.26,1.52.37Z"/></svg>