<svg width="720" height="594" viewBox="0 0 720 594" fill="none" xmlns="http://www.w3.org/2000/svg">
<path d="M511.335 147.312C515.791 147.312 519.404 143.699 519.404 139.243C519.404 134.787 515.791 131.175 511.335 131.175C506.879 131.175 503.267 134.787 503.267 139.243C503.267 143.699 506.879 147.312 511.335 147.312Z" fill="#16A34A"/>
<path d="M519.899 124.938C521.976 124.938 523.661 123.254 523.661 121.176C523.661 119.098 521.976 117.414 519.899 117.414C517.821 117.414 516.136 119.098 516.136 121.176C516.136 123.254 517.821 124.938 519.899 124.938Z" fill="#16A34A"/>
<path d="M273.24 75.9823C275.372 75.9823 277.101 74.2536 277.101 72.1213C277.101 69.9889 275.372 68.2603 273.24 68.2603C271.108 68.2603 269.379 69.9889 269.379 72.1213C269.379 74.2536 271.108 75.9823 273.24 75.9823Z" fill="#16A34A"/>
<path d="M525.888 527.868C529.497 527.868 532.422 524.942 532.422 521.334C532.422 517.725 529.497 514.8 525.888 514.8C522.279 514.8 519.354 517.725 519.354 521.334C519.354 524.942 522.279 527.868 525.888 527.868Z" fill="#16A34A"/>
<path d="M228.541 550.242C230.209 550.242 231.561 548.89 231.561 547.222C231.561 545.555 230.209 544.203 228.541 544.203C226.874 544.203 225.522 545.555 225.522 547.222C225.522 548.89 226.874 550.242 228.541 550.242Z" fill="#16A34A"/>
<path d="M266.26 327.195C267.983 327.195 269.379 325.799 269.379 324.077C269.379 322.354 267.983 320.958 266.26 320.958C264.538 320.958 263.142 322.354 263.142 324.077C263.142 325.799 264.538 327.195 266.26 327.195Z" fill="#16A34A"/>
<path d="M272.399 343.084C274.066 343.084 275.418 341.733 275.418 340.065C275.418 338.397 274.066 337.045 272.399 337.045C270.731 337.045 269.379 338.397 269.379 340.065C269.379 341.733 270.731 343.084 272.399 343.084Z" fill="#64748B"/>
<path d="M268.785 427.234C271.902 427.234 274.428 424.708 274.428 421.591C274.428 418.475 271.902 415.948 268.785 415.948C265.668 415.948 263.142 418.475 263.142 421.591C263.142 424.708 265.668 427.234 268.785 427.234Z" fill="#64748B"/>
<path d="M506.831 106.524C508.799 106.524 510.395 104.928 510.395 102.96C510.395 100.992 508.799 99.396 506.831 99.396C504.862 99.396 503.267 100.992 503.267 102.96C503.267 104.928 504.862 106.524 506.831 106.524Z" fill="#64748B"/>
<path d="M371.25 112.761C372.972 112.761 374.369 111.365 374.369 109.642C374.369 107.92 372.972 106.524 371.25 106.524C369.528 106.524 368.132 107.92 368.132 109.642C368.132 111.365 369.528 112.761 371.25 112.761Z" fill="#64748B"/>
<path d="M93.2085 356.697C94.5207 356.697 95.5845 355.633 95.5845 354.321C95.5845 353.009 94.5207 351.945 93.2085 351.945C91.8963 351.945 90.8325 353.009 90.8325 354.321C90.8325 355.633 91.8963 356.697 93.2085 356.697Z" fill="#64748B"/>
<path d="M517.622 544.203C520.902 544.203 523.562 541.543 523.562 538.263C523.562 534.982 520.902 532.323 517.622 532.323C514.341 532.323 511.682 534.982 511.682 538.263C511.682 541.543 514.341 544.203 517.622 544.203Z" fill="#64748B"/>
<path d="M581.229 35.6398C582.951 35.6398 584.348 34.2436 584.348 32.5213C584.348 30.799 582.951 29.4028 581.229 29.4028C579.507 29.4028 578.111 30.799 578.111 32.5213C578.111 34.2436 579.507 35.6398 581.229 35.6398Z" fill="#64748B"/>
<path d="M278.239 172.706C277.744 169.637 277.299 163.499 282.199 163.994C283.981 164.192 284.972 165.776 286.952 165.083C290.664 163.796 289.822 158.994 291.357 156.222C293.881 151.767 298.782 158.252 302.544 156.123C303.782 155.43 304.079 154.143 304.029 152.807C303.93 147.807 308.336 148.154 311.949 149.144C312.89 149.391 313.286 147.956 312.345 147.708C308.682 146.718 302.594 146.372 302.445 151.668C302.396 152.955 303.089 154.242 301.208 155.034C300.614 155.282 299.624 154.985 299.079 154.836C297.792 154.44 296.653 153.549 295.317 153.203C293.584 152.708 291.902 153.054 290.714 154.44C289.229 156.222 289.278 158.648 288.585 160.727C287.843 162.954 286.407 164.241 283.982 163.152C282.992 162.707 282.1 162.311 280.962 162.459C275.863 163.152 276.111 169.34 276.754 173.102C276.952 174.042 278.388 173.646 278.239 172.706Z" fill="#64748B"/>
<path d="M284.081 175.576C284.477 172.507 286.951 171.171 289.822 171.171C291.357 171.171 292.892 171.418 294.377 170.874C297.743 169.587 297.099 165.924 297.891 163.053C299.376 157.608 306.257 160.974 310.068 160.083C312.642 159.439 314.82 156.865 313.731 154.143C313.384 153.252 311.949 153.648 312.296 154.539C313.979 158.647 308.236 158.895 305.811 158.598C304.029 158.4 302.296 158.103 300.514 158.548C297.693 159.291 296.604 161.37 296.208 164.043C295.862 166.518 295.911 169.24 292.693 169.636C290.961 169.834 289.228 169.339 287.496 169.735C284.724 170.379 282.942 172.705 282.596 175.477C282.447 176.517 283.932 176.517 284.081 175.576Z" fill="#64748B"/>
<path d="M386.348 54.0045C384.615 56.1825 382.784 58.8555 383.625 61.776C384.318 64.152 386.199 65.043 388.476 64.8945C389.813 64.7955 391.199 64.449 392.288 65.637C393.129 66.528 392.585 68.409 392.337 69.399C391.941 70.9335 391.199 72.4185 391.347 74.052C391.595 76.2795 393.377 78.012 395.654 77.517C396.594 77.319 396.198 75.8835 395.258 76.0815C390.951 77.0715 393.921 69.894 394.119 68.1615C394.268 66.726 394.02 65.142 392.931 64.1025C391.842 63.063 390.506 63.162 389.12 63.3105C386.942 63.558 384.912 62.865 384.813 60.2415C384.764 58.2615 386.15 56.4795 387.338 54.9945C388.031 54.351 386.942 53.262 386.348 54.0045Z" fill="#64748B"/>
<path d="M398.03 53.2618C395.703 54.2518 394.218 56.6773 394.812 59.2018C395.109 60.3403 395.802 61.4293 396.792 62.1223C397.98 63.0133 399.366 62.8153 400.554 63.5578C402.782 64.8943 401 67.5178 401.099 69.5968C401.148 70.6363 401.396 71.5768 402.287 72.2203C403.623 73.2598 405.603 72.9133 406.148 71.2303C406.445 70.3393 405.009 69.9433 404.712 70.8343C402.831 70.5868 402.188 69.7453 402.732 68.3098C402.831 67.8148 402.93 67.3198 403.029 66.8248C403.128 66.3298 403.178 65.8348 403.178 65.3398C403.178 64.3003 402.881 63.2113 402.089 62.4688C400.901 61.3798 399.069 61.8253 397.782 60.9343C395.159 59.1028 396.099 55.6378 398.772 54.4993C399.663 54.1528 398.871 52.9153 398.03 53.2618Z" fill="#64748B"/>
<path d="M74.349 345.856C73.2105 344.074 73.2105 341.896 74.349 340.065C75.4875 338.283 77.0715 338.233 78.903 337.54C81.4275 336.501 81.477 333.877 81.3285 331.501C81.279 330.66 81.2295 329.769 81.477 328.927C82.1205 326.947 83.8035 327.492 85.338 327.739C86.229 327.888 87.0705 327.739 87.813 327.244C88.7535 326.601 89.3475 325.462 89.6445 324.373C89.892 323.482 89.9415 322.542 90.1395 321.651C90.2385 321.007 90.4365 320.413 90.7335 319.869C91.5255 318.631 92.466 318.532 93.6045 319.621C93.852 320.562 95.2875 320.166 95.04 319.225C94.149 316.008 90.189 317.443 89.199 319.72C88.7535 320.76 88.704 321.898 88.4565 322.987C88.308 323.631 88.209 324.324 87.8625 324.918C87.12 326.254 85.734 326.007 84.447 325.858C82.9125 325.71 81.7245 325.561 80.7345 326.997C79.596 328.63 79.893 330.561 79.893 332.442C79.9425 334.719 79.4475 335.61 77.22 336.352C76.329 336.649 75.5865 336.798 74.7945 337.392C71.9235 339.421 71.181 343.629 73.062 346.549C73.557 347.391 74.844 346.648 74.349 345.856Z" fill="#16A34A"/>
<path d="M80.5365 349.272C78.4575 348.975 79.2495 346.698 80.19 345.807C80.883 345.163 81.8235 344.767 82.7145 344.322C83.8035 343.777 84.8925 343.134 85.6845 342.193C87.813 339.52 84.744 335.956 87.714 333.828C90.684 331.749 98.6535 330.808 96.327 325.264C95.9805 324.373 94.6935 325.165 95.04 326.007C96.723 330.016 88.5555 331.204 86.4765 332.887C85.734 333.481 85.0905 334.273 84.7935 335.214C84.1995 337.293 85.932 339.421 84.3975 341.401C82.6155 343.579 78.804 343.579 77.913 346.648C77.3685 348.381 78.309 350.46 80.19 350.757C81.081 350.856 81.477 349.42 80.5365 349.272Z" fill="#16A34A"/>
<path d="M623.155 234.234C622.512 233.095 622.611 231.858 623.304 230.769C624.393 229.185 625.68 229.531 627.363 229.68C628.501 229.779 629.541 230.026 630.63 229.383C632.56 228.195 632.263 225.72 632.61 223.839C633.402 219.433 637.213 223.443 639.787 222.057C640.728 221.562 641.074 220.621 641.272 219.631C641.619 217.701 641.718 211.959 645.43 214.285C646.222 214.78 647.014 213.493 646.173 212.998C642.856 210.969 640.183 214.335 639.886 217.453C639.688 219.235 639.886 220.968 637.51 220.72C636.669 220.621 635.828 220.176 634.986 220.077C633.65 219.928 632.461 220.324 631.719 221.512C630.877 222.898 631.174 224.631 630.828 226.116C630.085 229.482 627.214 227.601 624.888 227.997C621.769 228.541 620.334 232.303 621.819 234.927C622.314 235.818 623.601 235.075 623.155 234.234Z" fill="#16A34A"/>
<path d="M630.531 237.352C629.69 235.075 632.313 232.551 634.59 233.739C634.887 233.887 635.283 233.887 635.481 233.64C636.62 232.402 636.916 230.967 637.411 229.383C638.302 226.512 640.431 226.116 643.005 225.324C645.529 224.532 648.351 222.453 647.311 219.483C646.965 218.592 645.53 218.988 645.876 219.879C647.312 223.789 640.283 224.086 638.204 225.522C635.679 227.304 636.422 230.521 634.491 232.6C634.788 232.551 635.085 232.501 635.382 232.501C632.065 230.769 627.858 234.184 629.145 237.798C629.442 238.639 630.878 238.293 630.531 237.352Z" fill="#16A34A"/>
<path d="M430.601 250.321C430.7 250.321 431.788 252.994 432.234 253.341C432.927 253.885 433.768 253.935 434.61 253.786C436.095 253.539 437.035 252.45 438.322 251.757C441.094 250.173 441.094 252.895 442.183 254.43C443.421 256.261 444.758 255.37 446.193 254.479C447.134 253.885 448.024 253.489 448.866 254.331C449.311 254.776 449.608 255.519 449.955 256.063C450.499 256.855 451.093 257.499 451.984 257.895C452.826 258.291 453.618 257.004 452.727 256.608C450.697 255.717 450.45 252.351 448.024 252.004C446.886 251.856 446.391 252.499 445.5 252.994C444.411 253.638 443.767 254.083 443.074 252.846C442.777 252.351 442.728 251.658 442.382 251.163C440.797 248.539 438.322 249.975 436.342 251.262C435.996 251.509 435.649 251.757 435.253 251.955C434.412 251.707 433.521 251.46 432.679 251.212C432.333 250.866 432.333 250.024 432.036 249.579C431.541 248.886 431.046 248.688 430.254 248.836C429.264 249.034 429.66 250.47 430.601 250.321Z" fill="#16A34A"/>
<path d="M442.233 245.569C443.718 243.243 447.133 248.094 448.519 248.688C449.361 249.034 450.153 249.034 451.044 248.787C451.44 248.688 451.787 248.49 452.133 248.341C453.47 247.797 454.608 248.143 455.697 249.084C457.281 250.42 457.726 252.202 460.003 252.697C461.34 252.994 462.578 252.598 463.172 251.311C463.568 250.47 462.28 249.678 461.884 250.569C460.498 253.539 456.687 247.698 455.697 247.054C453.865 245.866 452.727 246.856 450.896 247.252C447.975 247.846 447.035 244.579 444.609 243.787C443.174 243.292 441.788 243.54 440.996 244.876C440.402 245.668 441.689 246.411 442.233 245.569Z" fill="#16A34A"/>
<path d="M627.214 332.095C653.499 332.095 679.783 332.095 706.117 332.095C707.058 332.095 707.058 330.61 706.117 330.61C679.833 330.61 653.548 330.61 627.214 330.61C626.274 330.61 626.274 332.095 627.214 332.095Z" fill="#16A34A"/>
<path d="M648.747 331.749C648.747 339.421 648.747 347.044 648.747 354.717C648.747 355.657 650.232 355.657 650.232 354.717C650.232 347.044 650.232 339.421 650.232 331.749C650.232 330.808 648.747 330.808 648.747 331.749Z" fill="#16A34A"/>
<path d="M685.476 331.006C685.476 320.314 685.476 309.622 685.476 298.93C685.476 297.99 683.991 297.99 683.991 298.93C683.991 309.622 683.991 320.314 683.991 331.006C683.991 331.996 685.476 331.996 685.476 331.006Z" fill="#16A34A"/>
<path d="M668.002 299.524C677.952 299.524 687.902 299.524 697.851 299.524C698.792 299.524 698.792 298.039 697.851 298.039C687.902 298.039 677.952 298.039 668.002 298.039C667.062 298.039 667.062 299.524 668.002 299.524Z" fill="#16A34A"/>
<path d="M648.45 121.275C648.45 130.531 648.45 139.788 648.45 148.995C648.45 149.935 649.935 149.935 649.935 148.995C649.935 139.738 649.935 130.482 649.935 121.275C649.935 120.334 648.45 120.334 648.45 121.275Z" fill="#16A34A"/>
<path d="M625.334 151.123C643.203 151.123 661.023 151.123 678.892 151.123C679.833 151.123 679.833 149.638 678.892 149.638C661.023 149.638 643.203 149.638 625.334 149.638C624.344 149.638 624.344 151.123 625.334 151.123Z" fill="#16A34A"/>
<path d="M678.397 150.925C678.397 157.063 678.397 163.201 678.397 169.339C678.397 170.28 679.882 170.28 679.882 169.339C679.882 163.201 679.882 157.063 679.882 150.925C679.882 149.985 678.397 149.985 678.397 150.925Z" fill="#16A34A"/>
<path d="M181.269 92.4162C198.742 92.4162 216.265 92.4162 233.739 92.4162C234.679 92.4162 234.679 90.9312 233.739 90.9312C216.265 90.9312 198.742 90.9312 181.269 90.9312C180.328 90.9312 180.279 92.4162 181.269 92.4162Z" fill="#16A34A"/>
<path d="M231.561 92.2679C231.561 97.0199 231.561 101.772 231.561 106.524C231.561 107.464 233.046 107.464 233.046 106.524C233.046 101.772 233.046 97.0199 233.046 92.2679C233.046 91.2779 231.561 91.2779 231.561 92.2679Z" fill="#16A34A"/>
<path d="M215.672 91.0796C215.672 83.4566 215.672 75.8831 215.672 68.2601C215.672 67.3196 214.187 67.3196 214.187 68.2601C214.187 75.8831 214.187 83.4566 214.187 91.0796C214.187 92.0696 215.672 92.0696 215.672 91.0796Z" fill="#16A34A"/>
<path d="M77.4675 244.975C89.5455 244.975 101.623 244.975 113.701 244.975C114.642 244.975 114.642 243.49 113.701 243.49C101.623 243.49 89.5455 243.49 77.4675 243.49C76.527 243.49 76.527 244.975 77.4675 244.975Z" fill="#16A34A"/>
<path d="M99.594 230.076C99.594 234.531 99.594 238.986 99.594 243.441C99.594 244.381 101.079 244.381 101.079 243.441C101.079 238.986 101.079 234.531 101.079 230.076C101.079 229.135 99.594 229.135 99.594 230.076Z" fill="#16A34A"/>
<path d="M90.8819 230.818C97.3169 230.818 103.752 230.818 110.187 230.818C111.127 230.818 111.127 229.333 110.187 229.333C103.752 229.333 97.3169 229.333 90.8819 229.333C89.8919 229.333 89.8919 230.818 90.8819 230.818Z" fill="#16A34A"/>
<path d="M308.88 542.916C325.017 542.916 341.154 542.916 357.291 542.916C358.231 542.916 358.231 541.431 357.291 541.431C341.154 541.431 325.017 541.431 308.88 541.431C307.89 541.431 307.89 542.916 308.88 542.916Z" fill="#16A34A"/>
<path d="M338.679 541.431C338.679 537.966 338.679 534.501 338.679 530.986C338.679 530.046 337.194 530.046 337.194 530.986C337.194 534.451 337.194 537.916 337.194 541.431C337.194 542.421 338.679 542.421 338.679 541.431Z" fill="#16A34A"/>
<path d="M334.174 531.036C340.857 531.036 347.589 531.036 354.272 531.036C355.212 531.036 355.212 529.551 354.272 529.551C347.589 529.551 340.857 529.551 334.174 529.551C333.234 529.551 333.234 531.036 334.174 531.036Z" fill="#16A34A"/>
<path d="M78.606 516.879C94.743 516.879 110.88 516.879 127.017 516.879C127.958 516.879 127.958 515.394 127.017 515.394C110.88 515.394 94.743 515.394 78.606 515.394C77.6655 515.394 77.6655 516.879 78.606 516.879Z" fill="#16A34A"/>
<path d="M100.98 497.475C100.98 503.167 100.98 508.909 100.98 514.602C100.98 515.542 102.465 515.542 102.465 514.602C102.465 508.909 102.465 503.167 102.465 497.475C102.465 496.534 100.98 496.534 100.98 497.475Z" fill="#16A34A"/>
<path d="M100.98 495.247C94.5449 495.247 88.0604 495.247 81.6254 495.247C80.6849 495.247 80.6849 496.732 81.6254 496.732C88.0604 496.732 94.5449 496.732 100.98 496.732C101.92 496.732 101.92 495.247 100.98 495.247Z" fill="#16A34A"/>
<path d="M616.721 473.319C615.087 471.685 615.483 468.517 618.008 467.973C619.344 467.676 620.631 468.517 621.918 468.666C622.908 468.814 623.948 468.715 624.591 467.824C625.581 466.537 624.789 465.052 624.739 463.617C624.64 459.112 629.986 459.409 632.659 460.993C633.253 461.34 633.897 460.746 633.749 460.152C632.462 453.964 639.54 449.707 644.391 453.816C645.134 454.41 646.173 453.37 645.431 452.776C639.441 447.727 630.68 452.875 632.313 460.597C632.66 460.3 633.055 460.053 633.402 459.756C631.125 458.37 628.204 457.677 625.779 459.211C624.888 459.756 624.096 460.597 623.7 461.587C623.403 462.28 623.254 462.924 623.304 463.666C623.353 465.003 623.799 464.904 622.809 466.191C621.72 467.626 621.621 466.983 620.086 466.636C619.542 466.488 619.047 466.389 618.453 466.438C617.216 466.488 616.077 467.082 615.285 467.973C613.553 469.903 613.998 472.626 615.731 474.358C616.374 475.051 617.414 474.012 616.721 473.319Z" fill="#16A34A"/>
<path d="M626.373 474.804C625.829 470.299 633.204 470.25 635.283 467.131C635.828 466.339 636.026 465.448 636.372 464.607C637.016 463.072 638.154 462.082 639.837 461.637C642.56 460.944 645.381 462.181 647.856 463.221C648.747 463.567 649.143 462.132 648.252 461.785C643.698 459.904 637.56 458.469 635.036 464.013C634.145 465.993 633.848 467.082 631.769 468.121C630.531 468.715 629.244 469.062 628.056 469.755C626.175 470.844 624.69 472.527 624.938 474.804C625.037 475.744 626.522 475.744 626.373 474.804Z" fill="#16A34A"/>
<path d="M413.474 330.858C414.464 333.333 415.454 335.857 416.444 338.332C416.543 338.035 416.691 337.788 416.79 337.491C416.246 337.837 415.701 338.184 415.157 338.58C414.315 336.6 414.662 336.105 416.246 336.996C417.186 337.59 417.632 338.877 417.83 339.916C418.275 342.292 417.78 344.767 416.988 347.044C416.79 347.638 417.384 348.034 417.879 347.935C420.849 347.341 422.037 350.905 421.443 353.133C420.998 354.766 420.107 356.202 419.216 357.637C418.721 358.429 420.008 359.172 420.503 358.38C422.087 355.905 423.918 352.836 422.829 349.767C421.988 347.49 419.909 346.054 417.483 346.5C417.78 346.797 418.077 347.094 418.374 347.391C419.364 344.52 420.008 340.906 418.77 337.986C417.929 336.055 415.998 334.57 413.82 335.214C412.137 335.709 411.296 337.392 412.088 339.025C413.424 341.748 415.751 339.916 417.483 338.778C417.731 338.629 417.929 338.233 417.83 337.936C416.84 335.461 415.85 332.937 414.86 330.462C414.563 329.62 413.127 329.967 413.474 330.858Z" fill="#16A34A"/>
<path d="M120.73 96.6733C119.79 94.2973 122.958 93.6538 124.443 94.4953C125.581 95.1388 126.324 96.2773 127.017 97.3168C127.66 98.2573 128.353 99.2968 128.7 100.386C129.096 101.326 129.046 102.217 128.551 103.108C126.819 103.9 125.928 103.702 125.878 102.564C125.433 100.93 127.165 99.8413 128.65 99.8908C130.185 99.9403 131.62 100.831 132.66 101.92C134.442 103.801 135.085 106.276 134.838 108.801C135.283 108.652 135.778 108.553 136.224 108.405C135.234 106.969 136.174 105.435 137.511 104.692C138.649 104.098 139.936 104.247 141.025 104.841C142.807 105.781 144.045 107.514 145.183 109.098C145.728 109.89 147.015 109.147 146.47 108.355C144.589 105.732 141.768 102.069 138.055 102.91C135.333 103.504 133.155 106.672 134.937 109.147C135.382 109.791 136.224 109.494 136.323 108.751C136.768 104.049 133.303 97.6138 127.759 98.4058C125.779 98.7028 124.344 100.089 124.344 102.118C124.344 103.702 125.334 105.336 127.017 105.435C128.997 105.583 130.333 103.653 130.432 101.871C130.581 99.3958 128.65 96.7228 127.165 94.8913C125.779 93.2578 123.75 91.8718 121.572 92.7133C119.79 93.3568 118.602 95.1388 119.344 96.9703C119.641 97.9603 121.077 97.5643 120.73 96.6733Z" fill="#16A34A"/>
<path d="M381.496 169.29C379.417 168.052 380.902 164.389 383.229 165.924C385.456 167.409 382.486 169.933 381.051 168.201C380.457 167.458 379.417 168.498 380.011 169.24C381.15 170.626 383.328 170.527 384.615 169.389C386.1 168.052 385.704 165.874 384.169 164.785C382.635 163.696 380.407 163.894 379.467 165.676C378.526 167.359 379.17 169.636 380.803 170.577C381.546 171.022 382.288 169.785 381.496 169.29Z" fill="#16A34A"/>
<path d="M539.203 61.0332C538.114 59.4987 539.995 57.1722 541.728 57.8652C541.579 57.7662 541.431 57.6177 541.282 57.5187C542.223 59.1522 540.837 61.3797 539.005 61.2807C539.253 61.4787 539.5 61.6272 539.698 61.8252C539.401 60.9837 539.055 60.0927 538.758 59.2512C538.411 58.3602 536.976 58.7562 537.322 59.6472C537.619 60.4887 537.966 61.3797 538.263 62.2212C538.362 62.5677 538.609 62.7657 538.956 62.7657C540.54 62.8647 541.926 61.8747 542.619 60.4887C543.163 59.3997 543.46 57.1227 542.124 56.4297C539.203 54.9942 536.184 59.3502 537.916 61.7757C538.461 62.5677 539.748 61.8252 539.203 61.0332Z" fill="#16A34A"/>
<path d="M579.496 134.64C579.249 133.501 580.09 132.264 581.229 132.016C582.268 131.818 583.209 132.66 583.456 133.6C584.1 135.828 581.179 136.867 579.793 135.333C579.15 134.64 578.11 135.679 578.754 136.372C581.328 139.243 586.278 136.422 584.694 132.759C584.001 131.125 582.268 130.086 580.536 130.63C578.704 131.224 577.615 133.155 578.011 135.036C578.308 135.976 579.744 135.58 579.496 134.64Z" fill="#16A34A"/>
<path d="M418.819 544.351C416.938 543.46 417.087 540.886 418.819 539.896C420.502 538.956 422.086 539.797 423.621 540.49C424.908 541.084 426.393 541.629 427.531 540.49C428.571 539.5 428.373 537.966 428.422 536.679C428.62 531.679 433.471 532.669 436.788 533.907C437.679 534.253 438.075 532.818 437.184 532.471C434.263 531.333 430.204 530.244 427.878 533.115C427.185 533.956 426.987 534.946 426.937 535.986C426.888 536.679 427.185 538.213 426.789 538.857C425.7 540.49 424.215 539.005 423.076 538.51C420.898 537.57 417.78 537.817 416.443 540.094C415.305 542.025 415.998 544.648 418.027 545.589C418.918 546.034 419.661 544.747 418.819 544.351Z" fill="#16A34A"/>
<path d="M442.778 427.679C441.293 445.846 442.085 464.062 445.154 482.03C445.302 482.971 446.738 482.575 446.589 481.635C443.57 463.815 442.778 445.697 444.263 427.679C444.362 426.739 442.877 426.739 442.778 427.679Z" fill="#16A34A"/>
<path d="M443.767 428.818C451.489 431.491 459.459 433.273 467.577 434.164C475.2 434.956 483.961 435.798 491.287 432.927C492.178 432.58 491.783 431.145 490.892 431.491C483.764 434.313 475.101 433.471 467.577 432.679C459.607 431.838 451.737 430.006 444.163 427.383C443.223 427.036 442.876 428.472 443.767 428.818Z" fill="#16A34A"/>
<path d="M455.549 430.848C452.975 426.838 450.846 422.581 449.361 418.027C448.668 415.849 448.074 413.671 447.629 411.444C447.381 410.107 447.134 408.771 446.985 407.434C446.985 407.286 446.441 403.771 447.48 404.266C447.975 404.514 448.817 404.068 448.569 403.425C445.847 396.544 444.362 389.317 444.213 381.892C443.966 382.14 443.718 382.387 443.471 382.635C443.867 382.783 444.213 382.932 444.609 383.08C445.104 383.674 446.045 383.031 445.847 382.338C444.857 379.17 444.213 375.903 444.015 372.537C443.966 371.745 444.114 362.835 444.659 362.983C445.253 363.132 445.649 362.587 445.55 362.092C444.609 356.499 444.164 350.806 444.411 345.163C444.51 342.342 444.758 339.57 445.203 336.798C445.599 334.273 445.797 331.204 447.777 329.373C447.381 329.323 446.985 329.274 446.589 329.224C450.747 337.045 453.074 345.609 455.202 354.123C457.281 362.488 459.113 370.953 460.697 379.467C463.914 397.039 465.944 414.81 466.835 432.679C466.884 433.62 468.369 433.62 468.32 432.679C467.429 414.711 465.399 396.792 462.132 379.071C460.499 370.26 458.618 361.498 456.44 352.786C454.311 344.421 451.985 336.105 447.876 328.432C447.629 327.987 447.035 327.987 446.688 328.284C445.005 329.818 444.51 331.848 444.114 333.976C443.57 336.996 443.174 340.114 442.976 343.183C442.58 349.618 442.976 356.053 444.065 362.439C444.362 362.142 444.659 361.845 444.956 361.548C442.085 360.756 442.431 366.943 442.382 368.329C442.184 373.18 442.926 378.031 444.362 382.684C444.758 382.437 445.203 382.189 445.599 381.942C444.956 381.199 444.411 380.952 443.421 381.051C443.025 381.1 442.679 381.348 442.679 381.793C442.827 389.317 444.312 396.693 447.084 403.722C447.431 403.425 447.827 403.177 448.173 402.88C443.223 400.504 446.094 411.691 446.49 413.374C447.975 419.809 450.648 425.947 454.212 431.491C454.806 432.382 456.093 431.64 455.549 430.848Z" fill="#16A34A"/>
<path d="M463.419 381.397C462.973 378.229 462.874 375.012 463.27 371.844C463.369 371.052 465.25 361.746 466.191 362.142C466.686 362.389 467.28 362.092 467.329 361.498C467.626 355.162 469.606 349.519 471.933 343.678C474.259 337.887 476.536 332.293 480.397 327.294C480.051 327.294 479.704 327.294 479.358 327.294C482.179 330.511 481.833 335.412 481.981 339.421C482.179 343.926 482.328 348.43 482.377 352.935C482.476 361.795 482.328 370.656 481.932 379.516C481.09 397.633 479.061 415.701 475.992 433.57C475.843 434.511 477.279 434.907 477.427 433.966C480.645 415.354 482.674 396.495 483.516 377.586C483.912 368.082 484.011 358.578 483.813 349.074C483.714 344.322 483.615 339.57 483.268 334.818C483.07 331.699 482.575 328.63 480.397 326.205C480.15 325.908 479.605 325.908 479.358 326.205C475.546 331.155 473.17 336.6 470.893 342.391C468.369 348.628 466.24 354.667 465.894 361.498C466.29 361.3 466.636 361.053 467.032 360.855C464.013 359.518 463.023 365.953 462.627 367.686C461.538 372.339 461.439 377.041 462.132 381.744C462.082 382.734 463.518 382.338 463.419 381.397Z" fill="#16A34A"/>
<path d="M445.846 483.268C461.34 488.268 478.12 488.02 493.465 482.575C494.356 482.278 493.96 480.843 493.069 481.14C477.972 486.486 461.488 486.733 446.242 481.833C445.302 481.536 444.906 482.971 445.846 483.268Z" fill="#16A34A"/>
<path d="M491.089 432.432C491.683 440.451 492.327 448.47 492.871 456.489C493.416 464.656 493.614 472.923 492.277 481.041C492.129 481.981 493.564 482.377 493.713 481.437C495.049 473.467 494.95 465.448 494.406 457.429C493.861 449.113 493.218 440.748 492.574 432.432C492.525 431.491 491.04 431.491 491.089 432.432Z" fill="#16A34A"/>
<path d="M226.908 495.99C237.006 490.594 247.153 485.199 257.251 479.803C262.003 480.595 268.537 481.635 276.358 482.724C292 484.902 317.196 488.416 349.074 489.357C380.952 490.297 404.86 488.268 413.968 487.377C435.897 485.298 449.163 482.476 460.003 479.556C469.854 476.883 477.972 473.962 483.763 471.735C488.515 473.319 493.812 475.447 499.455 478.368C502.672 480.051 505.642 481.783 508.266 483.516C498.96 486.189 486.436 489.604 471.537 493.069C440.154 500.395 416.097 503.86 411.048 504.603C382.189 508.711 341.055 514.503 289.327 508.513C273.24 506.583 251.806 503.068 226.908 495.99Z" fill="white"/>
<path d="M226.364 496.039C226.611 498.118 226.908 500.148 227.156 502.227C230.868 503.266 236.313 504.751 243.045 506.236C255.915 509.107 268.983 511.087 286.061 512.424C349.124 517.374 399.515 512.968 399.515 512.968C424.71 510.741 449.163 508.464 480.744 499.257C492.624 495.792 502.326 492.277 509.256 489.555C508.712 487.228 508.167 484.902 507.623 482.575C505.692 483.367 502.821 484.506 499.307 485.793C475.448 494.505 455.796 497.376 438.273 499.504C399.762 504.256 380.507 506.583 352.242 507.028C320.067 507.573 276.903 505.642 226.364 496.039Z" fill="#161616"/>
<path d="M226.017 496.98C226.017 498.564 226.017 500.148 226.017 501.732C226.017 502.672 227.502 502.672 227.502 501.732C227.502 500.148 227.502 498.564 227.502 496.98C227.502 495.99 226.017 495.99 226.017 496.98Z" fill="#161616"/>
<path d="M226.561 503.118C263.538 513.117 302.148 514.404 340.213 514.949C376.794 515.444 413.622 513.86 449.658 507.177C469.953 503.415 489.951 497.921 509.256 490.446C510.147 490.1 509.751 488.664 508.86 489.011C474.804 502.227 438.619 508.959 402.237 511.781C365.557 514.602 328.531 513.959 291.852 511.731C269.923 510.345 248.193 507.474 226.957 501.732C226.017 501.435 225.621 502.871 226.561 503.118Z" fill="#161616"/>
<path d="M509.256 489.406C509.553 487.327 509.652 485.199 509.454 483.12C509.355 482.179 507.87 482.179 507.969 483.12C508.117 485.1 508.117 487.08 507.82 489.01C507.672 489.901 509.107 490.347 509.256 489.406Z" fill="#161616"/>
<path d="M227.205 496.832C237.6 491.882 247.797 486.585 257.796 480.843C258.638 480.348 257.895 479.111 257.054 479.556C247.055 485.249 236.858 490.595 226.463 495.545C225.572 495.941 226.314 497.228 227.205 496.832Z" fill="#161616"/>
<path d="M257.4 480.15C316.453 491.386 377.833 493.465 437.382 484.951C453.222 482.674 468.963 479.16 483.615 472.626C484.506 472.23 483.714 470.943 482.872 471.339C469.705 477.18 455.647 480.595 441.441 482.823C426.987 485.1 412.384 486.486 397.782 487.426C368.131 489.307 338.332 488.812 308.781 485.991C291.654 484.357 274.675 481.882 257.796 478.714C256.855 478.566 256.459 480.001 257.4 480.15Z" fill="#161616"/>
<path d="M483.318 472.379C492.129 475.25 500.396 479.259 508.118 484.358C508.91 484.902 509.652 483.615 508.86 483.071C501.039 477.923 492.624 473.864 483.714 470.943C482.774 470.646 482.378 472.082 483.318 472.379Z" fill="#161616"/>
<path d="M227.304 496.039C244.778 501.93 262.994 504.702 281.309 506.187C299.871 507.672 318.582 508.117 337.194 508.117C374.171 508.117 411.246 505.593 447.678 498.96C468.369 495.198 488.862 490.099 508.811 483.417C509.702 483.12 509.305 481.684 508.414 481.981C473.319 493.663 436.837 500.494 400.009 503.86C363.379 507.226 326.353 507.424 289.624 505.246C268.636 503.959 247.599 501.336 227.601 494.604C226.809 494.307 226.413 495.742 227.304 496.039Z" fill="#161616"/>
<path d="M255.816 213.345C316.305 199.336 378.576 196.267 440.451 195.673C457.974 195.475 475.497 195.525 493.02 195.525C493.96 195.525 493.96 194.04 493.02 194.04C430.947 193.941 368.577 193.891 306.949 202.455C289.624 204.88 272.448 207.949 255.42 211.909C254.479 212.157 254.875 213.592 255.816 213.345Z" fill="#161616"/>
<path d="M496.089 194.188C496.732 217.206 497.128 243.886 496.98 273.537C496.881 290.763 496.732 282.546 495.198 354.222C494.307 395.505 494.059 411.048 491.139 434.907C489.258 450.45 486.981 463.221 485.298 471.883C498.069 475.447 510.246 478.813 520.938 481.783C537.471 486.387 541.876 487.624 548.46 488.565C558.657 489.951 571.081 490.149 585.436 487.228C590.733 443.866 593.653 406.89 595.336 378.576C601.375 279.081 595.732 233.244 593.554 217.156C590.584 195.475 586.921 177.655 584.1 165.33C573.507 167.359 564.894 169.537 558.855 171.171C538.114 176.863 521.68 183.546 507.919 189.189C502.821 191.317 498.712 193.05 496.089 194.188Z" fill="white"/>
<path d="M154.836 166.221C154.44 170.478 153.994 175.725 153.598 180.279C145.381 273.982 141.273 320.859 139.937 351.004C138.551 383.377 138.452 430.303 145.332 488.664C145.877 489.852 146.866 491.485 148.648 492.822C150.975 494.554 153.103 494.505 157.311 495.693C160.627 496.633 162.36 497.574 163.944 498.168C168.498 499.95 178.695 501.979 191.664 501.484C210.276 500.742 224.581 495.049 235.075 490.743C244.926 486.733 252.797 482.427 258.242 479.16C255.173 451.588 252.895 422.482 251.608 391.941C248.985 326.997 251.609 267.349 257.004 214.186C254.727 213.295 251.411 212.058 247.5 210.474C240.768 207.751 224.631 201.168 196.218 187.308C184.982 181.863 170.923 174.784 154.836 166.221Z" fill="white"/>
<path d="M583.803 165.132C584.397 168.399 585.189 172.903 586.08 178.299C587.317 185.971 590.089 204.138 592.119 227.997C594.198 252.846 594.693 274.23 594.742 291.258C594.891 325.809 593.604 351.153 590.238 410.256C589.198 428.67 587.664 455.647 585.733 488.565C587.763 488.416 589.743 488.317 591.772 488.169C592.762 479.952 594.099 467.725 595.138 452.776C595.93 441.985 596.277 434.115 596.623 425.65C598.356 386.842 598.653 387.288 599.247 371.448C600.435 340.213 600.187 316.206 599.989 294.624C599.841 279.724 599.395 265.617 598.504 237.402C597.861 218.196 597.217 201.168 592.861 179.041C591.723 173.398 590.634 168.696 589.842 165.478C587.812 165.379 585.832 165.28 583.803 165.132Z" fill="#161616"/>
<path d="M147.263 167.112C146.916 168.844 146.372 171.517 145.827 174.784C144.243 184.239 143.847 191.367 143.699 193.693C142.61 210.523 140.432 218.74 137.264 256.113C136.67 262.944 136.224 268.933 135.333 280.962C133.502 305.514 132.611 317.79 131.967 331.65C131.274 347.143 131.175 358.083 131.027 379.962C130.878 398.871 130.779 412.533 131.274 430.402C131.67 444.658 132.462 464.013 134.393 487.08C138.402 488.268 142.362 489.456 146.372 490.644C146.322 488.416 146.174 484.407 145.877 479.407C144.689 457.182 142.758 448.173 142.313 429.66C142.164 423.967 142.263 420.205 142.313 414.81C142.857 376.101 142.214 358.429 142.56 333.283C143.154 292.248 145.926 260.172 148.302 232.848C150.53 207.009 153.054 184.882 155.232 167.557C152.51 167.409 149.886 167.26 147.263 167.112Z" fill="#161616"/>
<path d="M494.901 195.03C496.732 231.363 496.485 267.795 495.99 304.128C495.445 339.669 495.198 375.309 492.475 410.801C490.941 430.997 488.515 451.143 484.753 471.092C484.555 472.032 485.991 472.428 486.189 471.488C492.772 436.59 495.198 401.099 496.287 365.657C497.425 329.472 497.92 293.189 497.871 256.955C497.821 236.313 497.475 215.672 496.435 195.03C496.336 194.09 494.851 194.09 494.901 195.03Z" fill="#161616"/>
<path d="M496.733 195.03C524.205 181.417 553.361 171.616 583.457 165.825C584.397 165.627 584.001 164.191 583.061 164.389C552.866 170.23 523.562 180.13 495.99 193.743C495.149 194.188 495.891 195.475 496.733 195.03Z" fill="#161616"/>
<path d="M582.961 165.379C591.129 206.514 593.604 248.539 593.554 290.416C593.455 332.293 590.98 374.071 588.951 415.899C587.763 440.005 586.575 464.062 585.387 488.169C585.337 489.109 586.822 489.109 586.872 488.169C589 445.5 591.228 402.831 593.158 360.112C595.039 318.235 596.227 276.259 593.406 234.432C591.822 211.117 589 187.902 584.446 165.033C584.199 164.043 582.763 164.439 582.961 165.379Z" fill="#161616"/>
<path d="M485.001 471.388C487.229 473.962 491.189 474.457 494.307 475.398C498.564 476.685 502.871 477.972 507.128 479.259C515.741 481.833 524.304 484.555 533.016 486.733C550.044 490.891 567.518 491.733 584.793 488.763C585.734 488.614 585.338 487.179 584.397 487.327C567.369 490.248 550.143 489.406 533.412 485.298C525.443 483.367 517.622 480.892 509.801 478.516C505.841 477.328 501.881 476.14 497.921 474.952C495.941 474.358 493.961 473.764 491.981 473.17C489.902 472.527 487.575 472.081 486.09 470.349C485.397 469.656 484.358 470.695 485.001 471.388Z" fill="#161616"/>
<path d="M583.951 165.429C585.783 165.874 587.614 166.32 589.495 166.765C590.436 167.013 590.832 165.577 589.891 165.33C588.06 164.884 586.228 164.439 584.347 163.993C583.407 163.795 583.011 165.231 583.951 165.429Z" fill="#161616"/>
<path d="M589.396 166.27C594.346 186.268 595.683 207.157 597.119 227.7C598.604 248.688 599.395 269.725 599.742 290.812C600.336 332.64 598.9 374.467 596.524 416.245C595.188 439.906 593.505 463.567 591.772 487.228C591.723 488.169 593.208 488.169 593.257 487.228C596.376 445.153 599.197 403.078 600.534 360.904C601.87 318.829 601.772 276.655 599.099 234.58C597.663 211.711 596.376 188.248 590.881 165.924C590.584 164.934 589.149 165.33 589.396 166.27Z" fill="#161616"/>
<path d="M586.179 489.01C588.357 488.812 590.485 488.614 592.663 488.416C593.604 488.317 593.604 486.832 592.663 486.931C590.485 487.129 588.357 487.327 586.179 487.525C585.238 487.624 585.238 489.109 586.179 489.01Z" fill="#161616"/>
<path d="M255.767 213.79C252.45 248.094 250.47 282.496 249.827 316.948C249.183 351.549 249.876 386.199 251.955 420.75C253.094 440.154 254.727 459.508 256.707 478.813C256.806 479.754 258.291 479.754 258.192 478.813C254.628 444.559 252.401 410.157 251.51 375.705C250.619 341.104 251.064 306.454 252.896 271.903C253.935 252.499 255.371 233.145 257.202 213.79C257.351 212.85 255.866 212.85 255.767 213.79Z" fill="#161616"/>
<path d="M155.777 167.409C187.902 185.279 221.265 200.921 255.519 214.236C256.41 214.583 256.806 213.147 255.915 212.801C221.76 199.535 188.546 183.942 156.519 166.122C155.678 165.627 154.935 166.914 155.777 167.409Z" fill="#161616"/>
<path d="M154.242 167.062C148.747 208.939 144.936 251.064 142.857 293.287C140.778 335.511 140.481 377.784 141.867 420.007C142.659 443.718 143.995 467.428 145.876 491.089C145.975 492.03 147.46 492.03 147.361 491.089C143.995 448.965 142.411 406.692 142.51 364.468C142.609 322.195 144.49 279.972 148.054 237.847C150.084 214.186 152.658 190.624 155.727 167.062C155.826 166.122 154.341 166.122 154.242 167.062Z" fill="#161616"/>
<path d="M145.827 492.03C173.399 507.028 206.415 503.811 234.432 491.931C242.847 488.367 250.965 484.06 258.786 479.358C259.578 478.863 258.836 477.576 258.044 478.071C231.957 493.861 201.366 504.9 170.528 499.158C162.162 497.623 154.044 494.802 146.57 490.743C145.778 490.297 144.986 491.584 145.827 492.03Z" fill="#161616"/>
<path d="M134.887 487.921C138.352 489.555 141.916 490.941 145.53 492.178C146.421 492.475 146.817 491.04 145.926 490.743C142.411 489.555 138.996 488.218 135.63 486.634C134.739 486.238 133.996 487.525 134.887 487.921Z" fill="#161616"/>
<path d="M146.272 167.409C140.926 208.89 136.471 250.47 133.551 292.198C130.68 333.729 129.294 375.358 130.185 416.988C130.68 440.55 131.868 464.112 133.897 487.575C133.996 488.515 135.481 488.515 135.382 487.575C131.818 445.945 130.779 404.167 131.769 362.389C132.709 320.76 135.58 279.18 139.689 237.699C142.015 214.236 144.738 190.773 147.757 167.359C147.906 166.468 146.421 166.468 146.272 167.409Z" fill="#161616"/>
<path d="M147.114 168.448C149.985 167.854 152.856 167.656 155.826 167.805C156.766 167.854 156.766 166.369 155.826 166.32C152.757 166.171 149.737 166.419 146.718 167.013C145.777 167.211 146.173 168.646 147.114 168.448Z" fill="#161616"/>
<path d="M513.859 198.396C515.938 255.816 515.84 313.285 513.464 370.705C512.82 386.793 511.978 402.831 510.939 418.918C510.889 419.859 512.374 419.859 512.424 418.918C516.037 361.597 517.423 304.128 516.582 246.658C516.334 230.571 515.938 214.483 515.344 198.396C515.295 197.455 513.81 197.455 513.859 198.396Z" fill="#161616"/>
<path d="M537.867 177.804C539.847 217.751 540.837 257.796 540.788 297.792C540.788 337.788 539.798 377.833 537.818 417.78C536.729 440.401 535.293 462.974 533.561 485.546C533.511 486.486 534.996 486.486 535.046 485.546C538.115 445.649 540.194 405.702 541.332 365.706C542.421 325.71 542.57 285.664 541.728 245.668C541.233 223.047 540.441 200.426 539.352 177.804C539.303 176.864 537.818 176.864 537.867 177.804Z" fill="#161616"/>
<path d="M566.676 168.993C569.448 210.523 571.131 252.153 571.576 293.832C572.022 335.659 571.329 377.437 569.448 419.215C568.409 442.629 566.973 466.042 565.141 489.406C565.092 490.347 566.577 490.347 566.626 489.406C569.794 447.876 571.873 406.246 572.715 364.617C573.556 322.839 573.259 281.011 571.774 239.184C570.933 215.77 569.745 192.357 568.161 168.943C568.112 168.003 566.627 168.003 566.676 168.993Z" fill="#161616"/>
<path d="M508.761 437.481C507.622 450.45 505.543 463.32 502.524 475.992C502.326 476.932 503.712 477.328 503.959 476.388C507.028 463.567 509.107 450.598 510.246 437.481C510.345 436.54 508.86 436.54 508.761 437.481Z" fill="#161616"/>
<path d="M172.012 177.061C166.072 218.592 163.548 260.568 163.152 302.494C162.805 344.668 164.538 386.793 167.112 428.868C168.547 452.677 170.23 476.437 171.913 500.247C171.963 501.187 173.448 501.187 173.398 500.247C170.428 458.32 167.458 416.394 165.825 374.418C164.191 332.541 163.944 290.565 166.369 248.688C167.755 224.878 170.032 201.069 173.398 177.457C173.596 176.566 172.161 176.121 172.012 177.061Z" fill="#161616"/>
<path d="M200.475 190.921C196.713 231.066 194.188 271.359 193.347 311.701C192.555 351.994 193.495 392.287 196.812 432.481C198.643 454.806 201.217 477.032 204.583 499.158C204.732 500.099 206.167 499.702 206.019 498.762C199.98 458.865 196.515 418.572 195.228 378.229C193.941 338.431 194.683 298.534 196.861 258.786C198.099 236.164 199.831 213.543 201.96 190.971C202.059 189.981 200.574 189.981 200.475 190.921Z" fill="#161616"/>
<path d="M228.987 202.752C224.136 240.223 221.315 277.942 220.572 315.711C219.83 353.479 221.117 391.297 224.433 428.917C226.314 449.905 228.789 470.794 231.908 491.634C232.056 492.574 233.492 492.178 233.343 491.238C227.75 453.915 224.186 416.344 222.651 378.675C221.117 341.104 221.661 303.435 224.186 265.864C225.621 244.777 227.7 223.69 230.423 202.702C230.621 201.811 229.136 201.811 228.987 202.752Z" fill="#161616"/>
<path opacity="0.12" d="M555.588 172.359C561.083 194.783 565.538 221.067 567.023 250.52C570.735 325.463 553.113 386.694 537.768 425.997C526.928 443.372 516.137 460.746 505.296 478.121C515.84 482.675 531.482 487.971 550.985 489.555C564.449 490.644 576.131 489.654 585.239 488.169C585.338 485.991 586.971 452.876 587.07 450.698C592.466 339.768 592.812 332.195 593.01 324.572C593.901 293.535 593.753 248.985 588.456 193.397C586.625 183.942 584.793 174.488 582.962 165.083C573.903 167.459 564.746 169.884 555.588 172.359Z" fill="#3F3F3F"/>
<path opacity="0.13" d="M210.128 196.564C208.841 201.96 206.91 210.028 204.633 219.879C194.535 263.835 187.11 296.158 183.15 325.908C176.121 378.328 169.34 429.115 198.248 470.794C206.663 482.922 215.87 491.089 222.008 495.94C216.068 498.267 208.692 500.395 200.079 501.435C176.121 504.256 156.915 496.485 147.51 491.832C143.946 459.013 141.471 423.868 140.679 386.694C138.897 304.425 145.58 230.472 155.777 166.864C173.844 176.764 191.961 186.664 210.128 196.564Z" fill="#3F3F3F"/>
<path d="M158.202 143.303C157.559 143.798 158.054 145.728 158.945 149.045C159.291 150.332 159.638 151.322 159.836 151.965C159.44 154.638 159.093 157.311 158.697 159.984C157.905 160.083 155.876 160.529 153.995 162.162C152.262 163.697 151.569 165.479 151.322 166.271C152.906 166.419 154.836 166.766 156.915 167.409C159.935 168.35 162.311 169.637 164.043 170.726C164.043 171.32 164.142 172.458 164.934 173.3C165.627 173.993 166.469 174.092 166.964 174.191C168.746 174.488 170.874 174.884 173.597 175.478C174.785 176.171 176.765 177.309 179.19 178.646C187.407 183.101 190.377 183.843 198.594 188.199C203.891 191.021 203.445 191.12 207.158 192.902C212.85 195.674 217.751 197.307 221.067 198.248C222.453 196.713 224.681 193.743 225.918 189.437C226.908 186.021 226.859 183.051 226.661 181.121C227.502 181.566 228.839 182.061 230.373 181.863C234.333 181.418 236.858 176.913 237.65 173.696C238.343 170.874 237.699 169.092 237.155 165.776C235.917 158.351 234.828 151.718 237.897 147.51C240.471 143.996 245.768 142.362 250.025 137.66C250.421 137.214 251.163 136.373 250.916 135.977C250.47 135.234 247.005 136.521 245.322 137.264C244.233 137.759 236.066 141.521 233.591 150.035C233.195 151.371 233.145 155.232 233.096 162.905C233.046 168.498 233.145 171.666 230.918 173.498C229.779 174.438 228.096 174.983 226.562 174.636C224.285 174.141 223.196 171.914 222.206 170.429C219.632 166.518 215.969 164.885 211.464 162.657C207.95 160.925 204.93 160.281 198.842 158.945C193.1 157.707 191.367 157.856 188.892 156.024C186.12 153.945 184.586 151.025 183.794 149.391C183.002 147.857 181.764 145.431 181.22 141.966C180.923 139.937 180.972 138.501 180.477 138.402C179.586 138.204 179.141 142.313 176.121 143.748C174.29 144.639 173.102 143.798 169.884 143.897C167.805 143.946 165.429 144.392 162.756 145.58C161.865 144.936 159.093 142.659 158.202 143.303Z" fill="black"/>
<path d="M159.687 159.588C158.647 151.42 166.072 143.995 174.289 144.837C182.061 145.629 187.209 155.083 186.961 162.162C186.912 163.102 188.397 163.102 188.446 162.162C188.694 154.341 182.853 144.045 174.289 143.352C165.28 142.609 157.063 150.579 158.202 159.588C158.35 160.479 159.835 160.528 159.687 159.588Z" fill="black"/>
<path d="M159.538 164.736C162.558 170.626 169.042 174.784 175.824 173.893C182.011 173.052 187.258 168.052 188.199 161.865C188.347 160.924 186.912 160.528 186.763 161.469C185.922 167.112 181.269 171.666 175.626 172.408C169.438 173.25 163.597 169.389 160.825 163.993C160.38 163.152 159.093 163.894 159.538 164.736Z" fill="black"/>
<path d="M164.884 171.914C164.736 170.033 170.082 169.241 171.418 168.944C173.844 168.399 176.319 168.102 178.794 168.102C183.397 168.102 187.803 169.29 191.713 171.716C192.505 172.211 193.297 170.924 192.456 170.429C187.407 167.31 181.516 166.221 175.675 166.766C172.606 167.063 169.587 167.706 166.666 168.696C165.082 169.241 163.201 169.934 163.35 171.914C163.449 172.854 164.983 172.854 164.884 171.914Z" fill="black"/>
<path d="M186.17 154.787C189.288 158.549 194.337 159.44 198.842 160.43C204.831 161.816 211.019 163.053 216.266 166.37C227.106 173.201 229.136 188.1 220.572 197.654C219.929 198.347 220.968 199.436 221.612 198.693C229.235 190.229 229.433 177.26 221.562 168.845C217.404 164.39 211.464 162.063 205.673 160.529C199.782 158.994 191.318 158.747 187.16 153.698C186.615 153.005 185.576 154.044 186.17 154.787Z" fill="black"/>
<path d="M220.819 180.675C218.344 177.408 213.988 176.27 210.177 177.854C205.474 179.784 205.227 185.576 205.771 189.981C205.87 190.922 207.355 190.922 207.256 189.981C206.811 186.516 206.761 181.17 210.325 179.438C213.394 177.903 217.404 178.695 219.483 181.467C220.077 182.21 221.364 181.467 220.819 180.675Z" fill="black"/>
<path d="M207.058 189.288C204.336 187.209 201.514 185.427 198 186.368C197.604 186.467 197.406 186.912 197.505 187.259C198.396 190.724 203.841 192.159 206.712 193.397C211.117 195.327 215.622 196.961 220.176 198.396C221.067 198.693 221.463 197.258 220.572 196.961C216.909 195.822 213.345 194.585 209.781 193.1C207.85 192.308 205.969 191.466 204.088 190.575C202.405 189.783 199.386 188.843 198.891 186.863C198.742 187.16 198.544 187.457 198.396 187.754C201.465 186.912 203.989 188.744 206.266 190.526C207.058 191.169 207.801 189.882 207.058 189.288Z" fill="black"/>
<path d="M163.548 171.765C165.478 174.933 169.389 175.478 172.804 175.973C177.853 176.715 182.902 176.715 187.951 176.171C188.892 176.072 188.892 174.587 187.951 174.686C183.892 175.131 179.833 175.23 175.774 174.834C172.359 174.488 166.864 174.29 164.785 171.023C164.34 170.181 163.053 170.924 163.548 171.765Z" fill="black"/>
<path d="M152.014 166.716C152.658 163.251 155.677 161.469 159.043 161.32C158.796 161.122 158.548 160.974 158.35 160.776C158.598 161.964 158.944 163.102 159.439 164.191C159.786 165.082 161.221 164.686 160.875 163.795C160.429 162.657 160.083 161.568 159.786 160.38C159.736 160.083 159.39 159.835 159.093 159.835C155.133 160.033 151.371 162.211 150.628 166.32C150.43 167.26 151.866 167.656 152.014 166.716Z" fill="black"/>
<path d="M160.627 151.371C159.885 149.243 159.34 147.015 159.142 144.738C159.142 144.54 159.093 144.342 159.093 144.144C159.043 143.699 159.093 143.748 159.291 144.293C159.736 144.59 160.182 144.936 160.627 145.283C161.37 145.926 162.063 146.619 162.657 147.362C163.3 148.104 164.34 147.015 163.696 146.322C162.855 145.332 159.34 141.273 157.855 142.857C157.113 143.649 157.657 145.481 157.806 146.372C158.053 148.203 158.548 150.035 159.142 151.767C159.538 152.658 160.974 152.312 160.627 151.371Z" fill="black"/>
<path d="M177.359 144.441C177.804 143.649 178.25 142.857 178.745 142.065C178.943 141.719 179.141 141.422 179.289 141.075C179.586 140.58 179.586 140.134 180.18 140.283C180.873 140.431 180.626 142.065 180.626 142.659C180.626 143.6 180.675 144.54 180.675 145.48C180.675 146.421 182.16 146.421 182.16 145.48C182.16 143.946 182.21 142.412 182.111 140.877C182.061 139.887 181.715 138.798 180.626 138.452C179.636 138.155 178.943 138.798 178.448 139.54C177.606 140.877 176.864 142.313 176.072 143.649C175.577 144.54 176.864 145.282 177.359 144.441Z" fill="black"/>
<path d="M224.78 176.814C225.077 180.576 229.284 181.813 232.205 179.982C236.511 177.309 237.452 171.27 236.907 166.716C236.165 160.479 234.68 154.687 236.808 148.5C238.838 142.609 243.887 137.808 250.272 137.412C251.213 137.362 251.213 135.877 250.272 135.927C241.56 136.471 235.62 143.896 234.383 152.113C233.64 157.014 234.729 161.568 235.373 166.369C235.769 169.537 235.571 172.557 234.135 175.477C233.492 176.715 232.601 177.952 231.413 178.744C229.581 179.883 226.413 179.536 226.215 176.863C226.215 175.873 224.73 175.824 224.78 176.814Z" fill="black"/>
<path d="M225.571 179.487C227.106 183.596 232.452 181.764 234.778 179.388C238.59 175.527 237.748 169.092 237.451 164.192C237.402 163.251 235.917 163.251 235.966 164.192C236.164 167.31 236.461 170.676 235.917 173.795C235.669 175.28 235.125 176.666 234.135 177.854C233.046 179.19 228.294 182.556 227.007 179.091C226.66 178.2 225.225 178.596 225.571 179.487Z" fill="black"/>
<path d="M250.321 135.878C244.678 138.056 238.986 141.125 236.709 147.065C234.085 153.896 235.966 161.321 235.818 168.399C235.818 169.34 237.303 169.34 237.303 168.399C237.451 162.212 235.966 155.876 237.451 149.738C239.085 143.006 244.678 139.64 250.717 137.313C251.608 136.967 251.212 135.531 250.321 135.878Z" fill="black"/>
<path d="M249.183 136.719C243.985 139.095 239.233 143.253 236.808 148.549C235.521 151.321 235.719 154.39 235.719 157.41C235.719 161.271 235.867 165.181 236.164 169.042C236.214 169.983 237.699 169.983 237.649 169.042C237.451 165.924 237.303 162.855 237.253 159.736C237.204 156.469 236.758 152.608 237.996 149.539C240.124 144.342 244.926 140.332 249.925 138.006C250.816 137.61 250.074 136.323 249.183 136.719Z" fill="black"/>
<path d="M162.607 154.638C163.993 157.064 167.508 156.222 167.854 153.549C167.904 153.054 167.161 153.104 167.112 153.549C166.864 155.579 164.29 155.975 163.251 154.292C163.003 153.846 162.36 154.242 162.607 154.638Z" fill="white"/>
<path d="M173.101 152.708C174.636 155.331 178.546 154.292 178.596 151.272C178.596 150.777 177.853 150.777 177.853 151.272C177.804 153.599 174.933 154.341 173.745 152.361C173.497 151.916 172.854 152.262 173.101 152.708Z" fill="white"/>
<path d="M170.131 155.975C170.478 157.41 170.181 158.845 169.29 160.033C168.993 160.429 169.636 160.776 169.933 160.43C170.923 159.093 171.22 157.41 170.874 155.777C170.725 155.331 169.983 155.529 170.131 155.975Z" fill="white"/>
<path d="M170.428 155.925C170.28 157.806 171.319 159.588 173.052 160.38C173.497 160.578 173.844 159.934 173.448 159.736C171.963 159.043 171.022 157.558 171.171 155.925C171.171 155.43 170.428 155.43 170.428 155.925Z" fill="white"/>
<path d="M158.35 160.331C162.706 159.984 165.478 163.548 168.399 166.172C168.745 166.469 169.29 165.974 168.943 165.627C165.874 162.855 162.904 159.242 158.35 159.539C157.905 159.588 157.905 160.331 158.35 160.331Z" fill="white"/>
<path d="M166.468 169.043C172.062 165.479 178.695 164.291 185.179 165.726C185.625 165.825 185.823 165.132 185.377 165.033C178.695 163.598 171.864 164.786 166.122 168.449C165.676 168.647 166.072 169.29 166.468 169.043Z" fill="white"/>
<path d="M180.527 175.824C185.13 176.121 189.486 174.686 193 171.666C193.347 171.369 192.852 170.825 192.456 171.122C189.09 173.993 184.932 175.379 180.527 175.082C180.081 175.082 180.081 175.824 180.527 175.824Z" fill="white"/>
<path d="M179.19 140.679C178.101 142.511 177.853 144.639 178.497 146.669C178.645 147.114 179.338 146.916 179.19 146.471C178.596 144.639 178.794 142.709 179.784 141.075C180.081 140.63 179.437 140.234 179.19 140.679Z" fill="white"/>
<path d="M159.588 145.283C160.776 146.025 161.518 147.164 161.815 148.5C161.914 148.946 162.607 148.748 162.508 148.302C162.162 146.768 161.271 145.481 159.934 144.639C159.538 144.392 159.192 145.035 159.588 145.283Z" fill="white"/>
<path d="M185.773 153.202C186.714 154.341 187.803 155.331 189.04 156.073C189.436 156.321 189.832 155.677 189.436 155.43C188.248 154.687 187.159 153.747 186.318 152.658C185.971 152.311 185.476 152.856 185.773 153.202Z" fill="white"/>
<path d="M216.315 177.507C215.275 174.884 210.276 176.666 208.642 177.705C205.722 179.636 204.435 183.249 205.524 186.566C205.672 187.011 206.365 186.813 206.217 186.368C205.375 183.744 206.068 180.923 208.147 178.992C209.038 178.151 210.226 177.557 211.414 177.26C212.256 177.012 215.127 176.468 215.572 177.656C215.77 178.151 216.463 177.953 216.315 177.507Z" fill="white"/>
<path d="M206.118 186.615C202.257 184.982 198.148 184.833 194.139 186.071C193.693 186.219 193.891 186.912 194.337 186.764C198.247 185.526 202.158 185.724 205.92 187.308C206.365 187.506 206.563 186.764 206.118 186.615Z" fill="white"/>
<path d="M342.094 392.486C340.065 397.337 340.065 400.95 339.768 410.256C339.421 421.74 338.431 433.175 338.332 444.609C338.233 454.262 338.085 468.864 337.689 487.872C353.529 488.763 371.052 488.961 390.06 488.021C408.177 487.13 424.908 485.298 440.005 483.021C432.877 458.915 428.175 441.342 424.809 427.73C423.027 420.453 420.403 409.563 413.176 396.842C409.216 389.862 405.108 384.615 402.088 381.101C401.296 380.408 383.823 365.706 363.627 372.636C362.637 373.032 347.935 378.378 342.094 392.486Z" fill="#16A34A"/>
<path d="M371.25 421.344C374.566 427.235 377.883 433.125 381.15 439.016C381.595 439.857 382.882 439.115 382.437 438.273C379.12 432.383 375.804 426.492 372.537 420.602C372.091 419.76 370.804 420.503 371.25 421.344Z" fill="#C64F4F"/>
<path d="M370.854 421.047C378.477 430.551 382.882 441.392 385.258 453.272C387.486 464.508 388.921 475.893 389.763 487.328C389.812 488.268 391.297 488.268 391.248 487.328C390.357 475.596 388.872 463.865 386.595 452.331C384.219 440.402 379.566 429.512 371.943 420.008C371.349 419.216 370.26 420.305 370.854 421.047Z" fill="#C64F4F"/>
<path opacity="0.19" d="M382.783 371.498C384.516 374.963 386.991 380.061 389.763 386.199C397.831 404.118 406.197 423.027 410.652 446.292C412.483 455.697 414.216 469.31 413.473 486.288C417.631 486.09 422.037 485.744 426.64 485.249C431.244 484.754 435.649 484.16 439.807 483.467C438.52 479.111 436.441 472.181 434.115 463.617C427.63 439.659 426.739 432.185 421.195 416.394C417.087 404.663 413.275 396.693 407.781 389.07C402.831 382.19 398.178 377.883 392.287 374.864C388.624 372.983 385.209 372.042 382.783 371.498Z" fill="#3F3F3F"/>
<path opacity="0.11" d="M370.953 421.592C372.884 428.819 374.566 437.432 375.358 447.134C376.744 463.914 374.962 478.22 372.784 488.912C378.477 488.565 384.12 488.219 389.812 487.872C389.218 476.636 387.931 467.181 386.694 460.004C383.575 441.738 380.308 434.957 377.685 430.601C375.21 426.591 372.735 423.572 370.953 421.592Z" fill="#3F3F3F"/>
<path d="M307.543 308.138C305.91 309.227 304.92 311.306 302.989 315.414C301.405 318.78 300.663 321.404 299.475 325.314C296.208 336.402 296.554 334.521 295.416 338.729C293.931 344.322 291.258 354.123 289.773 367.043C288.337 379.566 288.634 389.219 288.684 391.545C289.228 406.247 291.802 417.186 293.535 424.215C296.604 436.838 300.712 447.332 308.88 468.27C310.662 472.775 312.147 476.487 313.186 479.061C312.444 479.16 311.256 479.309 309.82 479.507C302.346 480.398 301.306 480.2 298.287 480.843C294.426 481.685 290.961 482.526 289.624 485.447C289.03 486.783 288.783 488.664 289.525 489.308C290.466 490.1 292.297 488.318 295.465 487.278C298.138 486.437 300.514 486.486 302.148 486.734C300.861 489.258 300.118 491.535 299.673 493.169C298.584 496.931 297.742 500 299.128 502.178C299.821 503.267 301.158 504.257 302.247 503.96C302.841 503.811 303.385 503.267 304.87 499.356C306.306 495.446 306.405 494.208 307.593 492.674C308.632 491.387 309.82 490.694 310.612 490.298C310.216 491.535 309.771 493.367 309.573 495.594C309.474 496.931 309.325 498.168 309.573 499.752C309.771 501.188 310.216 504.257 312.493 505.94C312.889 506.237 314.523 507.474 315.513 506.831C316.354 506.336 316.107 504.95 316.453 500.495C316.75 496.733 317.047 495.693 317.295 495.099C317.938 493.367 318.928 492.129 319.671 491.387C319.423 494.951 319.473 497.921 319.572 500.099C319.77 503.613 320.116 505.197 321.255 506.187C321.898 506.732 322.987 507.276 323.878 506.88C324.769 506.484 325.066 505.247 325.314 503.712C326.403 497.921 325.759 496.238 326.997 493.317C327.492 492.179 328.036 490.793 329.373 489.803C332.194 487.724 336.204 488.961 336.748 489.11C339.124 489.852 340.015 491.139 341.203 490.595C342.193 490.149 342.738 488.714 342.787 487.526C342.837 484.605 339.619 482.378 336.847 480.546C335.461 479.606 333.382 478.368 330.61 477.378C328.185 472.577 325.116 465.597 322.591 456.737C320.908 450.797 320.116 446.243 319.374 441.936C316.75 426.839 317.691 421.047 314.77 406.049C314.077 402.435 313.384 399.564 312.988 397.931C313.186 395.456 313.533 391.595 314.028 386.892C315.661 371.547 316.75 361.944 320.067 350.658C322.69 341.798 325.363 334.521 325.363 334.521C328.729 325.463 329.818 324.225 329.422 321.305C328.036 312.098 313.632 304.079 307.543 308.138Z" fill="white"/>
<path d="M303.732 312.84C294.921 333.185 289.377 354.915 288.189 377.091C286.951 399.713 290.862 421.839 298.188 443.223C302.346 455.45 307.395 467.33 312.543 479.21C312.939 480.101 314.176 479.309 313.83 478.467C304.92 457.875 296.208 436.986 292.05 414.909C287.941 393.129 288.783 370.607 293.535 348.975C296.208 336.848 300.069 325.017 305.019 313.632C305.365 312.741 304.128 311.949 303.732 312.84Z" fill="#161616"/>
<path d="M322.195 341.105C315.958 359.964 312.691 379.715 312.345 399.564C312.345 400.505 313.83 400.505 313.83 399.564C314.176 379.814 317.443 360.261 323.631 341.501C323.928 340.61 322.492 340.214 322.195 341.105Z" fill="#161616"/>
<path d="M307.147 390.555C311.553 396.693 313.335 404.019 314.374 411.345C315.463 418.82 315.958 426.393 317.047 433.868C319.225 449.064 322.789 464.211 329.967 477.824C330.412 478.665 331.699 477.923 331.254 477.081C323.779 462.924 320.265 447.134 318.186 431.393C316.354 417.582 316.899 401.594 308.434 389.813C307.89 389.07 306.603 389.813 307.147 390.555Z" fill="#161616"/>
<path d="M312.345 478.517C307.742 478.764 303.138 479.21 298.634 480.051C295.416 480.695 292.001 481.734 289.773 484.308C288.486 485.843 286.853 489.506 289.674 490.545C290.912 490.991 292.001 490.149 293.04 489.555C295.614 488.07 298.287 486.536 301.356 487.377C302.297 487.625 302.693 486.189 301.752 485.942C299.228 485.249 296.951 485.843 294.674 486.981C293.981 487.328 293.337 487.674 292.694 488.07C292.298 488.268 291.951 488.516 291.555 488.763C291.11 487.971 290.615 487.179 290.169 486.387C290.268 485.15 292.743 483.714 293.634 483.219C296.06 481.932 298.881 481.487 301.554 481.091C305.168 480.546 308.781 480.2 312.395 480.002C313.335 479.952 313.335 478.467 312.345 478.517Z" fill="#161616"/>
<path d="M308.286 482.922C304.376 483.566 301.158 486.239 299.673 489.852C298.089 493.614 296.753 499.208 298.584 503.069C299.97 505.989 303.386 507.029 304.673 503.465C305.465 501.237 305.316 498.812 306.108 496.584C307.098 493.812 308.781 491.436 311.256 489.803C312.048 489.258 311.306 487.971 310.514 488.516C308.187 490.05 306.455 492.129 305.316 494.654C304.722 495.941 304.277 497.277 303.98 498.663C303.732 499.802 303.584 505.544 300.861 503.861C299.327 502.92 299.178 499.901 299.228 498.366C299.327 496.089 299.921 493.466 300.663 491.288C301.901 487.625 304.821 485.001 308.633 484.358C309.623 484.209 309.227 482.774 308.286 482.922Z" fill="#161616"/>
<path d="M312.939 486.585C309.87 488.565 308.781 492.872 308.484 496.337C308.187 500.049 309.226 504.059 311.998 506.682C313.632 508.217 316.156 509.009 316.602 506.138C317.344 501.336 315.414 494.555 320.661 491.684C321.502 491.238 320.76 489.951 319.918 490.397C318.037 491.436 316.849 493.119 316.107 495.149C315.067 498.119 315.661 501.138 315.216 504.207C315.018 505.593 314.622 507.078 313.087 505.643C312.543 505.148 312.048 504.504 311.652 503.861C310.711 502.376 310.167 500.693 310.018 498.96C309.672 495.495 310.563 489.951 313.731 487.872C314.473 487.328 313.731 486.041 312.939 486.585Z" fill="#161616"/>
<path d="M319.968 490.545C319.027 494.109 318.136 497.822 318.73 501.534C318.978 503.316 320.017 507.672 322.294 508.118C324.868 508.613 325.908 504.059 326.155 502.376C326.7 498.713 326.007 494.307 328.878 491.486C329.571 490.793 328.531 489.753 327.838 490.446C324.373 493.862 325.561 498.812 324.522 503.168C324.175 504.752 323.185 507.128 321.552 505.296C320.661 504.356 320.413 502.524 320.215 501.287C319.72 497.822 320.562 494.357 321.453 490.991C321.651 490.05 320.215 489.654 319.968 490.545Z" fill="#161616"/>
<path d="M330.66 478.665C333.58 479.853 336.6 481.14 338.877 483.417C339.916 484.457 341.203 486.041 341.5 487.526C342.243 491.634 339.174 489.011 338.035 488.516C334.917 487.13 328.729 488.12 326.947 491.288C326.502 492.129 327.789 492.872 328.234 492.03C329.175 490.298 331.749 489.852 333.531 489.605C334.62 489.456 335.857 489.357 336.897 489.654C338.085 490.001 338.827 491.04 339.966 491.387C341.599 491.882 342.837 490.743 343.084 489.159C343.53 486.585 341.302 483.714 339.57 482.031C337.144 479.705 334.026 478.418 330.957 477.18C330.165 476.883 329.818 478.319 330.66 478.665Z" fill="#161616"/>
<path opacity="0.13" d="M320.661 325.116C314.968 325.463 311.553 340.016 309.672 348.084C307.543 357.143 305.613 369.617 306.009 387.783C306.355 404.019 308.434 416.394 309.127 420.701C312.246 439.214 317.146 454.757 321.948 466.934C323.532 471.389 325.066 475.844 326.65 480.249C325.759 483.912 324.868 487.674 324.027 491.585C322.938 496.733 321.948 501.782 321.156 506.633C322.096 506.732 323.383 506.682 324.274 505.791C325.413 504.653 325.264 502.821 325.314 501.237C325.363 499.752 325.512 492.575 328.729 489.902C330.709 488.268 333.877 488.268 336.055 489.06C338.283 489.902 339.273 491.535 340.758 491.04C341.896 490.694 342.688 489.308 342.837 488.219C343.332 484.605 336.402 480.893 335.263 480.299C333.036 479.111 331.996 478.962 330.561 477.477C328.779 475.596 328.185 473.369 327.937 472.379C323.829 456.737 321.799 457.727 319.027 439.758C316.948 426.195 318.285 426.987 316.156 416.196C314.671 408.573 313.434 405.455 313.038 398.871C312.592 391.644 313.434 386.001 314.325 381.002C318.037 360.558 325.165 335.808 326.898 329.918C325.314 327.443 323.136 324.968 320.661 325.116Z" fill="#3F3F3F"/>
<path d="M421.691 121.622C420.156 121.572 418.968 124.344 418.671 125.087C418.226 126.176 417.533 128.304 418.028 131.324C418.028 131.324 418.325 133.403 419.315 145.976C419.562 148.797 419.612 152.906 418.869 158.054C416.889 163.499 415.008 167.756 413.721 170.528C409.365 179.834 406.445 183.546 400.356 195.327C398.079 199.733 397.881 200.426 395.208 205.871C388.526 219.384 383.625 227.849 378.626 236.907C374.22 244.827 368.033 256.46 360.756 271.409C360.41 272.696 358.677 279.576 362.687 285.615C366.944 292.001 375.854 294.871 384.467 292.099C385.803 290.218 387.684 287.298 389.417 283.487C391.1 279.774 391.892 276.903 392.436 275.072C392.981 273.24 395.159 267.053 399.564 254.579C400.95 250.718 402.633 246.114 406.049 237.105C411.246 223.295 413.82 216.414 415.553 212.108C419.463 202.307 422.433 195.525 428.274 182.358C431.343 175.428 435.105 167.063 439.461 157.559C441.986 156.123 445.451 153.896 449.163 150.678C454.509 146.075 457.182 142.164 462.33 134.739C465.647 129.888 468.171 125.631 467.478 121.374C467.379 120.78 467.132 119.048 466.191 118.8C465.003 118.454 463.518 120.83 461.885 122.909C460.202 125.037 457.677 127.809 453.915 130.68C455.202 127.116 456.489 124.344 457.38 122.513C459.41 118.355 461.093 115.682 462.132 111.078C463.271 106.178 462.231 105.287 461.934 105.039C460.598 104.049 458.321 105.93 456.984 104.841C455.796 103.802 456.836 101.525 455.895 100.98C454.955 100.436 452.876 102.069 451.391 103.802C448.817 106.772 448.223 109.643 447.282 112.415C446.391 115.137 444.758 118.85 441.689 122.958C440.946 123.057 439.956 123.107 439.511 122.513C439.016 121.82 439.709 120.681 440.352 118.85C440.501 118.404 440.402 118.652 441.441 114.098C441.837 112.365 442.58 109.148 443.174 106.574C444.015 102.861 444.411 101.327 443.619 99.693C443.471 99.3465 442.827 98.01 441.887 97.9605C440.798 97.911 439.956 99.6435 439.313 100.98C436.689 106.376 435.353 109.098 435.006 110.039C433.274 114.741 430.947 121.919 430.601 124.394C430.551 124.691 430.452 125.73 429.957 127.067C429.71 127.71 429.561 127.958 429.413 128.354C428.175 131.126 429.215 132.957 427.928 133.947C427.779 134.046 427.037 134.591 426.443 134.393C425.799 134.195 425.502 133.353 425.156 130.532C424.661 126.671 424.958 125.532 424.067 123.849C423.473 123.107 422.73 121.671 421.691 121.622Z" fill="white"/>
<path d="M419.314 144.54C419.661 140.927 419.116 137.412 418.918 133.799C418.819 132.066 418.819 130.284 419.067 128.552C419.215 127.562 419.413 126.572 419.71 125.631C420.205 124.196 420.255 123.008 421.839 122.958C423.324 122.909 423.225 123.8 423.472 125.037C423.72 126.126 423.769 127.265 423.819 128.354C423.918 129.888 423.967 131.472 424.314 132.957C424.66 134.492 425.601 135.779 427.333 135.234C428.224 134.937 427.878 133.502 426.937 133.799C425.205 134.294 425.353 128.453 425.254 127.463C425.106 125.879 424.957 124.245 424.363 122.76C423.522 120.681 421.591 119.642 419.958 121.572C417.829 124.047 417.384 128.502 417.384 131.571C417.384 135.927 418.225 140.184 417.829 144.54C417.78 145.481 419.265 145.481 419.314 144.54Z" fill="#161616"/>
<path d="M427.927 134.64C430.402 129.839 431.145 124.394 432.58 119.246C434.115 113.702 436.045 108.257 438.916 103.307C439.56 102.218 440.203 100.683 441.144 99.8416C442.975 98.1586 442.975 101.376 442.827 102.762C442.53 105.831 441.738 108.95 441.045 111.969C440.401 114.741 439.51 117.414 438.867 120.186C438.52 121.721 438.52 123.057 439.609 124.245C440.253 124.938 441.292 123.899 440.649 123.206C439.411 121.869 440.698 119.196 441.094 117.761C441.54 116.127 441.985 114.494 442.332 112.86C443.025 109.841 443.718 106.772 444.163 103.653C444.411 102.02 444.757 99.1486 443.322 97.9111C442.084 96.8716 440.847 97.8616 440.005 98.8516C436.392 103.356 434.164 109.296 432.382 114.741C430.353 121.028 429.709 128.057 426.64 133.947C426.195 134.739 427.482 135.482 427.927 134.64Z" fill="#161616"/>
<path d="M439.956 124.394C441.441 124.542 441.985 123.453 442.678 122.265C443.767 120.384 444.757 118.404 445.698 116.474C447.529 112.712 448.816 108.603 451.044 105.089C451.539 104.297 452.133 103.307 452.925 102.713C453.568 101.97 454.41 101.723 455.499 102.069C455.647 102.762 455.746 103.455 455.746 104.148C455.796 106.574 455.004 108.999 454.162 111.276C452.479 115.781 450.598 120.236 448.767 124.74C448.42 125.631 449.856 126.027 450.202 125.136C451.242 122.562 461.934 99.9904 454.954 99.8419C453.568 99.7924 451.984 101.525 451.192 102.465C449.806 104.099 448.816 105.98 447.925 107.91C446.886 110.237 445.945 112.563 444.856 114.84C444.213 116.226 443.47 117.662 442.777 118.998C442.332 119.889 441.243 122.958 440.005 122.859C439.015 122.81 439.015 124.295 439.956 124.394Z" fill="#161616"/>
<path d="M457.479 106.178C458.023 103.307 461.142 105.287 461.538 107.118C461.885 108.653 461.291 110.187 460.796 111.623C460.053 113.801 459.212 115.929 458.321 118.008C456.588 122.067 454.558 125.928 452.282 129.74C451.787 130.581 453.073 131.324 453.568 130.482C455.697 126.968 457.578 123.305 459.261 119.592C460.696 116.375 462.429 112.811 462.973 109.296C463.32 107.069 462.676 104.198 460.201 103.406C458.37 102.812 456.39 103.95 456.043 105.831C455.895 106.722 457.33 107.118 457.479 106.178Z" fill="#161616"/>
<path d="M454.608 131.076C456.489 128.948 458.32 126.819 460.201 124.691C461.191 123.552 462.082 122.315 463.171 121.325C463.518 121.028 463.864 120.78 464.161 120.483C465.003 120.78 465.844 121.077 466.735 121.374C466.983 121.82 466.389 123.107 466.24 123.503C464.706 128.205 462.478 132.66 459.855 136.818C454.558 145.184 447.282 152.213 438.768 157.311C437.926 157.806 438.718 159.093 439.51 158.598C450.103 152.262 458.815 142.956 464.31 131.918C465.646 129.245 466.933 126.423 467.775 123.552C468.27 121.869 468.567 119.592 466.636 118.701C464.755 117.81 462.775 119.543 461.587 120.78C458.766 123.701 456.192 126.968 453.519 130.037C452.925 130.73 453.964 131.769 454.608 131.076Z" fill="#161616"/>
<path d="M418.027 143.006C418.374 147.56 418.72 152.213 417.978 156.767C417.235 161.271 415.354 165.429 413.275 169.488C409.068 177.705 404.662 185.823 400.356 193.991C391.743 210.326 383.13 226.611 374.517 242.946C369.567 252.302 364.617 261.707 359.667 271.062C359.221 271.904 360.508 272.646 360.954 271.805C378.724 238.095 396.841 204.534 414.315 170.627C416.394 166.617 418.324 162.509 419.166 158.103C420.156 153.104 419.809 148.055 419.413 143.006C419.463 142.065 417.978 142.065 418.027 143.006Z" fill="#161616"/>
<path d="M438.669 156.964C422.829 190.426 409.018 224.68 396.841 259.627C393.277 269.775 389.713 279.922 385.407 289.773C385.011 290.664 386.298 291.406 386.694 290.515C394.069 273.735 399.465 256.162 405.801 239.035C412.285 221.413 419.314 203.94 426.789 186.714C431.046 176.962 435.402 167.31 439.956 157.707C440.352 156.865 439.065 156.123 438.669 156.964Z" fill="#161616"/>
<path opacity="0.1" d="M461.043 105.583C459.013 105.286 456.291 113.602 454.707 117.76C449.905 130.531 445.846 132.016 435.55 149.341C431.739 155.727 426.492 165.33 421.195 177.853C405.355 211.216 389.565 244.629 373.725 277.992C377.586 282.694 381.397 287.446 385.258 292.149C387.189 286.654 390.01 278.586 393.525 268.834C399.91 251.262 408.177 228.64 419.859 201.118C424.512 190.228 430.947 175.527 439.213 158.251C441.49 156.816 444.658 154.588 448.123 151.519C452.776 147.46 458.914 141.966 463.122 133.006C464.458 130.234 466.141 125.977 467.032 120.384C466.389 120.087 465.448 119.74 464.409 119.938C462.627 120.285 461.686 122.017 460.944 123.205C458.073 127.611 453.865 130.531 453.321 130.185C453.024 129.937 453.865 128.502 456.142 123.849C460.795 114.295 458.865 116.82 460.696 113.602C461.736 111.771 462.775 110.187 462.429 108.157C462.429 107.266 461.884 105.732 461.043 105.583Z" fill="#3F3F3F"/>
<path opacity="0.13" d="M458.023 139.343C455.548 140.927 452.034 143.253 448.024 146.322C443.421 149.787 438.471 153.549 434.313 158.301C428.67 164.736 426.195 171.122 424.71 174.834C411.097 209.583 394.911 247.302 390.307 257.796C387.783 263.538 383.823 272.201 378.576 282.596C380.952 285.714 383.377 288.833 385.753 291.951C392.584 271.112 400.455 249.282 409.464 226.661C419.166 202.356 429.214 179.636 439.312 158.499C442.035 156.668 445.104 154.341 448.222 151.322C452.628 147.114 455.796 142.857 458.023 139.343Z" fill="#3F3F3F"/>
<path d="M326.403 282.645C324.571 283.882 320.463 286.753 316.255 291.406C311.899 296.208 309.375 300.712 307.296 304.524C305.662 307.444 304.474 310.018 303.633 311.899C304.92 314.374 306.999 318.186 309.87 322.74C314.968 330.808 318.928 335.164 325.759 343.926C328.63 347.589 332.788 353.083 337.738 360.013C338.53 363.726 339.223 367.636 339.817 371.745C341.005 380.16 341.451 387.981 341.451 395.01C343.282 396.99 346.45 399.861 351.103 401.89C358.825 405.306 365.854 404.316 369.517 403.722C377.635 402.484 383.179 398.871 386.991 396.346C393.921 391.792 398.623 386.347 401.742 381.843C401.098 374.121 400.257 366.151 399.217 357.885C398.326 350.856 397.336 344.025 396.247 337.392C396.148 332.194 395.653 325.116 393.97 316.899C392.584 310.018 390.901 301.999 385.902 292.495C379.665 280.665 371.893 273.487 368.874 270.864C366.201 268.537 363.775 266.805 361.993 265.567C354.766 270.171 348.529 273.042 344.272 274.774C336.352 278.041 332.64 278.536 326.403 282.645Z" fill="white"/>
<path d="M304.425 312.098C305.959 306.257 310.216 300.812 313.879 296.06C317.74 291.11 322.096 286.605 327.294 282.992C328.086 282.447 327.343 281.16 326.551 281.705C321.205 285.417 316.701 290.021 312.741 295.119C308.929 300.02 304.623 305.564 303.039 311.652C302.791 312.642 304.227 312.989 304.425 312.098Z" fill="#161616"/>
<path d="M303.336 312.593C313.533 330.413 325.611 347.144 339.322 362.439C339.966 363.132 341.005 362.093 340.362 361.4C326.749 346.203 314.77 329.571 304.623 311.85C304.128 311.009 302.841 311.751 303.336 312.593Z" fill="#161616"/>
<path d="M345.213 275.468C350.757 271.557 356.845 268.637 363.33 266.756C364.27 266.508 363.874 265.073 362.934 265.32C356.301 267.251 350.113 270.221 344.47 274.181C343.678 274.725 344.421 276.012 345.213 275.468Z" fill="#161616"/>
<path d="M362.092 267.151C385.753 283.635 395.901 312.543 394.762 340.51C394.713 341.451 396.198 341.451 396.247 340.51C397.435 311.949 386.941 282.645 362.835 265.864C362.092 265.32 361.35 266.607 362.092 267.151Z" fill="#161616"/>
<path d="M336.105 359.519C338.679 364.815 338.976 371.399 339.521 377.141C340.115 382.982 340.312 388.872 340.312 394.763C340.312 395.703 341.797 395.703 341.797 394.763C341.847 388.229 341.55 381.695 340.807 375.21C340.213 369.716 339.817 363.776 337.392 358.727C336.946 357.885 335.709 358.628 336.105 359.519Z" fill="#161616"/>
<path d="M341.253 395.06C348.678 404.168 361.35 406.742 372.389 403.92C378.527 402.336 384.219 399.317 389.318 395.555C394.416 391.793 399.267 387.437 402.138 381.695C402.584 380.853 401.297 380.111 400.851 380.952C398.079 386.447 393.426 390.654 388.526 394.268C383.774 397.782 378.477 400.653 372.735 402.287C361.944 405.306 349.52 402.98 342.243 394.02C341.699 393.278 340.659 394.317 341.253 395.06Z" fill="#161616"/>
<path d="M395.307 338.283C397.732 352.786 400.108 367.29 400.95 381.942C400.999 382.882 402.484 382.882 402.435 381.942C401.544 367.141 399.168 352.489 396.742 337.887C396.594 336.946 395.158 337.342 395.307 338.283Z" fill="#161616"/>
<path opacity="0.13" d="M347.094 273.488C352.588 279.972 360.112 290.07 366.399 303.732C375.606 323.73 377.437 341.006 378.823 355.707C379.912 366.894 380.506 382.487 378.328 401.099C382.536 399.267 388.476 396.099 394.218 390.605C397.386 387.536 399.762 384.467 401.544 381.794C399.91 367.983 398.277 354.123 396.643 340.313C396.94 328.928 395.159 319.721 393.476 313.484C388.278 294.179 378.279 281.754 374.913 277.844C370.31 272.448 365.805 268.488 362.488 265.865C357.34 268.439 352.242 270.963 347.094 273.488Z" fill="#3F3F3F"/>
<path opacity="0.14" d="M383.971 290.812C383.08 291.06 385.159 299.128 387.139 311.058C387.139 311.058 390.159 329.175 390.802 346.698C391.248 358.281 390.654 375.21 385.456 396.247C387.832 395.059 390.753 393.327 393.772 390.901C397.435 387.931 400.059 384.813 401.841 382.338C401.197 362.389 399.514 352.044 397.93 346.203C397.633 345.064 396.841 342.391 396.198 338.629C395.01 331.6 395.604 328.581 394.96 322.74C394.465 318.087 393.525 315.018 391.792 309.325C389.169 300.762 384.961 290.515 383.971 290.812Z" fill="#3F3F3F"/>
<path d="M325.71 201.217C322.443 203.049 318.285 205.821 314.276 210.028C305.96 218.889 303.286 228.789 302.346 233.689C301.603 233.59 299.574 233.442 297.941 234.729C295.515 236.61 295.465 240.322 296.406 242.5C296.752 243.292 297.247 243.936 298.287 245.223C299.524 246.757 300.316 247.698 301.603 248.242C302.148 248.49 303.385 248.836 305.167 248.44C305.712 250.074 306.603 252.351 307.939 254.974C309.672 258.34 312.295 263.34 317.542 267.696C319.077 268.983 321.453 270.666 324.671 272.2C325.859 273.735 328.036 276.952 328.284 281.308C328.779 288.981 323.185 295.366 317.889 298.188C308.682 303.088 298.683 298.188 295.02 296.356C293.04 295.366 283.09 290.218 278.932 278.932C273.883 265.32 280.467 251.707 284.377 243.589C288.337 235.422 290.169 235.966 293.188 227.997C297.198 217.453 295.07 213.741 299.673 205.672C301.455 202.504 305.068 196.168 312.642 193.198C319.126 190.674 325.116 191.961 327.69 192.703C329.818 191.416 333.58 189.585 338.332 189.585C349.618 189.585 356.846 200.277 358.578 202.851C363.726 210.424 361.003 212.751 365.607 223.393C371.398 236.808 377.041 236.016 382.239 248.589C384.763 254.727 388.971 264.874 384.318 274.576C379.517 284.575 368.577 287.496 367.191 287.842C364.666 288.486 357.885 290.169 351.103 286.555C350.46 286.209 341.946 281.556 341.253 273.586C341.006 270.666 341.847 267.943 342.045 267.349C343.084 264.132 344.866 262.053 345.411 261.36C347.539 258.736 350.114 253.885 351.896 244.233C352.737 244.183 354.123 243.985 355.509 243.193C358.429 241.51 359.815 238.095 359.667 235.125C359.617 234.432 359.419 230.472 356.548 229.135C355.36 228.591 354.123 228.739 353.43 228.888C344.223 219.582 334.966 210.424 325.71 201.217Z" fill="#64748B"/>
<path d="M325.71 201.168C320.215 204.385 316.404 207.949 313.978 210.573C305.91 219.334 303.336 228.492 302.791 230.62C302.445 231.957 302.197 233.046 302.098 233.838C301.554 233.64 300.316 233.293 299.079 233.838C297.198 234.679 296.802 236.956 296.604 238.095C296.109 240.718 297.099 242.797 297.495 243.589C298.039 244.728 298.93 246.559 301.059 247.5C302.791 248.292 304.425 247.995 305.118 247.846C305.811 249.628 306.801 252.103 308.335 254.925C310.662 259.38 312.84 263.488 317.047 267.151C318.681 268.587 321.354 270.567 325.215 272.101C326.007 273.339 327.096 275.269 327.69 277.794C328.185 279.774 328.284 281.457 328.234 282.744C329.521 283.387 331.947 284.377 334.966 284.328C340.758 284.229 344.569 280.615 345.46 279.724C344.52 276.903 343.678 273.438 343.332 269.428C343.183 267.597 343.134 265.864 343.134 264.28C344.668 262.647 346.549 260.32 348.084 257.202C350.806 251.806 351.252 246.807 351.301 243.886C351.994 243.985 353.38 244.134 354.865 243.54C356.944 242.698 357.885 240.867 358.429 239.827C358.578 239.58 360.657 235.323 358.776 231.115C358.33 230.175 357.588 228.442 356.103 228.294C355.014 228.195 354.123 229.036 353.776 229.383C351.747 226.957 347.935 222.453 342.589 216.265C337.986 210.87 335.065 207.504 330.165 204.039C328.383 202.752 326.799 201.811 325.71 201.168Z" fill="white"/>
<path d="M318.879 253.687C318.384 254.826 320.71 256.855 321.799 257.697C324.076 259.38 326.502 259.627 327.393 259.677C328.432 259.776 331.848 260.023 334.966 257.796C335.709 257.251 337.788 255.816 338.58 253.143C339.124 251.212 338.976 248.539 337.936 248.094C337.144 247.797 336.402 248.787 334.719 249.975C331.749 252.004 328.68 252.499 326.056 252.895C321.601 253.588 319.374 252.697 318.879 253.687Z" fill="black"/>
<path d="M303.188 242.253C304.97 249.678 307.841 256.955 312.593 262.994C316.8 268.389 323.037 273.587 330.314 272.894C337.046 272.25 342.54 267.003 346.104 261.657C350.312 255.42 352.341 247.946 352.143 240.422C352.094 239.481 350.609 239.481 350.658 240.422C350.856 247.302 349.074 254.034 345.461 259.875C342.045 265.37 336.402 271.161 329.522 271.458C322.245 271.755 316.256 265.815 312.395 260.271C308.534 254.727 306.158 248.342 304.574 241.808C304.376 240.917 302.94 241.313 303.188 242.253Z" fill="#161616"/>
<path d="M324.225 272.201C326.304 275.369 327.343 278.834 327.343 282.645C327.343 283.586 328.828 283.586 328.828 282.645C328.828 278.636 327.69 274.824 325.512 271.458C325.017 270.617 323.73 271.359 324.225 272.201Z" fill="#161616"/>
<path d="M328.036 283.239C334.075 286.704 341.896 285.021 346.005 279.477C346.599 278.734 345.312 277.992 344.718 278.734C341.055 283.635 334.026 285.021 328.779 281.952C327.937 281.506 327.195 282.793 328.036 283.239Z" fill="#161616"/>
<path d="M342.292 265.568C342.342 270.072 343.035 274.527 344.47 278.834C344.767 279.725 346.203 279.329 345.906 278.438C344.569 274.23 343.827 269.973 343.777 265.568C343.777 264.578 342.292 264.578 342.292 265.568Z" fill="#161616"/>
<path d="M304.673 246.956C304.029 247.649 302.445 247.401 301.703 247.005C301.109 246.708 300.564 246.263 300.119 245.817C299.129 244.877 298.337 243.738 297.842 242.501C296.852 240.174 296.406 233.492 300.812 234.68C301.752 234.927 302.148 233.492 301.208 233.244C295.763 231.809 294.921 239.036 296.307 242.649C297.396 245.57 302.396 251.609 305.762 247.995C306.356 247.302 305.316 246.263 304.673 246.956Z" fill="#161616"/>
<path d="M354.42 229.63C355.014 227.65 357.588 231.462 357.885 232.155C358.479 233.739 358.677 235.471 358.429 237.154C358.033 240.52 355.361 243.738 351.648 242.797C350.708 242.55 350.311 243.985 351.252 244.233C357.241 245.767 360.459 239.53 359.914 234.432C359.667 232.204 358.776 229.333 356.648 228.145C355.262 227.403 353.479 227.601 352.984 229.185C352.687 230.175 354.123 230.521 354.42 229.63Z" fill="#161616"/>
<path d="M309.969 219.137C311.602 216.018 314.473 213.989 317.938 213.494C318.879 213.345 318.483 211.91 317.542 212.058C313.731 212.603 310.464 214.979 308.682 218.394C308.236 219.236 309.523 219.978 309.969 219.137Z" fill="#161616"/>
<path d="M332.838 211.513C336.996 210.523 341.154 212.602 343.035 216.364C343.48 217.206 344.718 216.463 344.322 215.622C342.144 211.216 337.194 208.939 332.442 210.078C331.501 210.325 331.897 211.761 332.838 211.513Z" fill="#161616"/>
<path d="M322.047 217.602C322.988 222.849 323.235 228.244 322.691 233.59C322.493 235.224 321.701 237.55 322.443 239.184C323.235 240.966 325.364 242.5 326.7 243.886C327.344 244.579 328.433 243.54 327.74 242.847C326.849 241.906 325.958 241.015 325.067 240.075C323.681 238.639 323.532 238.194 323.829 236.115C324.077 234.234 324.324 232.303 324.423 230.373C324.621 225.967 324.275 221.562 323.483 217.255C323.334 216.265 321.899 216.661 322.047 217.602Z" fill="#161616"/>
<path d="M315.81 230.324C315.067 229.136 314.721 227.849 314.82 226.463C314.82 226.166 315.018 224.879 315.265 224.829C315.414 224.829 315.661 226.562 315.711 226.76C315.81 227.403 315.859 228.096 315.859 228.74C315.859 228.938 315.81 230.571 315.81 229.581C315.76 228.146 315.859 226.71 315.909 225.275C315.414 225.324 314.919 225.423 314.473 225.473C314.721 227.007 314.869 228.542 314.869 230.126C315.364 230.126 315.859 230.126 316.354 230.126C316.354 229.928 316.354 229.73 316.354 229.532C316.354 228.591 314.869 228.591 314.869 229.532C314.869 229.73 314.869 229.928 314.869 230.126C314.869 231.066 316.354 231.066 316.354 230.126C316.354 228.443 316.206 226.76 315.909 225.077C315.76 224.235 314.473 224.483 314.473 225.275C314.424 226.859 314.226 228.591 314.424 230.175C314.523 230.918 314.869 231.611 315.711 231.759C318.186 232.254 317.443 227.403 317.245 226.215C317.097 225.275 316.948 223.839 316.057 223.295C315.315 222.849 314.523 223.295 314.077 223.988C312.84 226.067 313.533 229.136 314.671 231.017C315.018 231.858 316.305 231.116 315.81 230.324Z" fill="#161616"/>
<path d="M338.679 227.7C337.936 226.512 337.59 225.225 337.689 223.839C337.689 223.542 337.887 222.255 338.134 222.205C338.283 222.205 338.53 223.938 338.58 224.136C338.679 224.779 338.728 225.472 338.728 226.116C338.728 226.314 338.679 227.947 338.679 226.957C338.629 225.522 338.728 224.086 338.778 222.651C338.283 222.7 337.788 222.799 337.342 222.849C337.59 224.383 337.738 225.918 337.738 227.502C338.233 227.502 338.728 227.502 339.223 227.502C339.223 227.304 339.223 227.106 339.223 226.908C339.223 225.967 337.738 225.967 337.738 226.908C337.738 227.106 337.738 227.304 337.738 227.502C337.738 228.442 339.223 228.442 339.223 227.502C339.223 225.819 339.075 224.136 338.778 222.453C338.629 221.611 337.342 221.859 337.342 222.651C337.293 224.235 337.095 225.967 337.293 227.551C337.392 228.294 337.738 228.987 338.58 229.135C341.055 229.63 340.312 224.779 340.114 223.591C339.966 222.651 339.817 221.215 338.926 220.671C338.184 220.225 337.392 220.671 336.946 221.364C335.709 223.443 336.402 226.512 337.54 228.393C337.887 229.284 339.174 228.541 338.679 227.7Z" fill="#161616"/>
<path d="M308.484 234.878C309.424 234.878 309.424 233.393 308.484 233.393C307.543 233.393 307.543 234.878 308.484 234.878Z" fill="#161616"/>
<path d="M314.325 235.966C314.375 235.966 314.424 235.966 314.523 235.966C314.919 235.966 315.266 235.62 315.266 235.224C315.266 234.828 314.919 234.481 314.523 234.481C314.474 234.481 314.424 234.481 314.325 234.481C313.929 234.481 313.583 234.828 313.583 235.224C313.583 235.62 313.88 235.966 314.325 235.966Z" fill="#161616"/>
<path d="M310.86 240.521C311.8 240.521 311.8 239.036 310.86 239.036C309.919 239.036 309.87 240.521 310.86 240.521Z" fill="#161616"/>
<path d="M338.976 234.135C339.025 234.135 339.075 234.135 339.174 234.135C339.57 234.135 339.916 233.788 339.916 233.392C339.916 232.996 339.57 232.65 339.174 232.65C339.124 232.65 339.075 232.65 338.976 232.65C338.58 232.65 338.233 232.996 338.233 233.392C338.233 233.788 338.53 234.135 338.976 234.135Z" fill="#161616"/>
<path d="M344.421 230.472C345.361 230.472 345.361 228.987 344.421 228.987C343.48 228.987 343.48 230.472 344.421 230.472Z" fill="#161616"/>
<path d="M343.678 234.482C343.728 234.482 343.777 234.482 343.876 234.482C344.272 234.482 344.619 234.135 344.619 233.739C344.619 233.343 344.272 232.997 343.876 232.997C343.827 232.997 343.777 232.997 343.678 232.997C343.282 232.997 342.936 233.343 342.936 233.739C342.985 234.135 343.282 234.482 343.678 234.482Z" fill="#161616"/>
<path d="M320.117 254.826C319.325 253.687 318.038 252.054 318.582 250.569C319.226 248.886 321.255 249.133 322.592 249.331C324.225 249.579 325.562 249.876 327.146 249.381C328.433 248.985 329.571 248.143 330.759 247.5C333.581 245.916 336.897 245.767 337.788 249.48C340.313 259.627 322.394 262.498 319.622 253.588C319.325 252.697 317.889 253.044 318.186 253.984C321.602 264.924 342.788 260.865 339.075 248.737C338.432 246.708 336.897 244.975 334.719 244.728C331.155 244.381 328.829 247.945 325.413 248.193C322.889 248.391 319.82 246.46 317.79 248.836C315.959 250.965 317.444 253.687 318.78 255.568C319.374 256.36 320.661 255.618 320.117 254.826Z" fill="#161616"/>
<path d="M317.245 252.005C318.334 255.024 323.779 254.084 326.155 253.737C330.709 253.044 334.867 251.064 338.382 248.144C339.124 247.55 338.085 246.461 337.342 247.104C334.768 249.282 331.798 250.866 328.531 251.757C327.096 252.153 319.522 253.836 318.73 251.658C318.334 250.718 316.899 251.114 317.245 252.005Z" fill="#161616"/>
<path d="M326.056 273.735C331.848 275.22 339.57 271.557 342.837 266.755C343.381 265.963 342.094 265.221 341.55 266.013C338.679 270.22 331.501 273.586 326.452 272.299C325.512 272.052 325.116 273.487 326.056 273.735Z" fill="#161616"/>
<path d="M326.601 274.18C331.749 277.398 340.214 272.844 342.689 267.943C343.134 267.102 341.847 266.359 341.402 267.201C339.323 271.359 331.749 275.665 327.344 272.943C326.502 272.398 325.76 273.685 326.601 274.18Z" fill="#161616"/>
<path opacity="0.2" d="M347.144 221.71C347.49 223.492 347.936 226.314 348.233 229.729C348.926 238.837 350.114 254.083 340.907 264.231C338.927 266.409 334.719 270.27 326.948 272.448C329.423 272.349 332.442 272.052 335.709 271.21C337.343 270.814 338.828 270.319 340.164 269.775C340.362 274.18 340.511 278.586 340.709 282.991C342.392 281.902 344.025 280.863 345.708 279.774C343.431 274.725 343.431 270.814 343.728 268.339C344.174 264.874 345.461 262.053 346.748 259.231C347.886 256.756 349.074 254.776 350.014 253.39C350.113 254.43 350.361 255.519 351.054 256.558C354.074 261.063 363.528 261.508 369.468 257.647C374.963 254.083 377.635 246.856 376.249 239.431C377.19 240.223 378.18 241.164 379.121 242.302C379.863 243.193 381.794 245.767 384.467 254.826C385.308 257.647 385.704 259.083 385.952 260.518C386.249 262.498 386.793 266.26 385.754 270.517C383.972 277.843 378.675 282.051 377.091 283.239C375.953 284.08 372.488 286.605 367.29 287.793C364.815 288.337 357.39 290.119 350.411 286.06C347.787 284.526 346.351 283.387 345.559 282.001C344.718 280.467 344.619 279.031 344.52 277.942C344.075 271.161 343.876 267.745 344.322 265.419C345.658 258.687 348.678 257.994 350.361 250.321C350.955 247.549 351.104 245.223 351.153 243.738C351.797 243.837 352.786 243.936 353.974 243.639C356.449 242.995 357.687 240.966 358.133 240.223C359.915 237.402 360.706 232.353 357.934 230.026C357.538 229.68 356.152 228.64 353.479 228.838C351.45 226.462 349.322 224.086 347.144 221.71Z" fill="#3F3F3F"/>
<path opacity="0.13" d="M323.68 237.749C326.205 238.491 328.779 239.283 331.303 240.026C330.66 240.62 330.016 241.164 329.323 241.758C328.68 242.303 328.086 242.748 327.442 243.243C326.65 242.649 325.512 241.61 324.621 240.026C324.126 239.184 323.829 238.392 323.68 237.749Z" fill="#3F3F3F"/>
<path opacity="0.16" d="M283.981 243.936C278.586 262.994 282.595 278.388 290.664 281.754C297 284.378 308.434 280.665 310.563 274.181C310.86 273.339 311.157 271.854 310.018 267.3C309.028 263.291 306.999 257.252 302.445 250.371C301.653 249.876 300.613 249.084 299.623 247.896C297.891 245.768 297.396 243.491 297.247 242.402C298.683 243.887 300.762 245.768 302.098 245.174C303.385 244.58 304.177 242.798 303.732 241.016C304.177 243.293 304.87 246.411 306.157 250.025C307.84 254.826 309.523 259.479 313.434 263.885C315.216 265.914 318.73 269.231 324.67 271.607C325.66 272.844 327.492 275.517 328.086 279.428C328.185 280.022 328.531 282.744 327.64 286.16C327.442 286.952 326.254 291.258 322.344 294.971C317.79 299.327 312.345 300.119 310.563 300.366C297.148 302.148 286.753 290.417 284.922 288.387C283.09 286.308 280.071 282.843 278.338 277.497C275.566 268.983 277.695 261.311 279.229 255.717C280.665 250.47 282.595 246.51 283.981 243.936Z" fill="#3F3F3F"/>
</svg>
