<svg id="Layer_1" data-name="Layer 1" xmlns="http://www.w3.org/2000/svg" viewBox="0 0 651.97 651.97"><defs><style>.cls-1{fill:#16a34a;}</style></defs><path class="cls-1" d="M326,9.1C151,9.1,9.1,151,9.1,326S151,642.86,326,642.86,642.86,501,642.86,326,501,9.1,326,9.1ZM135,417.62l-16.72-61c4.27-.83,8.58-1.82,12.88-3A169.43,169.43,0,0,0,249.81,145.37c-.49-1.8-1-3.62-1.59-5.4l60.94-16.69c.52,1.78,1,3.57,1.55,5.4,34,123.91-38.94,251.84-162.85,285.8C143.6,415.65,139.31,416.71,135,417.62ZM451,500.79c-2.86-3.29-5.88-6.52-9-9.65a169.44,169.44,0,0,0-239.64,1.35c-1.31,1.33-2.62,2.7-3.88,4.08l-44.93-44.42c1.29-1.35,2.57-2.7,3.91-4,90.33-91.36,237.57-92.2,328.93-1.87,3.14,3.11,6.21,6.3,9.14,9.56Zm63.67-75.62c-1.81-.43-3.63-.87-5.46-1.35C384.87,391.27,310.53,264.17,343.08,139.89c1.12-4.28,2.34-8.53,3.7-12.7l61.22,16c-1.42,4.12-2.71,8.35-3.84,12.66a169.45,169.45,0,0,0,121,206.86c1.81.47,3.65.91,5.47,1.32Z"/></svg>