<svg width="31" height="31" viewBox="0 0 31 31" fill="none" xmlns="http://www.w3.org/2000/svg">
<rect width="31" height="31" rx="15.5" fill="#16A34A"/>
<path d="M10.63 19.93L9.75814 21.1506L9.77782 21.1647L9.79795 21.1781L10.63 19.93ZM10.266 19.37L8.79295 19.6533L8.79513 19.6642L10.266 19.37ZM10.392 18.558L9.03163 17.926L9.02452 17.9413L9.01776 17.9568L10.392 18.558ZM13.878 11.054L15.2384 11.686L15.2399 11.6826L13.878 11.054ZM14.494 10.256L13.6619 9.00792L13.651 9.01522L13.6402 9.02271L14.494 10.256ZM16.174 10.256L15.2975 11.4733L15.3088 11.4814L15.3202 11.4893L16.174 10.256ZM16.804 11.054L18.1644 10.422L18.1585 10.4095L18.1525 10.397L16.804 11.054ZM20.29 18.558L18.9296 19.19L18.9387 19.2095L18.9484 19.2288L20.29 18.558ZM20.444 19.37L18.971 19.0867L18.9657 19.1142L18.9614 19.1419L20.444 19.37ZM20.094 19.93L19.262 18.6819L19.2478 18.6914L19.2338 18.7012L20.094 19.93ZM18.526 19.874L17.5498 21.0129L17.5629 21.0241L17.5761 21.0349L18.526 19.874ZM17.994 19.062L19.3745 18.4753L19.3744 18.4751L17.994 19.062ZM17.238 17.284L18.1213 16.0716L13.7332 12.8746L15.8576 17.8709L17.238 17.284ZM18.218 17.998V19.498H22.8241L19.1013 16.7856L18.218 17.998ZM12.45 17.998L11.5749 16.7797L7.79063 19.498H12.45V17.998ZM13.444 17.284L14.8244 17.8709L16.9213 12.9394L12.5689 16.0657L13.444 17.284ZM12.688 19.062L14.0559 19.6775L14.0623 19.6633L14.0684 19.6489L12.688 19.062ZM12.17 19.874L11.1384 18.7851L11.1384 18.7851L12.17 19.874ZM15.32 12.818V11.318H14.3219L13.9364 12.2386L15.32 12.818ZM13.696 16.696L12.4003 17.4518L13.9169 20.0517L15.0796 17.2754L13.696 16.696ZM13.304 16.024V14.524H10.6924L12.0083 16.7798L13.304 16.024ZM17.378 16.024L18.6737 16.7798L19.9896 14.524H17.378V16.024ZM16.986 16.696L15.6042 17.2796L16.7709 20.0417L18.2817 17.4518L16.986 16.696ZM15.348 12.818L16.7298 12.2344L16.3427 11.318H15.348V12.818ZM11.358 18.626C11.3256 18.626 11.3257 18.6223 11.349 18.6286C11.3743 18.6354 11.4157 18.6511 11.4621 18.6819L9.79795 21.1781C10.2915 21.5071 10.8406 21.626 11.358 21.626V18.626ZM11.5019 18.7094C11.544 18.7395 11.6 18.7911 11.6497 18.8675C11.6995 18.9442 11.7255 19.0191 11.7369 19.0758L8.79513 19.6642C8.91754 20.2763 9.25626 20.7921 9.75814 21.1506L11.5019 18.7094ZM11.739 19.0867C11.7516 19.152 11.7473 19.1984 11.7448 19.215C11.7426 19.2291 11.7433 19.2118 11.7662 19.1592L9.01776 17.9568C8.80378 18.4459 8.67328 19.0308 8.79299 19.6533L11.739 19.0867ZM11.7524 19.19L15.2384 11.686L12.5176 10.422L9.03163 17.926L11.7524 19.19ZM15.2399 11.6826C15.3344 11.478 15.3908 11.4596 15.3478 11.4893L13.6402 9.02271C13.1119 9.38844 12.7576 9.90197 12.5161 10.4254L15.2399 11.6826ZM15.3261 11.5041C15.3284 11.5025 15.3285 11.5027 15.3267 11.5035C15.3248 11.5044 15.3227 11.5052 15.321 11.5057C15.3194 11.5062 15.3199 11.5059 15.3234 11.5054C15.327 11.5049 15.335 11.504 15.348 11.504V8.504C14.7495 8.504 14.1725 8.66757 13.6619 9.00792L15.3261 11.5041ZM15.348 11.504C15.3734 11.504 15.3727 11.5072 15.3548 11.5017C15.3463 11.4991 15.3361 11.4953 15.3252 11.4898C15.3143 11.4844 15.3049 11.4786 15.2975 11.4733L17.0505 9.0387C16.5354 8.66786 15.9457 8.504 15.348 8.504V11.504ZM15.3202 11.4893C15.287 11.4663 15.3509 11.4962 15.4555 11.711L18.1525 10.397C17.9025 9.88384 17.5463 9.38167 17.0278 9.02271L15.3202 11.4893ZM15.4436 11.686L18.9296 19.19L21.6504 17.926L18.1644 10.422L15.4436 11.686ZM18.9484 19.2288C18.9738 19.2796 18.9717 19.2902 18.9668 19.2645C18.9612 19.2352 18.9547 19.1714 18.971 19.0867L21.917 19.6533C22.0446 18.9897 21.8771 18.3781 21.6316 17.8872L18.9484 19.2288ZM18.9614 19.1419C18.9702 19.0852 18.9951 18.9953 19.0565 18.897C19.1188 18.7974 19.1954 18.7263 19.262 18.6819L20.926 21.1781C21.4889 20.8029 21.8283 20.2371 21.9266 19.5981L18.9614 19.1419ZM19.2338 18.7012C19.2877 18.6634 19.3386 18.6426 19.3746 18.6326C19.4081 18.6232 19.418 18.626 19.394 18.626V21.626C19.9104 21.626 20.4627 21.5029 20.9542 21.1588L19.2338 18.7012ZM19.394 18.626C19.3165 18.626 19.2961 18.6169 19.3152 18.6225C19.3386 18.6293 19.4021 18.6527 19.4759 18.7131L17.5761 21.0349C18.1402 21.4964 18.8132 21.626 19.394 21.626V18.626ZM19.5022 18.7351C19.5346 18.7629 19.5306 18.7686 19.5007 18.723C19.4713 18.6781 19.4273 18.5995 19.3745 18.4753L16.6135 19.6487C16.8162 20.1256 17.1062 20.6327 17.5498 21.0129L19.5022 18.7351ZM19.3744 18.4751L18.6184 16.6971L15.8576 17.8709L16.6136 19.6489L19.3744 18.4751ZM16.3547 18.4964L17.3347 19.2104L19.1013 16.7856L18.1213 16.0716L16.3547 18.4964ZM18.218 16.498H12.45V19.498H18.218V16.498ZM13.3251 19.2163L14.3191 18.5023L12.5689 16.0657L11.5749 16.7797L13.3251 19.2163ZM12.0636 16.6971L11.3076 18.4751L14.0684 19.6489L14.8244 17.8709L12.0636 16.6971ZM11.3201 18.4465C11.2582 18.584 11.2063 18.678 11.1679 18.7383C11.1281 18.8007 11.1154 18.8068 11.1384 18.7851L13.2016 20.9629C13.5852 20.5996 13.8546 20.1249 14.0559 19.6775L11.3201 18.4465ZM11.1384 18.7851C11.2413 18.6876 11.3404 18.6456 11.3894 18.6304C11.4322 18.6171 11.4298 18.626 11.358 18.626V21.626C11.9209 21.626 12.6355 21.4993 13.2016 20.9629L11.1384 18.7851ZM13.9364 12.2386L12.3124 16.1166L15.0796 17.2754L16.7036 13.3974L13.9364 12.2386ZM14.9917 15.9402L14.5997 15.2682L12.0083 16.7798L12.4003 17.4518L14.9917 15.9402ZM13.304 17.524H17.378V14.524H13.304V17.524ZM16.0823 15.2682L15.6903 15.9402L18.2817 17.4518L18.6737 16.7798L16.0823 15.2682ZM18.3678 16.1124L16.7298 12.2344L13.9662 13.4016L15.6042 17.2796L18.3678 16.1124ZM15.348 11.318H15.32V14.318H15.348V11.318Z" fill="white"/>
</svg>
