<svg width="792" height="594" viewBox="0 0 792 594" fill="none" xmlns="http://www.w3.org/2000/svg">
<path d="M246.114 484.407C291.456 484.407 336.798 484.407 382.14 484.407C427.333 484.407 472.527 484.407 517.671 484.407C543.213 484.407 568.804 484.407 594.346 484.407C595.287 484.407 595.287 482.922 594.346 482.922C549.004 482.922 503.662 482.922 458.32 482.922C413.127 482.922 367.933 482.922 322.789 482.922C297.247 482.922 271.656 482.922 246.114 482.922C245.173 482.922 245.173 484.407 246.114 484.407Z" fill="#16A34A"/>
<path d="M603.504 453.618C603.108 467.874 604.543 482.13 607.81 496.039C608.008 496.98 609.444 496.584 609.246 495.643C606.028 481.882 604.593 467.775 605.038 453.618C604.989 452.677 603.504 452.677 603.504 453.618Z" fill="#16A34A"/>
<path d="M662.459 454.757C663.845 467.924 663.003 481.239 659.984 494.109C659.786 495.05 661.171 495.446 661.419 494.505C664.488 481.487 665.379 468.072 663.944 454.757C663.845 453.816 662.36 453.816 662.459 454.757Z" fill="#16A34A"/>
<path d="M608.404 497.426C625.531 501.782 643.648 501.188 660.429 495.644C661.32 495.347 660.924 493.911 660.033 494.208C643.45 499.653 625.68 500.297 608.8 495.99C607.86 495.792 607.464 497.228 608.404 497.426Z" fill="#16A34A"/>
<path d="M604.197 454.311C623.452 458.42 643.401 458.321 662.607 454.064C663.547 453.866 663.151 452.43 662.211 452.628C643.252 456.836 623.551 456.885 604.593 452.876C603.652 452.678 603.256 454.113 604.197 454.311Z" fill="#16A34A"/>
<path d="M615.928 454.856C613.354 449.064 615.681 441.986 617.611 436.293C619.591 430.403 622.413 424.809 625.878 419.661C625.482 419.711 625.086 419.76 624.69 419.81C625.828 421.097 627.066 421.988 628.6 422.73C629.194 422.978 629.838 422.582 629.689 421.889C629.095 419.216 628.056 416.592 629.244 413.919C630.085 412.038 631.273 410.157 632.263 408.375C631.917 408.474 631.57 408.573 631.224 408.623C632.263 409.266 633.303 409.86 634.342 410.504C635.035 410.949 635.629 410.108 635.382 409.464C634.342 407.187 633.649 404.91 635.085 402.633C635.926 401.247 637.015 400.01 637.956 398.723C640.035 395.951 642.213 393.179 644.391 390.456C648.549 385.259 652.855 380.21 657.31 375.26C656.914 375.21 656.518 375.161 656.122 375.111C662.458 383.427 666.468 393.377 667.557 403.772C668.101 408.771 667.953 413.919 667.062 418.869C666.616 421.394 665.973 423.869 665.181 426.294C665.032 426.789 664.834 427.284 664.686 427.73C664.141 429.116 663.25 429.71 661.815 430.007C660.825 430.205 660.28 430.056 659.439 430.7C659.043 430.997 658.944 431.492 659.29 431.888C660.379 433.026 660.825 433.224 660.429 434.759C660.181 435.749 659.587 436.788 659.142 437.778C658.251 439.758 657.261 441.689 656.221 443.57C654.093 447.431 651.667 451.094 648.945 454.559C648.351 455.301 649.39 456.341 649.984 455.598C655.231 448.866 659.389 441.491 662.508 433.571C662.607 433.323 662.508 433.026 662.31 432.828C661.666 432.185 661.023 431.492 660.33 430.848C660.28 431.244 660.231 431.64 660.181 432.036C661.32 431.244 662.607 431.789 663.795 431.294C664.735 430.947 665.23 430.254 665.626 429.363C666.715 427.037 667.408 424.364 668.002 421.889C669.24 416.444 669.636 410.85 669.24 405.306C668.398 394.119 664.29 383.279 657.459 374.369C657.211 374.022 656.667 373.824 656.271 374.22C650.776 380.309 645.48 386.595 640.431 393.03C638.154 395.901 635.728 398.772 633.748 401.891C631.966 404.712 632.808 407.385 634.045 410.256C634.392 409.91 634.738 409.563 635.085 409.217C634.045 408.573 633.006 407.979 631.966 407.336C631.62 407.138 631.125 407.237 630.927 407.583C629.689 409.86 627.759 412.385 627.066 414.909C626.472 417.137 627.709 420.057 628.204 422.235C628.551 421.938 628.947 421.691 629.293 421.394C627.858 420.75 626.719 419.909 625.68 418.721C625.333 418.325 624.739 418.473 624.492 418.869C620.631 424.611 617.611 430.898 615.532 437.531C613.75 443.273 612.018 449.807 614.542 455.549C615.037 456.44 616.324 455.697 615.928 454.856Z" fill="#16A34A"/>
<path d="M656.221 386.496C654.241 408.92 638.896 426.888 632.511 447.975C632.214 448.916 633.649 449.262 633.946 448.371C640.332 427.136 655.726 409.118 657.706 386.496C657.805 385.506 656.271 385.556 656.221 386.496Z" fill="#16A34A"/>
<path d="M637.51 398.425C639.094 406.593 640.926 414.661 643.005 422.68C643.252 423.621 644.688 423.225 644.44 422.284C642.361 414.265 640.53 406.147 638.946 398.029C638.797 397.089 637.362 397.485 637.51 398.425Z" fill="#16A34A"/>
<path d="M654.241 403.672C658.548 400.554 662.26 396.841 665.478 392.535C666.072 391.792 664.785 391.05 664.191 391.792C661.171 395.851 657.607 399.415 653.499 402.385C652.756 402.979 653.499 404.266 654.241 403.672Z" fill="#16A34A"/>
<path d="M649.638 382.487C650.974 386.744 651.766 391.941 655.033 395.159C655.726 395.852 656.766 394.763 656.073 394.119C653.053 391.1 652.261 386.001 651.024 382.091C650.776 381.2 649.341 381.596 649.638 382.487Z" fill="#16A34A"/>
<path d="M612.958 454.46C609.939 452.084 608.107 448.767 606.573 445.302C604.84 441.243 603.355 437.085 602.019 432.878C599.494 424.809 597.663 416.493 596.574 408.128C594.346 390.605 596.128 372.884 594 355.311C593.554 355.46 593.059 355.559 592.614 355.707C598.158 368.181 611.127 375.656 621.918 383.081C621.819 382.734 621.72 382.388 621.67 382.041C620.185 384.17 618.7 386.298 617.215 388.427C616.869 388.922 617.314 389.565 617.859 389.565C619.789 389.565 621.472 389.318 623.304 388.674C623.007 388.575 622.759 388.427 622.462 388.328C624.294 391.149 626.125 393.971 627.957 396.792C628.006 396.495 628.056 396.198 628.056 395.901C627.165 396.743 626.422 397.683 625.68 398.723C625.432 399.069 625.68 399.762 626.125 399.812C630.184 400.406 631.62 404.267 632.659 407.732C632.956 408.623 634.392 408.276 634.095 407.336C632.857 403.425 631.075 399.02 626.521 398.376C626.67 398.723 626.818 399.119 626.967 399.465C627.61 398.475 628.254 397.782 629.095 396.99C629.343 396.792 629.392 396.347 629.194 396.099C627.363 393.278 625.531 390.456 623.7 387.635C623.551 387.387 623.205 387.189 622.858 387.288C621.175 387.833 619.542 388.13 617.809 388.08C618.007 388.476 618.255 388.823 618.453 389.219C619.938 387.09 621.423 384.962 622.908 382.833C623.155 382.487 622.957 382.041 622.66 381.794C612.067 374.517 599.346 367.241 593.901 354.965C593.604 354.321 592.416 354.618 592.515 355.361C594.693 373.577 592.762 391.991 595.336 410.157C596.574 418.919 598.603 427.532 601.425 435.897C603.702 442.679 606.078 450.945 611.869 455.549C612.661 456.093 613.701 455.054 612.958 454.46Z" fill="#16A34A"/>
<path d="M592.911 356.796C596.921 367.884 600.286 379.566 605.682 390.11C608.355 395.307 611.275 400.406 613.8 405.702C616.522 411.444 618.948 417.285 621.423 423.077C621.77 423.968 623.056 423.176 622.71 422.334C620.383 416.79 618.008 411.246 615.483 405.801C613.008 400.455 610.137 395.357 607.365 390.159C601.821 379.566 598.405 367.686 594.297 356.45C594 355.509 592.565 355.905 592.911 356.796Z" fill="#16A34A"/>
<path d="M594.792 394.416C600.138 395.06 605.979 395.357 610.038 399.366C610.731 400.059 611.77 398.97 611.077 398.327C606.721 394.07 600.534 393.674 594.792 392.981C593.851 392.832 593.851 394.317 594.792 394.416Z" fill="#16A34A"/>
<path d="M609.098 374.369C608.207 377.586 607.613 380.903 607.365 384.269C607.167 387.14 606.821 390.506 607.811 393.278C608.108 394.169 609.543 393.773 609.246 392.882C608.306 390.258 608.652 386.991 608.85 384.219C609.098 381.002 609.692 377.834 610.533 374.715C610.781 373.824 609.345 373.428 609.098 374.369Z" fill="#16A34A"/>
<path d="M598.158 421.394C602.019 421.493 605.732 421.542 609.494 422.582C613.206 423.621 616.869 424.71 620.581 425.799C621.522 426.047 621.918 424.611 620.977 424.364C617.017 423.225 613.107 421.988 609.097 420.948C605.484 420.008 601.871 420.057 598.158 419.958C597.218 419.859 597.218 421.344 598.158 421.394Z" fill="#16A34A"/>
<path d="M652.311 453.073C655.627 452.628 658.894 452.628 662.211 453.073C662.062 452.727 661.914 452.331 661.765 451.984C661.468 452.43 658.498 452.479 657.904 452.529C656.568 452.727 655.182 452.925 653.845 453.222C653.647 453.271 652.311 453.42 652.261 453.568C652.36 453.321 654.34 453.37 654.637 453.37C656.073 453.37 657.508 453.519 658.944 453.618C658.944 453.123 658.944 452.628 658.944 452.133C657.706 452.083 656.617 452.232 655.38 452.578C654.588 452.776 654.736 454.014 655.578 454.014C657.508 454.014 659.241 453.618 661.122 453.123C662.062 452.875 661.666 451.44 660.726 451.687C659.043 452.133 657.36 452.529 655.578 452.529C655.627 453.024 655.726 453.519 655.776 453.964C656.815 453.667 657.855 453.568 658.944 453.568C659.884 453.568 659.884 452.133 658.944 452.083C656.766 451.984 653.598 451.192 651.618 452.43C650.826 452.925 649.687 454.212 650.727 455.004C651.172 455.35 651.667 455.152 652.212 455.103C653.697 454.806 655.132 454.459 656.617 454.212C658.35 453.915 661.815 454.36 663.003 452.727C663.25 452.38 663.003 451.687 662.557 451.638C659.092 451.143 655.726 451.143 652.261 451.588C651.37 451.687 651.37 453.172 652.311 453.073Z" fill="#16A34A"/>
<path d="M604.841 454.014C605.534 453.816 606.227 453.667 606.92 453.618C607.266 453.618 607.563 453.568 607.91 453.618C608.058 453.618 608.751 453.568 608.801 453.618C608.751 453.37 608.652 453.123 608.603 452.875C608.603 452.925 608.553 452.974 608.553 452.974C608.85 452.826 609.147 452.628 609.444 452.479C609.395 452.479 609.345 452.479 609.345 452.479C609.494 452.628 609.692 452.826 609.84 452.974C609.84 452.925 609.84 452.875 609.791 452.875C609.543 451.935 608.157 452.331 608.355 453.271C608.355 453.321 608.355 453.37 608.405 453.37C608.454 453.618 608.702 453.816 608.9 453.865C608.949 453.865 608.999 453.865 608.999 453.865C609.395 453.964 609.741 453.766 609.89 453.37C609.89 453.321 609.939 453.271 609.939 453.271C610.038 453.024 609.939 452.727 609.741 452.529C609.197 451.984 608.009 452.083 607.316 452.083C606.326 452.083 605.286 452.281 604.346 452.529C603.554 452.826 603.95 454.261 604.841 454.014Z" fill="#16A34A"/>
<path d="M605.979 463.964C624.046 467.082 642.807 468.567 660.627 463.221C661.518 462.924 661.171 461.538 660.231 461.786C642.708 467.033 624.195 465.597 606.375 462.528C605.434 462.38 605.038 463.815 605.979 463.964Z" fill="#16A34A"/>
<path d="M668.2 484.308C699.93 484.308 731.709 484.308 763.438 484.308C764.379 484.308 764.379 482.823 763.438 482.823C731.709 482.823 699.93 482.823 668.2 482.823C667.21 482.823 667.21 484.308 668.2 484.308Z" fill="#16A34A"/>
<path d="M644.193 516.137C674.091 516.137 704.038 516.137 733.936 516.137C734.877 516.137 734.877 514.652 733.936 514.652C704.038 514.652 674.091 514.652 644.193 514.652C643.252 514.652 643.252 516.137 644.193 516.137Z" fill="#16A34A"/>
<path d="M657.805 515.988C654.241 518.958 650.677 521.878 647.163 524.848C646.42 525.442 647.46 526.482 648.202 525.888C651.766 522.918 655.33 519.997 658.845 517.027C659.587 516.433 658.498 515.344 657.805 515.988Z" fill="#16A34A"/>
<path d="M647.608 526.433C648.549 526.433 648.549 524.948 647.608 524.948C646.668 524.948 646.668 526.433 647.608 526.433Z" fill="#16A34A"/>
<path d="M662.706 524.948C632.56 524.948 602.415 524.948 572.269 524.948C571.329 524.948 571.329 526.433 572.269 526.433C602.415 526.433 632.56 526.433 662.706 526.433C663.647 526.433 663.647 524.948 662.706 524.948Z" fill="#16A34A"/>
<path d="M572.121 540.293C577.467 535.838 582.961 531.581 588.604 527.472C589.347 526.928 588.654 525.641 587.862 526.185C582.12 530.343 576.526 534.699 571.081 539.204C570.339 539.847 571.379 540.887 572.121 540.293Z" fill="#16A34A"/>
<path d="M121.473 513.266C156.42 513.266 191.367 513.266 226.314 513.266C236.214 513.266 246.114 513.266 256.014 513.266C256.954 513.266 256.954 511.781 256.014 511.781C221.067 511.781 186.12 511.781 151.173 511.781C141.273 511.781 131.373 511.781 121.473 511.781C120.532 511.781 120.532 513.266 121.473 513.266Z" fill="#16A34A"/>
<path d="M139.738 526.185C144.441 522.176 149.193 518.166 153.895 514.157C154.638 513.513 153.549 512.474 152.856 513.117C148.153 517.127 143.401 521.136 138.699 525.146C137.956 525.74 139.045 526.829 139.738 526.185Z" fill="#16A34A"/>
<path d="M122.711 527.62C155.182 527.62 187.655 527.62 220.127 527.62C221.067 527.62 221.067 526.135 220.127 526.135C187.655 526.135 155.182 526.135 122.711 526.135C121.77 526.135 121.77 527.62 122.711 527.62Z" fill="#16A34A"/>
<path d="M208.791 527.324C205.078 531.482 201.267 535.54 197.406 539.599C196.762 540.292 197.802 541.332 198.445 540.639C202.306 536.58 206.068 532.521 209.83 528.363C210.523 527.67 209.434 526.631 208.791 527.324Z" fill="#16A34A"/>
<path d="M183.447 541.975C212.008 541.975 240.52 541.975 269.082 541.975C270.022 541.975 270.022 540.49 269.082 540.49C240.52 540.49 212.008 540.49 183.447 540.49C182.506 540.49 182.506 541.975 183.447 541.975Z" fill="#16A34A"/>
<path d="M163.201 488.367C175.279 488.367 187.357 488.367 199.485 488.367C200.425 488.367 200.425 486.882 199.485 486.882C187.407 486.882 175.329 486.882 163.201 486.882C162.261 486.882 162.261 488.367 163.201 488.367Z" fill="#16A34A"/>
<path d="M208.642 493.218C212.355 493.218 216.117 493.218 219.829 493.218C220.77 493.218 220.77 491.733 219.829 491.733C216.117 491.733 212.355 491.733 208.642 491.733C207.652 491.733 207.652 493.218 208.642 493.218Z" fill="#16A34A"/>
<path d="M181.764 228.542C181.764 236.61 181.764 244.728 181.764 252.797C181.764 253.737 183.249 253.737 183.249 252.797C183.249 244.728 183.249 236.61 183.249 228.542C183.249 227.601 181.764 227.601 181.764 228.542Z" fill="#16A34A"/>
<path d="M156.865 253.984C176.764 253.984 196.663 253.984 216.562 253.984C217.503 253.984 217.503 252.5 216.562 252.5C196.663 252.5 176.764 252.5 156.865 252.5C155.925 252.5 155.925 253.984 156.865 253.984Z" fill="#16A34A"/>
<path d="M198.544 254.678C198.544 260.915 198.544 267.102 198.544 273.339C198.544 274.28 200.029 274.28 200.029 273.339C200.029 267.102 200.029 260.915 200.029 254.678C200.029 253.688 198.544 253.688 198.544 254.678Z" fill="#16A34A"/>
<path d="M182.061 275.913C197.901 275.913 213.79 275.913 229.63 275.913C230.571 275.913 230.571 274.428 229.63 274.428C213.79 274.428 197.901 274.428 182.061 274.428C181.071 274.428 181.071 275.913 182.061 275.913Z" fill="#16A34A"/>
<path d="M581.526 211.167C581.526 213.147 581.526 215.078 581.526 217.058C581.526 217.998 583.011 217.998 583.011 217.058C583.011 215.078 583.011 213.147 583.011 211.167C583.011 210.227 581.526 210.227 581.526 211.167Z" fill="#16A34A"/>
<path d="M582.714 212.355C616.77 212.355 650.826 212.355 684.882 212.355C685.822 212.355 685.822 210.87 684.882 210.87C650.826 210.87 616.77 210.87 582.714 210.87C581.773 210.87 581.773 212.355 582.714 212.355Z" fill="#16A34A"/>
<path d="M583.605 217.8C617.364 217.8 651.123 217.8 684.832 217.8C685.773 217.8 685.773 216.315 684.832 216.315C651.073 216.315 617.314 216.315 583.605 216.315C582.664 216.315 582.664 217.8 583.605 217.8Z" fill="#16A34A"/>
<path d="M684.634 211.167C684.436 213.197 684.535 215.226 684.882 217.256C685.03 218.196 686.466 217.8 686.317 216.86C685.971 214.979 685.921 213.048 686.119 211.167C686.218 210.227 684.733 210.227 684.634 211.167Z" fill="#16A34A"/>
<path d="M589.693 211.216C589.693 197.406 589.693 183.595 589.693 169.785C589.693 168.844 588.208 168.844 588.208 169.785C588.208 183.595 588.208 197.406 588.208 211.216C588.208 212.206 589.693 212.206 589.693 211.216Z" fill="#16A34A"/>
<path d="M589.693 170.032C593.901 168.349 598.356 168.597 602.266 170.923C603.108 171.418 603.85 170.131 603.009 169.636C598.801 167.161 593.802 166.765 589.297 168.597C588.406 168.943 588.802 170.379 589.693 170.032Z" fill="#16A34A"/>
<path d="M602.019 170.577C602.019 183.843 602.019 197.158 602.019 210.424C602.019 211.365 603.504 211.365 603.504 210.424C603.504 197.158 603.504 183.843 603.504 170.577C603.504 169.636 602.019 169.636 602.019 170.577Z" fill="#16A34A"/>
<path d="M603.702 181.665C606.721 180.427 609.889 180.625 612.711 182.358C613.552 182.853 614.295 181.566 613.453 181.071C610.335 179.19 606.672 178.843 603.306 180.229C602.415 180.576 602.811 182.011 603.702 181.665Z" fill="#16A34A"/>
<path d="M612.414 182.309C612.414 191.615 612.414 200.871 612.414 210.177C612.414 211.118 613.899 211.118 613.899 210.177C613.899 200.871 613.899 191.615 613.899 182.309C613.899 181.368 612.414 181.368 612.414 182.309Z" fill="#16A34A"/>
<path d="M589.891 181.418C594.099 180.477 598.257 180.774 602.316 182.21C603.207 182.507 603.603 181.071 602.712 180.774C598.405 179.24 593.95 179.042 589.495 179.982C588.604 180.18 589 181.616 589.891 181.418Z" fill="#16A34A"/>
<path d="M602.662 198.594C605.83 197.752 608.998 197.653 612.216 198.346C613.156 198.544 613.552 197.109 612.612 196.911C609.147 196.168 605.731 196.218 602.266 197.158C601.375 197.406 601.722 198.841 602.662 198.594Z" fill="#16A34A"/>
<path d="M631.125 210.722C631.125 207.95 631.125 205.178 631.125 202.406C631.125 201.465 629.64 201.465 629.64 202.406C629.64 205.178 629.64 207.95 629.64 210.722C629.64 211.662 631.125 211.662 631.125 210.722Z" fill="#16A34A"/>
<path d="M630.382 202.851C646.47 202.851 662.508 202.851 678.595 202.851C679.536 202.851 679.536 201.366 678.595 201.366C662.508 201.366 646.47 201.366 630.382 201.366C629.392 201.366 629.392 202.851 630.382 202.851Z" fill="#16A34A"/>
<path d="M679.09 203.643C680.031 203.643 680.031 202.158 679.09 202.158C678.1 202.158 678.1 203.643 679.09 203.643Z" fill="#16A34A"/>
<path d="M678.348 202.9C678.348 205.425 678.348 207.949 678.348 210.474C678.348 211.414 679.833 211.414 679.833 210.474C679.833 207.949 679.833 205.425 679.833 202.9C679.833 201.96 678.348 201.96 678.348 202.9Z" fill="#16A34A"/>
<path d="M640.48 201.861C640.48 199.238 640.48 196.664 640.48 194.04C640.48 193.1 638.995 193.1 638.995 194.04C638.995 196.664 638.995 199.238 638.995 201.861C638.995 202.802 640.48 202.802 640.48 201.861Z" fill="#16A34A"/>
<path d="M639.738 194.535C655.528 194.535 671.319 194.535 687.159 194.535C688.099 194.535 688.099 193.05 687.159 193.05C671.368 193.05 655.578 193.05 639.738 193.05C638.797 193.05 638.797 194.535 639.738 194.535Z" fill="#16A34A"/>
<path d="M686.664 193.793C686.664 195.971 686.664 198.149 686.664 200.327C686.664 201.267 688.149 201.267 688.149 200.327C688.149 198.149 688.149 195.971 688.149 193.793C688.149 192.803 686.664 192.803 686.664 193.793Z" fill="#16A34A"/>
<path d="M678.051 203.099C680.922 203.099 683.793 203.099 686.664 203.099C687.604 203.099 687.604 201.614 686.664 201.614C683.793 201.614 680.922 201.614 678.051 201.614C677.061 201.614 677.061 203.099 678.051 203.099Z" fill="#16A34A"/>
<path d="M686.565 200.376C686.466 200.92 686.466 201.415 686.614 201.91C686.713 202.306 687.159 202.554 687.505 202.405C687.901 202.306 688.149 201.861 688 201.514C687.951 201.267 687.901 200.97 687.951 200.772C688 200.376 687.852 199.93 687.456 199.881C687.109 199.782 686.614 199.98 686.565 200.376Z" fill="#16A34A"/>
<path d="M651.024 194.139C651.667 196.663 651.816 199.237 651.469 201.861C651.37 202.801 652.855 202.801 652.954 201.861C653.301 199.138 653.103 196.416 652.459 193.743C652.212 192.852 650.776 193.248 651.024 194.139Z" fill="#16A34A"/>
<path d="M662.211 202.752C662.557 205.227 662.359 207.653 661.765 210.029C661.518 210.969 662.953 211.365 663.201 210.425C663.894 207.752 664.042 205.079 663.646 202.356C663.547 201.416 662.112 201.812 662.211 202.752Z" fill="#16A34A"/>
<path d="M652.509 262.993C652.509 266.904 652.509 270.765 652.509 274.675C652.509 275.616 653.994 275.616 653.994 274.675C653.994 270.765 653.994 266.904 653.994 262.993C653.994 262.003 652.509 262.003 652.509 262.993Z" fill="#16A34A"/>
<path d="M641.025 274.874C650.925 274.874 660.825 274.874 670.725 274.874C671.665 274.874 671.665 273.389 670.725 273.389C660.825 273.389 650.925 273.389 641.025 273.389C640.084 273.389 640.084 274.874 641.025 274.874Z" fill="#16A34A"/>
<path d="M624.146 108.356C624.146 117.266 624.146 126.225 624.146 135.135C624.146 136.076 625.631 136.076 625.631 135.135C625.631 126.225 625.631 117.266 625.631 108.356C625.631 107.415 624.146 107.415 624.146 108.356Z" fill="#16A34A"/>
<path d="M626.026 108.306C637.312 108.306 648.549 108.306 659.835 108.306C660.775 108.306 660.775 106.821 659.835 106.821C648.549 106.821 637.312 106.821 626.026 106.821C625.086 106.821 625.086 108.306 626.026 108.306Z" fill="#16A34A"/>
<path d="M659.884 108.108C659.884 116.721 659.884 125.334 659.884 133.897C659.884 134.838 661.369 134.838 661.369 133.897C661.369 125.284 661.369 116.671 661.369 108.108C661.369 107.167 659.884 107.167 659.884 108.108Z" fill="#16A34A"/>
<path d="M624.69 135.976C636.669 135.976 648.648 135.976 660.627 135.976C661.567 135.976 661.567 134.491 660.627 134.491C648.648 134.491 636.669 134.491 624.69 134.491C623.749 134.491 623.749 135.976 624.69 135.976Z" fill="#16A34A"/>
<path d="M627.462 111.425C627.462 118.206 627.462 124.938 627.462 131.72C627.462 132.66 628.947 132.66 628.947 131.72C628.947 124.938 628.947 118.206 628.947 111.425C628.947 110.484 627.462 110.484 627.462 111.425Z" fill="#16A34A"/>
<path d="M628.551 112.018C637.807 112.018 647.113 112.018 656.37 112.018C657.31 112.018 657.31 110.533 656.37 110.533C647.113 110.533 637.807 110.533 628.551 110.533C627.61 110.533 627.61 112.018 628.551 112.018Z" fill="#16A34A"/>
<path d="M655.826 111.425C655.826 117.711 655.826 123.948 655.826 130.235C655.826 131.175 657.311 131.175 657.311 130.235C657.311 123.948 657.311 117.711 657.311 111.425C657.311 110.484 655.826 110.484 655.826 111.425Z" fill="#16A34A"/>
<path d="M628.551 132.462C637.758 132.462 646.965 132.462 656.221 132.462C657.162 132.462 657.162 130.977 656.221 130.977C647.014 130.977 637.807 130.977 628.551 130.977C627.61 130.977 627.61 132.462 628.551 132.462Z" fill="#16A34A"/>
<path d="M646.074 123.552C642.163 120.582 648.004 114.395 650.727 118.107C653.251 121.473 649.143 125.532 645.628 123.651C644.787 123.206 644.044 124.493 644.886 124.938C647.163 126.176 650.182 125.829 651.816 123.701C653.499 121.572 653.301 118.206 651.172 116.424C648.945 114.593 645.777 115.83 644.242 117.909C642.609 120.186 643.104 123.156 645.331 124.839C646.123 125.384 646.816 124.097 646.074 123.552Z" fill="#16A34A"/>
<path d="M641.371 130.878C641.173 126.967 645.975 125.483 648.994 125.483C652.707 125.483 653.895 128.799 655.429 131.62C655.875 132.462 657.162 131.719 656.716 130.878C655.677 128.997 654.687 126.522 652.954 125.136C651.37 123.899 649.39 123.948 647.509 124.146C644.044 124.542 639.639 126.67 639.886 130.878C639.936 131.818 641.421 131.818 641.371 130.878Z" fill="#16A34A"/>
<path d="M629.194 127.314C630.283 125.284 634.293 126.076 635.778 126.868C637.312 127.71 638.203 129.096 638.599 130.779C638.797 131.719 640.233 131.323 640.035 130.383C639.441 127.809 637.659 125.779 635.085 124.938C632.907 124.245 629.194 124.195 627.957 126.522C627.462 127.413 628.749 128.155 629.194 127.314Z" fill="#16A34A"/>
<path d="M632.065 123.651C630.432 123.602 630.828 121.176 631.521 120.335C632.412 119.246 634.194 119.097 635.233 120.137C636.075 120.929 636.322 122.414 635.629 123.354C635.134 124.047 634.392 124.196 633.6 124.196C633.303 124.196 632.065 124.245 631.867 123.998C631.323 123.206 630.036 123.948 630.58 124.74C631.174 125.631 632.412 125.681 633.402 125.681C634.59 125.73 635.728 125.433 636.57 124.542C638.154 122.81 637.609 119.889 635.728 118.602C633.699 117.266 630.877 118.008 629.838 120.186C628.947 122.117 629.59 125.037 632.065 125.087C633.055 125.186 633.055 123.701 632.065 123.651Z" fill="#16A34A"/>
<path d="M329.126 239.927C331.452 241.808 334.323 241.016 336.501 239.184C339.57 236.66 341.105 232.353 341.699 228.542C343.233 218.84 339.323 209.633 337.788 200.228C335.016 182.754 342.639 164.043 356.796 153.549C363.677 148.401 375.012 142.907 372.339 132.363C372.092 131.423 370.656 131.819 370.904 132.759C373.428 142.808 361.746 147.906 355.361 152.757C349.619 157.163 344.966 162.855 341.649 169.241C338.382 175.428 336.402 182.309 335.858 189.288C335.214 197.753 337.442 205.623 339.273 213.791C340.362 218.741 341.055 223.938 340.115 228.987C339.669 231.314 338.877 233.591 337.64 235.62C336.254 237.798 332.937 241.164 330.165 238.937C329.472 238.293 328.383 239.333 329.126 239.927Z" fill="#16A34A"/>
<path d="M371.794 131.769C366.201 132.017 361.301 127.661 361.598 121.919C361.895 115.929 368.973 110.385 374.963 111.969C380.309 113.405 384.417 119.295 383.081 124.79C381.744 130.284 375.556 131.472 370.804 132.264C369.864 132.413 370.26 133.848 371.201 133.7C377.339 132.71 384.467 130.532 384.863 123.107C385.16 117.068 379.764 110.534 373.577 110.286C367.043 109.989 360.459 115.335 360.113 121.968C359.816 128.502 365.409 133.551 371.794 133.304C372.735 133.205 372.735 131.72 371.794 131.769Z" fill="#16A34A"/>
<path d="M364.469 127.908C366.845 121.919 379.517 120.929 381.002 128.057C381.2 128.997 382.635 128.601 382.437 127.661C380.606 118.949 365.904 120.236 363.033 127.512C362.687 128.403 364.122 128.75 364.469 127.908Z" fill="#16A34A"/>
<path d="M371.894 121.226C370.854 120.483 370.458 119.048 371.151 117.959C371.943 116.622 373.626 116.474 374.913 117.167C375.903 117.711 376.101 118.949 375.507 119.889C374.765 121.028 373.181 121.176 371.943 120.879C371.003 120.681 370.607 122.117 371.547 122.315C373.527 122.76 375.903 122.315 376.893 120.384C377.784 118.652 377.141 116.573 375.359 115.731C373.379 114.84 371.003 115.236 369.864 117.167C368.726 118.998 369.468 121.275 371.151 122.463C371.943 123.107 372.686 121.82 371.894 121.226Z" fill="#16A34A"/>
<path d="M392.882 105.979C398.079 92.2185 413.028 85.1895 426.937 84.249C436.144 83.6055 445.352 85.041 454.361 86.7735C462.875 88.4565 471.735 91.1295 480.447 90.8325C487.624 90.585 495 87.615 498.366 80.9325C498.811 80.091 497.525 79.3485 497.079 80.19C493.169 87.912 484.16 89.892 476.19 89.2485C466.884 88.506 457.727 85.734 448.569 84.1995C433.719 81.7245 417.879 81.378 404.662 89.7435C398.673 93.555 393.921 98.901 391.397 105.583C391.1 106.474 392.535 106.87 392.882 105.979Z" fill="#16A34A"/>
<path d="M504.356 80.0912C517.424 80.0912 530.541 80.0912 543.609 80.0912C544.55 80.0912 544.55 78.6062 543.609 78.6062C530.541 78.6062 517.424 78.6062 504.356 78.6062C503.366 78.6062 503.366 80.0912 504.356 80.0912Z" fill="#16A34A"/>
<path d="M503.811 78.507C501.484 76.23 504.009 72.369 505.841 70.6365C508.068 68.4585 511.137 67.617 514.107 68.805C514.354 68.904 514.85 68.7555 514.949 68.4585C516.731 64.3005 520.938 61.281 525.541 61.479C530.343 61.677 534.402 65.2905 535.59 69.8445C535.689 70.29 536.283 70.5375 536.679 70.29C538.857 68.9535 541.085 70.5375 541.976 72.567C542.768 74.448 542.569 76.5765 542.371 78.606C542.272 79.5465 543.757 79.5465 543.856 78.606C544.153 75.636 544.352 72.1215 541.976 69.8445C540.293 68.2605 537.966 67.7655 535.986 69.003C536.333 69.1515 536.728 69.3 537.075 69.4485C535.738 64.4985 531.481 60.5385 526.284 60.0435C520.938 59.499 515.79 62.8155 513.711 67.716C514.008 67.617 514.255 67.4685 514.552 67.3695C510.592 65.7855 506.435 67.4685 503.861 70.7355C501.93 73.161 500.247 77.0715 502.871 79.596C503.465 80.2395 504.504 79.2 503.811 78.507Z" fill="#16A34A"/>
<path d="M531.976 85.7835C538.065 85.0905 541.629 91.476 542.569 96.624C543.559 101.921 542.619 107.217 542.074 112.514C541.233 120.483 541.777 130.086 549.351 134.739C550.143 135.234 550.935 133.947 550.093 133.452C539.748 127.116 544.054 113.009 544.45 103.307C544.747 95.931 541.827 83.2095 531.976 84.2985C531.036 84.3975 531.036 85.8825 531.976 85.7835Z" fill="#16A34A"/>
<path d="M557.568 126.374C553.113 137.61 548.708 148.847 544.253 160.034C543.906 160.925 545.342 161.321 545.688 160.43C550.143 149.193 554.549 137.957 559.004 126.77C559.35 125.879 557.915 125.532 557.568 126.374Z" fill="#16A34A"/>
<path d="M558.261 127.314C565.983 126.918 573.656 127.116 581.328 128.007C581.081 127.71 580.833 127.364 580.635 127.067C576.972 138.798 574.002 150.678 571.626 162.707C571.428 163.647 572.864 164.043 573.062 163.103C575.438 151.074 578.457 139.194 582.071 127.463C582.219 126.968 581.823 126.572 581.378 126.522C573.705 125.631 566.033 125.433 558.311 125.829C557.321 125.878 557.321 127.364 558.261 127.314Z" fill="#16A34A"/>
<path d="M544.599 161.469C549.153 161.667 553.657 161.915 558.211 162.212C562.617 162.459 567.319 162.36 571.477 164.043C572.368 164.39 572.764 162.954 571.873 162.608C567.913 160.974 563.409 161.073 559.201 160.826C554.35 160.529 549.499 160.281 544.599 160.034C543.658 159.935 543.658 161.42 544.599 161.469Z" fill="#16A34A"/>
<path d="M558.954 132.264C563.706 132.363 568.458 132.709 573.16 133.353C574.101 133.501 574.497 132.066 573.556 131.917C568.705 131.224 563.854 130.828 558.954 130.729C557.964 130.729 557.964 132.214 558.954 132.264Z" fill="#16A34A"/>
<path d="M557.518 135.63C560.191 135.531 562.864 135.581 565.537 135.828C566.478 135.927 566.478 134.442 565.537 134.343C562.864 134.096 560.191 133.997 557.518 134.145C556.578 134.195 556.578 135.68 557.518 135.63Z" fill="#16A34A"/>
<path d="M554.252 142.313C559.944 141.966 565.34 141.471 570.933 142.857C571.874 143.105 572.27 141.669 571.329 141.422C565.587 140.036 560.093 140.481 554.252 140.828C553.262 140.877 553.262 142.362 554.252 142.313Z" fill="#16A34A"/>
<path d="M554.499 146.669C557.766 146.421 561.033 146.421 564.3 146.718C565.24 146.817 565.24 145.332 564.3 145.233C561.033 144.936 557.766 144.936 554.499 145.184C553.558 145.283 553.509 146.768 554.499 146.669Z" fill="#16A34A"/>
<path d="M551.925 152.411C556.38 152.114 560.736 152.262 565.141 152.856C566.082 153.005 566.082 151.52 565.141 151.371C560.736 150.777 556.33 150.629 551.925 150.926C550.984 150.975 550.984 152.46 551.925 152.411Z" fill="#16A34A"/>
<path d="M305.613 85.9817C307.593 88.6547 310.464 89.7437 313.384 91.0802C316.849 92.6642 320.017 94.7927 322.591 97.6142C328.432 103.901 330.363 112.365 330.511 120.731C330.858 136.422 325.561 152.856 332.689 167.706C333.085 168.548 334.372 167.805 333.976 166.964C326.502 151.322 333.135 133.799 331.848 117.365C331.304 110.237 329.274 103.257 324.671 97.7132C322.493 95.0897 319.819 92.8127 316.849 91.1297C313.533 89.2487 309.226 88.4072 306.9 85.2392C306.355 84.4967 305.069 85.2392 305.613 85.9817Z" fill="#16A34A"/>
<path d="M288.684 65.0431C287.397 63.4096 287.496 62.2711 288.981 61.6276C289.624 61.2811 290.268 61.0336 291.01 60.8851C291.951 60.6871 292.99 60.6376 293.98 60.6871C296.95 60.8356 299.97 61.6276 299.821 65.2411C299.673 69.4981 298.881 73.7056 297.841 77.8141C296.752 82.0216 295.416 86.1301 293.98 90.2386C293.683 91.1296 293.436 92.1691 292.99 93.0106C292.099 94.5451 290.713 94.4956 289.228 94.4956C287.397 94.4956 285.07 94.7431 283.288 94.2481C281.308 93.7036 280.863 91.7236 282.793 90.4366C283.684 89.8426 284.922 89.7436 285.961 89.7436C287.298 89.7436 288.486 90.0406 289.624 89.1496C291.802 87.4666 292.149 82.9126 292.644 80.4871C293.386 76.9726 294.624 72.6661 294.376 69.1021C294.178 66.3796 291.505 66.2806 289.575 65.1421C288.733 64.6471 287.991 65.9341 288.832 66.4291C290.367 67.3201 292.594 67.4191 292.891 69.4486C293.238 71.8246 292.248 75.0421 291.802 77.4181C291.357 79.6951 290.862 81.9721 290.268 84.1996C289.822 85.8826 289.624 87.9121 287.397 88.3576C286.506 88.5556 285.417 88.2586 284.476 88.4071C282.1 88.7536 279.774 90.4366 280.12 93.1096C280.566 96.4756 284.575 95.8816 287.05 95.9806C290.119 96.0796 293.188 96.5251 294.574 93.2581C296.307 89.1991 297.544 84.7441 298.732 80.5366C299.97 76.1806 300.91 71.6761 301.257 67.1716C301.554 63.6571 301.702 60.8356 297.792 59.8951C294.376 59.0536 289.674 58.6576 287.001 61.4296C285.219 63.2611 285.664 66.8746 288.733 66.6271C289.624 66.4291 289.624 64.9441 288.684 65.0431Z" fill="#16A34A"/>
<path d="M282.694 70.3397C282.645 70.2902 282.595 70.2407 282.546 70.1912C282.348 69.9932 282.051 69.9437 281.803 69.9932C280.368 70.4882 279.823 72.8147 279.427 74.1017C278.734 76.4777 278.586 78.9032 278.932 81.3782C279.031 82.3187 280.516 82.3187 280.417 81.3782C280.219 79.6457 280.17 77.9627 280.467 76.2302C280.615 75.3392 282.15 71.8742 281.605 71.3792C282.298 72.0722 283.338 71.0327 282.694 70.3397Z" fill="#16A34A"/>
<path d="M277.695 64.8946C273.141 70.6861 270.22 77.6656 272.151 85.0906C272.398 86.0311 273.834 85.6351 273.586 84.6946C271.804 77.8636 274.576 71.2801 278.734 65.9341C279.328 65.1916 278.289 64.1521 277.695 64.8946Z" fill="#16A34A"/>
<path d="M271.458 58.2121C263.884 68.1616 260.32 80.7346 261.607 93.2086C261.706 94.1491 263.191 94.1491 263.092 93.2086C261.855 80.9821 265.27 68.7556 272.745 58.9546C273.289 58.2121 272.002 57.4696 271.458 58.2121Z" fill="#16A34A"/>
<path d="M260.914 108.801C257.103 110.633 253.539 113.157 250.718 116.325C247.847 119.592 246.956 123.107 246.51 127.364C245.52 137.115 241.907 147.807 232.106 151.916C231.215 152.262 231.611 153.698 232.502 153.351C240.323 150.084 244.877 142.659 246.807 134.64C247.946 129.839 247.401 124.146 249.926 119.84C252.5 115.434 257.152 112.217 261.657 110.039C262.548 109.692 261.805 108.405 260.914 108.801Z" fill="#16A34A"/>
<path d="M211.167 178.2C207.9 178.299 204.187 176.913 202.999 173.547C201.613 169.587 204.583 165.726 207.751 163.696C213.889 159.736 222.156 158.202 229.284 158.103C232.897 158.053 237.006 158.103 240.174 160.033C244.233 162.508 244.926 167.161 241.758 170.676C236.956 176.022 228.69 176.566 222.057 177.061C221.116 177.111 221.116 178.596 222.057 178.546C228.69 178.051 236.115 177.457 241.461 173.002C246.361 168.943 246.708 162.211 240.966 158.697C235.026 155.083 225.967 156.271 219.532 157.657C213.345 158.994 204.88 161.419 202.108 167.805C199.237 174.339 204.732 179.784 211.266 179.586C212.157 179.635 212.157 178.15 211.167 178.2Z" fill="#16A34A"/>
<path d="M210.919 178.794C209.682 180.774 208.494 182.754 207.256 184.685C206.86 185.328 207.652 186.021 208.296 185.724C211.315 184.091 214.582 183.051 217.651 181.616C219.334 180.873 220.968 179.982 222.552 178.992C223.096 178.646 223.74 178.448 223.888 177.755C223.987 177.408 223.789 176.913 223.393 176.864C223.344 176.864 223.294 176.864 223.245 176.814C222.898 176.765 222.403 176.913 222.354 177.309C222.354 177.359 222.354 177.359 222.354 177.408C222.156 178.349 223.591 178.745 223.789 177.804C223.789 177.755 223.789 177.755 223.789 177.705C223.492 177.854 223.195 178.052 222.898 178.2C222.948 178.2 222.997 178.2 223.047 178.25C222.898 177.953 222.7 177.656 222.552 177.359C222.403 177.854 219.631 178.992 219.037 179.339C217.552 180.131 216.018 180.774 214.434 181.418C212.107 182.358 209.83 183.249 207.652 184.437C207.999 184.784 208.345 185.13 208.692 185.477C209.929 183.497 211.117 181.517 212.355 179.586C212.701 178.745 211.414 178.002 210.919 178.794Z" fill="#16A34A"/>
<path d="M212.553 170.231C212.503 170.132 212.503 169.934 212.652 169.934C213.048 169.934 212.602 170.429 212.553 170.478C212.305 170.627 211.464 170.825 211.513 170.33C211.563 169.736 212.701 169.092 212.899 169.983C212.949 170.231 212.751 170.528 212.503 170.577C212.355 170.627 212.256 170.627 212.157 170.528C212.107 170.478 212.008 170.429 212.107 170.429C213.048 170.478 213.048 168.993 212.107 168.944C211.117 168.845 210.375 169.884 210.622 170.825C210.87 171.765 211.959 172.26 212.85 172.013C213.741 171.765 214.434 170.973 214.434 170.033C214.434 169.092 213.691 168.3 212.85 168.102C211.018 167.657 209.088 170.33 210.672 171.666C211.959 172.755 214.533 171.765 214.384 169.934C214.285 168.944 213.196 168.152 212.206 168.498C211.216 168.845 210.82 170.082 211.315 170.973C211.711 171.815 212.998 171.072 212.553 170.231Z" fill="#16A34A"/>
<path d="M223.492 168.894C223.443 168.597 223.294 168.201 223.591 167.954C223.74 167.805 223.987 167.805 224.185 167.805C224.68 167.904 224.581 168.449 224.235 168.696C224.037 168.845 223.839 168.845 223.69 168.647C223.542 168.449 223.591 168.399 223.74 168.3C223.839 168.251 223.542 168.3 223.789 168.251C224.383 168.152 223.393 168.845 223.542 168.35C223.245 169.29 224.68 169.637 224.977 168.746C225.225 167.855 224.383 166.964 223.492 167.112C222.453 167.31 222.205 168.548 222.849 169.29C223.443 169.983 224.532 169.835 224.977 169.043C225.423 168.251 225.126 167.211 224.235 166.914C223.344 166.617 222.354 167.162 222.156 168.053C221.908 169.043 222.601 170.033 223.591 170.28C225.373 170.676 226.858 168.251 225.571 166.914C224.928 166.271 223.888 166.221 223.096 166.568C222.007 167.112 221.958 168.251 222.156 169.29C222.205 170.231 223.641 169.835 223.492 168.894Z" fill="#16A34A"/>
<path d="M234.482 165.578C234.68 165.578 234.878 165.627 235.125 165.627V165.578C235.175 165.528 235.175 165.429 235.224 165.38C235.274 165.281 235.422 165.182 235.521 165.132C235.768 165.033 236.016 165.033 236.165 165.281C236.363 165.677 236.016 166.419 235.521 166.122C235.224 165.924 235.175 165.429 235.62 165.528C235.719 165.528 235.769 165.578 235.818 165.627C235.818 165.627 235.818 165.726 235.818 165.627C235.818 165.528 235.818 165.677 235.768 165.677C235.62 165.776 235.571 165.875 235.422 165.776C235.076 165.528 234.581 165.726 234.383 166.023C234.185 166.419 234.333 166.815 234.63 167.063C236.066 168.102 237.996 166.023 236.858 164.637C235.818 163.4 233.591 164.192 233.69 165.825C233.739 166.667 234.383 167.409 235.175 167.607C235.967 167.805 236.808 167.409 237.253 166.716C238.243 165.182 236.857 163.053 235.026 163.647C234.184 163.944 233.442 164.786 233.541 165.726C233.64 166.766 235.125 167.31 235.67 166.271C236.165 165.479 234.927 164.736 234.482 165.578Z" fill="#16A34A"/>
<path d="M264.38 122.414C270.468 119.048 275.765 114.593 280.17 109.197C280.764 108.455 279.725 107.415 279.131 108.158C274.824 113.454 269.627 117.81 263.637 121.127C262.796 121.572 263.538 122.859 264.38 122.414Z" fill="#16A34A"/>
<path d="M338.431 123.701C337.342 129.938 336.897 136.224 337.194 142.56C337.243 143.501 338.728 143.501 338.679 142.56C338.382 136.373 338.778 130.185 339.867 124.097C340.015 123.156 338.58 122.76 338.431 123.701Z" fill="#16A34A"/>
<path d="M330.858 268.389C330.858 260.816 334.422 253.638 340.51 249.084C341.253 248.54 340.51 247.253 339.768 247.797C333.234 252.648 329.422 260.222 329.422 268.389C329.373 269.33 330.858 269.33 330.858 268.389Z" fill="#16A34A"/>
<path d="M413.771 468.27C414.563 475.398 415.8 483.219 417.78 491.683C420.453 503.118 423.869 513.117 427.284 521.532C426.344 522.373 423.522 524.601 419.364 524.898C416.741 525.096 414.662 524.452 413.474 524.007C411.692 517.819 409.959 511.384 408.375 504.702C405.108 490.941 402.732 477.823 401 465.597C405.306 466.488 409.563 467.379 413.771 468.27Z" fill="#191919"/>
<path d="M524.898 463.617C524.255 470.695 523.166 478.566 521.334 487.03C518.76 499.009 515.345 509.404 511.88 518.166C512.375 518.611 515.196 521.284 519.552 521.086C523.314 520.938 525.74 518.71 526.334 518.166C527.472 512.176 528.561 506.137 529.65 500.098C532.026 486.882 534.155 473.863 536.184 460.993C532.422 461.835 528.66 462.726 524.898 463.617Z" fill="#191919"/>
<path d="M436.392 443.866C437.531 451.44 438.867 459.261 440.402 467.28C442.629 478.912 445.154 490 447.827 500.494C446.688 501.187 444.411 502.326 441.293 502.524C438.669 502.672 436.59 502.078 435.402 501.633C433.917 494.604 432.482 487.476 431.046 480.348C428.423 467.131 425.997 454.113 423.671 441.243C427.928 442.084 432.135 442.975 436.392 443.866Z" fill="#191919"/>
<path d="M506.237 442.382C504.9 449.856 503.712 457.677 502.673 465.795C501.237 476.982 500.247 487.674 499.653 497.871C500.495 498.416 502.475 499.554 505.296 499.703C508.316 499.802 510.543 498.614 511.385 498.119C510.89 492.278 510.692 485.793 510.989 478.863C511.583 463.469 514.404 450.203 517.523 439.758C513.761 440.6 509.999 441.491 506.237 442.382Z" fill="#191919"/>
<path d="M594.198 276.755C602.861 292.199 596.178 309.276 579.942 351.698C572.121 372.092 557.815 409.563 537.619 462.974C517.77 470.201 484.902 479.111 444.263 476.289C420.651 474.656 400.851 469.557 385.853 464.31C383.625 460.301 375.903 445.302 381.695 430.749C384.912 422.681 391.397 416.889 405.158 410.058C418.721 403.326 442.629 393.872 477.378 392.139C463.766 324.374 487.08 268.835 523.364 256.014C547.173 247.649 582.269 255.519 594.198 276.755Z" fill="white" stroke="#191919" stroke-width="2" stroke-miterlimit="10"/>
<path d="M591.03 282.348C576.675 300.515 573.408 324.918 567.914 346.747C562.023 370.111 555.241 393.426 545.094 415.354C539.5 427.383 532.917 438.966 525.046 449.658C524.502 450.45 525.789 451.192 526.334 450.4C540.144 431.59 549.895 410.256 557.419 388.278C565.042 365.904 570.091 342.837 576.031 320.017C579.397 307.048 583.704 294.079 592.119 283.437C592.663 282.645 591.624 281.606 591.03 282.348Z" fill="#191919"/>
<path d="M386.149 453.569C419.166 465.696 455.152 469.26 489.901 463.865C499.851 462.33 509.701 460.053 519.354 457.083C520.245 456.786 519.898 455.351 518.958 455.648C485.298 466.043 449.163 467.627 414.711 460.301C405.157 458.271 395.703 455.499 386.545 452.133C385.654 451.787 385.258 453.222 386.149 453.569Z" fill="#191919"/>
<path d="M502.376 414.662C510.692 417.384 517.77 422.879 522.522 430.304C523.017 431.096 524.304 430.353 523.809 429.561C518.859 421.839 511.484 416.097 502.772 413.226C501.831 412.929 501.435 414.365 502.376 414.662Z" fill="#191919"/>
<path d="M353.479 478.764C357.439 484.704 361.399 490.694 365.31 496.634C339.966 519.404 336.699 525.888 338.58 527.472C342.342 530.591 369.319 516.731 372.091 515.295C382.14 510.147 389.713 505.148 394.762 501.584C392.98 496.733 390.604 491.288 387.337 485.546C383.031 477.972 378.279 471.587 373.774 466.389C366.993 470.448 360.211 474.606 353.479 478.764Z" fill="#191919"/>
<path d="M501.583 362.093C503.365 365.954 505.246 371.448 505.543 378.081C505.989 388.08 502.722 396.05 500.247 400.653C498.91 402.386 496.534 405.257 493.02 408.375C493.02 408.375 485.05 415.404 472.378 420.8C459.459 426.344 421.888 433.026 370.854 434.313C372.339 440.649 375.012 448.421 379.764 456.786C382.387 461.39 385.258 465.449 388.08 468.963C386.199 471.438 380.853 477.725 370.21 481.685C359.964 485.496 350.559 485.051 346.846 484.754C341.5 479.853 336.006 474.012 330.907 467.033C315.909 446.391 312.394 426.443 311.751 413.622C315.463 410.949 320.908 407.286 328.036 403.376C342.886 395.208 356.499 390.753 367.686 387.437C386.941 381.794 405.355 377.883 447.727 370.706C460.993 368.478 479.358 365.409 501.583 362.093Z" fill="white" stroke="#191919" stroke-width="2" stroke-miterlimit="10"/>
<path opacity="0.19" d="M454.558 370.607C453.123 380.061 449.064 392.337 436.491 399.96C424.264 407.385 414.018 404.366 389.515 410.306C371.893 414.563 348.579 420.206 342.094 432.729C335.313 445.896 348.133 464.459 370.557 479.705C372.438 479.457 374.814 478.962 377.338 477.972C383.823 475.398 386.991 471.191 388.179 469.359C385.308 465.894 382.338 461.885 379.615 457.281C374.467 448.668 371.695 440.649 370.111 434.165C396.346 433.076 418.374 430.799 435.105 428.621C455.251 425.997 469.21 423.374 482.526 415.85C493.663 409.563 498.118 403.376 499.702 401C504.504 393.723 504.9 387.09 505.098 383.378C505.593 374.319 502.623 366.944 500.148 362.291C484.951 365.063 469.755 367.835 454.558 370.607Z" fill="#6C6D6D"/>
<path opacity="0.19" d="M500.643 363.33C499.653 372.537 496.138 387.09 482.13 398.574C473.517 405.653 464.26 408.821 427.927 418.622C411.889 422.928 392.485 428.027 370.408 433.571C398.475 433.274 421.294 430.947 437.679 428.72C454.657 426.393 462.973 424.364 471.586 420.651C479.754 417.137 496.237 410.009 502.969 395.01C509.454 380.457 502.92 367.389 500.643 363.33Z" fill="#6C6D6D"/>
<path opacity="0.22" d="M370.557 434.313C370.359 440.847 370.656 448.321 371.893 456.538C373.081 464.656 375.012 471.933 377.091 478.269C378.774 477.279 380.705 475.942 382.586 474.309C384.863 472.329 386.546 470.448 387.783 468.814C384.912 465.052 381.991 460.696 379.269 455.796C374.863 447.876 372.24 440.55 370.557 434.313Z" fill="#6C6D6D"/>
<path d="M368.28 507.177C372.091 514.652 375.853 522.126 379.665 529.65C355.311 558.261 352.143 566.379 353.974 568.359C357.588 572.319 383.526 554.846 386.199 553.064C395.851 546.579 403.177 540.293 408.028 535.838C406.296 529.749 404.019 522.918 400.851 515.642C396.742 506.138 392.139 498.119 387.832 491.535C381.298 496.782 374.764 501.98 368.28 507.177Z" fill="#191919"/>
<path d="M510.642 360.558C512.374 365.459 514.156 372.29 514.453 380.655C514.899 393.228 511.731 403.227 509.355 409.019C508.068 411.197 505.791 414.81 502.425 418.77C502.425 418.77 494.802 427.631 482.625 434.412C470.2 441.342 434.065 449.807 385.06 451.391C386.496 459.36 389.02 469.112 393.624 479.606C396.148 485.397 398.92 490.496 401.643 494.901C399.861 498.02 394.713 505.89 384.466 510.89C374.616 515.691 365.607 515.147 361.993 514.701C356.845 508.563 351.549 501.188 346.698 492.426C332.244 466.488 328.878 441.392 328.284 425.304C331.848 421.988 337.095 417.335 343.926 412.434C358.231 402.188 371.25 396.545 382.041 392.387C400.504 385.308 418.275 380.408 459.013 371.349C471.586 368.528 489.307 364.716 510.642 360.558Z" fill="white" stroke="#191919" stroke-width="2" stroke-miterlimit="10"/>
<path opacity="0.19" d="M465.448 371.25C464.062 383.13 460.152 398.524 448.074 408.127C436.342 417.483 426.442 413.671 402.93 421.146C386.001 426.492 363.577 433.62 357.34 449.361C350.806 465.894 363.132 489.258 384.664 508.365C386.496 508.068 388.773 507.424 391.198 506.187C397.435 502.969 400.455 497.673 401.593 495.346C398.821 490.99 395.95 485.941 393.327 480.15C388.377 469.309 385.704 459.261 384.219 451.093C409.464 449.707 430.6 446.886 446.737 444.163C466.141 440.896 479.506 437.58 492.327 428.125C503.019 420.205 507.325 412.434 508.81 409.464C513.414 400.306 513.81 391.99 514.008 387.337C514.453 375.952 511.632 366.696 509.256 360.855C494.653 364.27 480.051 367.735 465.448 371.25Z" fill="#6C6D6D"/>
<path opacity="0.19" d="M509.701 362.093C508.761 373.626 505.395 391.941 491.931 406.395C483.615 415.305 474.754 419.265 439.857 431.591C424.413 437.036 405.801 443.421 384.565 450.401C411.543 450.005 433.521 447.134 449.262 444.312C465.597 441.392 473.616 438.867 481.833 434.214C489.703 429.759 505.494 420.849 512.028 401.94C518.215 383.625 511.929 367.241 509.701 362.093Z" fill="#6C6D6D"/>
<path opacity="0.22" d="M384.714 451.341C384.516 459.558 384.813 468.963 386.001 479.259C387.189 489.506 388.971 498.614 391 506.534C392.634 505.247 394.465 503.613 396.297 501.534C398.475 499.059 400.108 496.683 401.296 494.654C398.524 489.902 395.703 484.457 393.129 478.269C388.872 468.369 386.298 459.113 384.714 451.341Z" fill="#6C6D6D"/>
<path d="M365.458 283.635C364.518 283.19 362.637 282.348 362.687 281.408C362.786 279.873 367.884 278.834 371.696 278.883C374.27 278.883 379.022 279.428 384.566 283.289C379.368 284.922 371.695 286.407 365.458 283.635Z" fill="white" stroke="#191919" stroke-width="2" stroke-miterlimit="10"/>
<path d="M484.506 219.433C475.101 218.196 466.636 232.303 465.844 233.59C462.973 238.491 462.627 241.758 460.647 250.718C455.845 272.547 453.271 283.635 446.143 290.318C439.708 296.307 432.184 297.742 430.204 298.039C421.74 299.376 414.067 296.208 399.118 289.823C386.496 284.427 384.961 282.447 378.081 281.655C374.566 281.259 364.32 280.121 357.538 286.704C353.182 290.912 351.252 297.643 352.836 299.029C354.865 300.811 363.181 294.525 363.28 294.673C363.33 294.772 360.805 295.96 358.726 298.534C357.687 299.772 355.905 302.445 356.548 303.138C357.687 304.524 364.666 296.109 372.339 297.594C377.586 298.584 378.576 303.336 384.664 304.227C388.228 304.771 391.347 303.682 393.327 302.742C396.792 306.504 402.435 311.85 410.602 316.206C415.453 318.78 432.58 327.641 453.519 322.493C475.744 317.048 486.931 299.673 490.446 294.228C492.426 291.11 506.979 267.844 499.95 241.758C498.712 237.55 494.208 220.72 484.506 219.433Z" fill="white" stroke="#191919" stroke-width="2" stroke-miterlimit="10"/>
<path opacity="0.25" d="M483.516 219.582C480.299 221.265 486.536 232.947 485.744 249.678C485.001 265.765 478.121 277.645 475.052 283.09C470.894 290.367 465.399 299.871 454.459 306.058C439.758 314.374 421.542 313.137 408.573 307.494C404.712 305.811 400.802 300.366 392.288 297.049C388.575 295.614 385.655 295.02 382.239 294.327C373.874 292.693 366.449 291.208 359.568 294.673C356.301 296.356 353.579 298.93 353.777 299.277C353.975 299.623 357.786 297.693 361.152 295.861C357.093 301.257 356.45 302.791 356.747 303.088C357.093 303.385 358.331 302.247 361.499 300.465C364.914 298.584 367.389 297.247 370.409 297.495C371.943 297.643 373.131 298.138 373.824 298.435C376.547 299.623 377.19 301.009 379.913 302.395C381.596 303.237 382.982 303.583 383.724 303.732C385.308 304.078 388.575 304.524 392.882 302.989C396.644 306.949 413.919 324.472 439.214 324.126C452.232 323.928 461.786 319.077 465.548 317.146C486.189 306.405 494.406 287.347 496.485 282.1C502.92 265.864 505.197 241.807 493.416 226.71C490.595 223.047 485.744 218.443 483.516 219.582Z" fill="#6C6D6D"/>
<path d="M353.727 299.03C355.657 296.159 358.182 293.882 361.201 292.248C361.845 291.902 361.251 290.961 360.657 291.308C357.489 293.04 354.816 295.466 352.786 298.485C352.341 299.079 353.331 299.624 353.727 299.03Z" fill="#191919"/>
<path d="M354.321 292.644C356.251 289.625 359.37 288.041 362.488 286.506C363.132 286.209 362.587 285.219 361.944 285.566C358.627 287.15 355.36 288.882 353.331 292.1C352.984 292.694 353.925 293.238 354.321 292.644Z" fill="#191919"/>
<path opacity="0.29" d="M497.723 237.402C496.98 242.402 495.644 249.629 493.268 258.143C488.615 274.973 484.407 290.12 473.418 302.148C459.806 316.998 441.342 321.057 430.749 322.295C438.62 324.126 444.807 323.78 448.718 323.235C478.418 319.077 494.456 287.15 498.812 273.191C499.554 270.716 501.138 265.617 501.336 258.638C501.683 249.332 499.406 241.857 497.723 237.402Z" fill="#6C6D6D"/>
<path opacity="0.26" d="M373.329 297C376.15 298.386 380.011 299.921 384.763 300.812C388.525 301.505 391.891 301.653 394.564 301.554C387.783 305.168 384.268 304.722 382.288 303.534C381.051 302.792 379.665 301.307 375.853 298.683C374.814 297.941 373.923 297.346 373.329 297Z" fill="#6C6D6D"/>
<path d="M273.24 378.378C273.24 402.138 273.24 425.947 273.24 449.707C273.24 452.578 277.695 452.578 277.695 449.707C277.695 425.947 277.695 402.138 277.695 378.378C277.695 375.556 273.24 375.507 273.24 378.378Z" fill="#161616"/>
<path d="M354.222 377.437C354.222 381.249 354.222 385.06 354.222 388.872C354.222 391.743 358.677 391.743 358.677 388.872C358.677 385.06 358.677 381.249 358.677 377.437C358.677 374.566 354.222 374.566 354.222 377.437Z" fill="#161616"/>
<path d="M211.761 375.457C235.768 352.836 259.776 330.165 283.833 307.543C322.691 308.236 361.498 308.929 400.356 309.622C394.02 331.6 387.684 353.529 381.348 375.507C324.819 375.457 268.29 375.457 211.761 375.457Z" fill="white" stroke="#191919" stroke-width="2" stroke-miterlimit="10"/>
<path d="M213.197 378.031C256.608 378.031 299.97 378.031 343.382 378.031C355.559 378.031 367.686 378.031 379.863 378.031C382.734 378.031 382.734 373.576 379.863 373.576C336.452 373.576 293.09 373.576 249.678 373.576C237.501 373.576 225.374 373.576 213.197 373.576C210.326 373.576 210.326 378.031 213.197 378.031Z" fill="#161616"/>
<path d="M225.918 377.289C225.918 426.541 225.918 475.794 225.918 524.997C225.918 538.807 225.918 552.568 225.918 566.379C225.918 569.25 230.373 569.25 230.373 566.379C230.373 517.126 230.373 467.874 230.373 418.671C230.373 404.86 230.373 391.099 230.373 377.289C230.373 374.418 225.918 374.418 225.918 377.289Z" fill="#161616"/>
<path d="M361.697 377.289C361.697 426.541 361.697 475.794 361.697 524.997C361.697 538.807 361.697 552.568 361.697 566.379C361.697 569.25 366.152 569.25 366.152 566.379C366.152 517.126 366.152 467.874 366.152 418.671C366.152 404.86 366.152 391.099 366.152 377.289C366.152 374.418 361.697 374.418 361.697 377.289Z" fill="#161616"/>
<path d="M228.146 469.21C263.093 469.21 298.04 469.21 332.987 469.21C342.887 469.21 352.787 469.21 362.687 469.21C365.558 469.21 365.558 464.755 362.687 464.755C327.74 464.755 292.793 464.755 257.846 464.755C247.946 464.755 238.046 464.755 228.146 464.755C225.275 464.755 225.275 469.21 228.146 469.21Z" fill="#161616"/>
<path d="M399.762 309.622C394.119 331.65 387.635 353.479 380.21 374.962C379.566 376.794 382.437 377.536 383.081 375.754C390.506 354.222 396.99 332.442 402.633 310.414C403.079 308.583 400.257 307.791 399.762 309.622Z" fill="#161616"/>
<path d="M162.756 571.23C189.041 571.23 215.276 571.23 241.56 571.23C244.431 571.23 244.431 566.775 241.56 566.775C215.276 566.775 189.041 566.775 162.756 566.775C159.885 566.775 159.885 571.23 162.756 571.23Z" fill="#161616"/>
<path d="M252.599 570.24C258.638 570.24 264.726 570.24 270.765 570.24C273.636 570.24 273.636 565.785 270.765 565.785C264.726 565.785 258.638 565.785 252.599 565.785C249.728 565.785 249.728 570.24 252.599 570.24Z" fill="#161616"/>
<path d="M331.403 570.883C355.064 570.883 378.725 570.883 402.435 570.883C405.306 570.883 405.306 566.428 402.435 566.428C378.774 566.428 355.113 566.428 331.403 566.428C328.532 566.428 328.532 570.883 331.403 570.883Z" fill="#161616"/>
<path d="M418.622 569.299C422.829 569.299 427.036 569.299 431.293 569.299C434.165 569.299 434.165 564.844 431.293 564.844C427.086 564.844 422.879 564.844 418.622 564.844C415.751 564.844 415.751 569.299 418.622 569.299Z" fill="#161616"/>
<path d="M138.897 555.538C149.144 555.538 159.39 555.538 169.587 555.538C172.458 555.538 172.458 551.083 169.587 551.083C159.341 551.083 149.094 551.083 138.897 551.083C136.026 551.083 136.026 555.538 138.897 555.538Z" fill="#161616"/>
<path d="M355.41 366.102C324.868 365.31 294.277 364.567 263.736 363.775C281.853 346.45 299.92 329.076 318.037 311.751C338.926 312.84 359.865 313.929 380.754 315.018C372.289 332.095 363.874 349.074 355.41 366.102Z" fill="white" stroke="#191919" stroke-width="2" stroke-miterlimit="10"/>
<path d="M316.998 311.404C299.228 328.581 281.457 345.807 263.686 362.983C262.894 335.461 262.053 307.89 261.261 280.368C279.279 268.983 297.297 257.598 315.315 246.213C315.81 267.943 316.404 289.674 316.998 311.404Z" fill="white" stroke="#191919" stroke-width="2" stroke-miterlimit="10"/>
<path d="M262.894 282.991C264.33 307.494 265.27 332.046 265.765 356.598C265.765 357.093 266.508 357.093 266.508 356.598C266.013 332.046 265.072 307.494 263.637 282.991C263.587 282.546 262.845 282.546 262.894 282.991Z" fill="#191919"/>
<path d="M263.29 283.09C279.873 272.299 296.455 261.508 313.038 250.717C313.434 250.47 313.087 249.826 312.642 250.074C296.059 260.865 279.477 271.656 262.894 282.447C262.498 282.744 262.845 283.387 263.29 283.09Z" fill="#191919"/>
<path d="M312.84 250.668C312.791 270.418 313.385 290.218 314.672 309.919C314.721 310.414 315.464 310.414 315.414 309.919C314.177 290.169 313.533 270.418 313.583 250.668C313.583 250.222 312.84 250.222 312.84 250.668Z" fill="#191919"/>
<path d="M266.26 357.637C282.496 341.946 298.782 326.254 315.018 310.612C315.364 310.266 314.82 309.771 314.473 310.068C298.237 325.759 281.952 341.451 265.716 357.093C265.419 357.439 265.914 357.984 266.26 357.637Z" fill="#191919"/>
<path d="M341.451 349.222C344.471 344.421 347.49 339.57 350.411 334.669C350.658 334.273 350.015 333.877 349.767 334.273C346.847 339.174 343.827 344.025 340.808 348.826C340.511 349.222 341.154 349.618 341.451 349.222Z" fill="#191919"/>
<path d="M350.213 334.521C354.123 334.669 358.034 334.67 361.944 334.472C362.439 334.472 362.439 333.729 361.944 333.729C358.034 333.878 354.123 333.877 350.213 333.778C349.718 333.778 349.718 334.521 350.213 334.521Z" fill="#191919"/>
<path d="M361.449 334.273C359.222 339.124 356.945 343.975 354.668 348.826C354.47 349.272 355.113 349.618 355.311 349.222C357.588 344.371 359.865 339.52 362.093 334.669C362.291 334.174 361.647 333.828 361.449 334.273Z" fill="#191919"/>
<path d="M341.203 349.618C345.559 350.262 350.163 349.965 354.568 349.767C355.063 349.767 355.063 349.024 354.568 349.024C350.262 349.222 345.708 349.519 341.401 348.925C340.906 348.826 340.708 349.569 341.203 349.618Z" fill="#191919"/>
<path d="M357.44 334.323C355.46 339.273 353.183 344.074 350.609 348.727C350.361 349.123 351.005 349.519 351.252 349.123C353.826 344.371 356.153 339.52 358.182 334.521C358.331 334.075 357.638 333.877 357.44 334.323Z" fill="#191919"/>
<path d="M285.714 356.746C296.604 343.282 307.89 330.115 319.522 317.245C319.819 316.899 319.324 316.354 318.978 316.701C307.345 329.521 296.059 342.688 285.169 356.202C284.872 356.598 285.417 357.093 285.714 356.746Z" fill="#191919"/>
<path d="M298.881 357.588C308.632 343.975 318.928 330.808 329.719 318.037C330.016 317.691 329.521 317.146 329.175 317.493C318.334 330.313 308.038 343.53 298.237 357.192C297.94 357.588 298.584 357.984 298.881 357.588Z" fill="#191919"/>
<path d="M313.038 359.617C321.503 345.46 330.759 331.798 340.758 318.681C341.055 318.285 340.412 317.938 340.115 318.285C330.116 331.402 320.859 345.064 312.395 359.221C312.147 359.617 312.791 360.013 313.038 359.617Z" fill="#191919"/>
<path d="M324.918 360.855C333.234 345.361 343.085 330.759 354.371 317.295C354.668 316.948 354.173 316.404 353.826 316.75C342.491 330.264 332.591 344.916 324.225 360.459C324.027 360.904 324.671 361.3 324.918 360.855Z" fill="#191919"/>
<path d="M292.05 348.727C304.722 347.391 317.394 348.975 330.016 350.658C330.511 350.707 330.462 349.965 330.016 349.915C317.443 348.232 304.771 346.599 292.05 347.985C291.604 348.034 291.604 348.777 292.05 348.727Z" fill="#191919"/>
<path d="M298.436 341.5C310.415 341.055 322.394 341.946 334.175 344.223C334.62 344.322 334.818 343.579 334.373 343.53C322.542 341.253 310.464 340.362 298.436 340.807C297.99 340.758 297.99 341.5 298.436 341.5Z" fill="#191919"/>
<path d="M304.178 334.521C315.711 333.778 327.245 334.818 338.481 337.59C338.927 337.689 339.125 336.996 338.679 336.897C327.393 334.075 315.81 333.036 304.178 333.778C303.683 333.828 303.683 334.57 304.178 334.521Z" fill="#191919"/>
<path d="M310.117 327.541C321.205 327.591 332.194 328.729 343.035 330.957C343.48 331.056 343.678 330.313 343.233 330.264C332.343 328.036 321.255 326.898 310.117 326.848C309.672 326.799 309.672 327.541 310.117 327.541Z" fill="#191919"/>
<path d="M316.008 321.057C326.551 321.255 337.045 322.492 347.292 324.819C347.737 324.918 347.935 324.225 347.49 324.126C337.144 321.799 326.601 320.512 316.008 320.364C315.513 320.314 315.513 321.057 316.008 321.057Z" fill="#191919"/>
<path d="M349.965 328.581C345.114 335.709 340.312 342.837 335.461 349.965C335.214 350.361 335.857 350.757 336.105 350.361C340.956 343.233 345.757 336.105 350.608 328.977C350.905 328.531 350.262 328.185 349.965 328.581Z" fill="#191919"/>
<path d="M267.993 317.79C274.18 315.166 280.863 316.651 287.397 316.552C292.891 316.503 298.138 314.968 302.841 312.196C303.237 311.949 302.89 311.305 302.445 311.553C296.653 314.968 290.515 316.057 283.882 315.76C278.338 315.513 272.844 314.968 267.597 317.196C267.201 317.344 267.547 317.988 267.993 317.79Z" fill="#191919"/>
<path d="M284.674 314.721C295.267 308.731 300.168 296.109 311.207 290.812C311.652 290.614 311.256 289.971 310.811 290.169C299.723 295.515 294.872 308.088 284.279 314.077C283.883 314.325 284.229 314.968 284.674 314.721Z" fill="#191919"/>
<path d="M298.138 279.427C296.307 277.992 296.604 275.665 297.643 273.834C298.138 272.943 298.881 272.002 299.722 271.458C301.257 270.468 302.693 271.26 303.881 272.299C304.227 272.596 304.771 272.101 304.425 271.755C301.95 269.676 299.623 269.874 297.594 272.547C295.96 274.725 295.119 277.992 297.594 279.972C297.99 280.269 298.534 279.724 298.138 279.427Z" fill="#191919"/>
<path d="M450.598 243.243C437.035 258.291 433.372 274.824 431.392 284.179C427.779 301.504 431.59 308.434 431.838 341.352C431.937 355.36 431.343 366.696 430.897 373.824C433.966 376.2 452.974 390.357 478.368 385.704C497.178 382.288 508.513 370.507 512.077 366.498C512.919 361.795 514.107 354.865 515.493 346.45C522.819 301.059 526.433 278.041 521.879 261.558C519.156 251.559 512.424 235.719 493.317 219.334C485.298 221.017 466.042 226.165 450.598 243.243Z" fill="#16A34A"/>
<path opacity="0.19" d="M464.409 234.135C469.112 248.193 471.636 260.222 473.121 269.033C477.032 292.347 482.922 327.294 466.34 361.152C461.043 371.943 454.856 379.863 450.5 384.764C456.242 386.1 467.627 387.932 481.19 384.417C497.327 380.259 507.425 370.904 511.583 366.647C514.8 348.233 517.374 332.442 519.354 320.117C522.77 298.436 523.562 291.852 523.215 282.596C522.819 270.716 522.275 258.242 515.147 244.778C508.316 231.908 498.713 224.186 492.822 220.226C488.021 221.067 481.239 222.849 474.062 227.007C470.102 229.383 466.884 231.908 464.409 234.135Z" fill="#6C6D6D"/>
<path opacity="0.18" d="M520.641 257.747C519.75 257.796 521.631 271.508 518.71 290.417C513.315 325.413 495.99 349.668 489.307 358.281C483.714 365.459 474.952 375.359 462.132 385.11C466.735 385.803 472.873 386.1 479.902 384.764C496.584 381.645 507.177 371.399 511.236 366.993C512.275 360.954 513.958 351.5 516.087 339.818C521.086 312.494 522.076 309.227 522.868 300.713C525.046 277.497 521.68 257.747 520.641 257.747Z" fill="#6C6D6D"/>
<path d="M363.38 294.525C362.439 293.881 360.558 292.693 360.756 291.703C361.152 290.119 366.845 289.872 370.953 290.565C373.725 291.01 378.774 292.446 384.071 297.445C378.131 298.287 369.567 298.534 363.38 294.525Z" fill="white" stroke="#191919" stroke-width="2" stroke-miterlimit="10"/>
<path d="M503.118 247.104C493.169 244.183 481.536 257.598 480.497 258.885C476.537 263.587 475.596 266.953 471.884 276.061C462.875 298.336 458.172 309.573 449.262 315.414C441.293 320.661 432.927 320.859 430.7 320.859C421.344 320.809 413.622 316.156 398.574 306.85C385.902 298.98 384.615 296.604 377.289 294.624C373.577 293.634 362.687 290.664 354.222 296.455C348.827 300.118 345.51 306.949 346.995 308.682C348.876 310.909 358.974 305.662 359.024 305.86C359.073 305.959 356.103 306.801 353.43 309.177C352.094 310.315 349.718 312.79 350.262 313.681C351.252 315.364 360.261 307.642 368.28 310.513C373.725 312.444 374.022 317.641 380.408 319.671C384.17 320.859 387.734 320.215 390.011 319.572C393.08 324.175 398.277 330.759 406.296 336.748C411.098 340.312 428.027 352.588 451.539 350.757C476.487 348.826 491.634 332.343 496.337 327.244C499.059 324.324 518.81 302.197 515.79 273.388C515.345 268.686 513.414 250.173 503.118 247.104Z" fill="white" stroke="#191919" stroke-width="2" stroke-miterlimit="10"/>
<path opacity="0.25" d="M502.029 247.104C498.267 248.341 502.97 261.756 499.158 279.328C495.545 296.208 486.041 307.593 481.734 312.79C475.943 319.77 468.369 328.878 455.45 333.531C438.125 339.768 418.671 335.362 405.653 327.195C401.792 324.72 398.525 318.334 389.862 313.335C386.1 311.157 383.081 310.068 379.467 308.731C370.755 305.563 362.934 302.692 354.965 305.217C351.153 306.405 347.738 308.682 347.936 309.078C348.134 309.523 352.539 308.088 356.499 306.751C351.203 311.751 350.213 313.285 350.46 313.681C350.757 314.077 352.341 313.038 356.054 311.751C360.113 310.315 362.934 309.375 366.201 310.167C367.835 310.563 369.023 311.305 369.765 311.751C372.488 313.434 372.933 315.067 375.606 316.998C377.24 318.186 378.725 318.78 379.517 319.077C381.15 319.72 384.615 320.76 389.516 319.869C392.882 324.72 408.474 346.203 435.848 350.163C449.955 352.192 461.093 348.727 465.498 347.292C489.654 339.471 501.881 320.76 505.049 315.562C514.85 299.524 521.532 274.477 511.434 256.459C509.058 251.955 504.603 246.262 502.029 247.104Z" fill="#6C6D6D"/>
<path d="M347.886 308.83C350.51 306.108 353.579 304.128 357.143 302.94C357.836 302.692 357.539 301.653 356.846 301.851C353.133 303.138 349.817 305.217 347.094 308.038C346.599 308.583 347.391 309.375 347.886 308.83Z" fill="#191919"/>
<path d="M349.668 302.198C352.292 299.277 355.954 298.139 359.617 297.099C360.31 296.901 360.014 295.812 359.321 296.01C355.509 297.149 351.648 298.386 348.926 301.406C348.381 301.95 349.173 302.693 349.668 302.198Z" fill="#191919"/>
<path opacity="0.29" d="M514.256 268.389C512.573 273.537 509.85 280.962 505.841 289.575C497.871 306.553 490.694 321.849 476.685 332.689C459.41 346.054 438.719 347.193 427.086 346.648C435.254 349.965 442.035 350.658 446.342 350.757C479.111 351.45 502.079 320.413 509.207 306.454C510.444 303.979 513.018 298.831 514.503 291.505C516.434 281.655 515.295 273.388 514.256 268.389Z" fill="#6C6D6D"/>
<path opacity="0.26" d="M369.468 310.019C372.24 311.949 376.151 314.226 381.15 316.008C385.11 317.394 388.723 318.087 391.594 318.434C383.625 321.057 379.912 320.018 377.982 318.434C376.794 317.444 375.557 315.612 371.844 312.197C370.904 311.256 370.062 310.514 369.468 310.019Z" fill="#6C6D6D"/>
<path d="M426.393 147.262C425.849 150.43 425.304 153.598 424.859 156.915C422.928 170.379 422.136 183.1 422.087 194.931C424.809 194.634 427.482 194.337 430.205 194.089C429.908 196.713 429.066 206.316 435.204 215.82C440.996 224.779 449.312 228.046 451.886 228.937C451.589 233.788 451.341 238.59 451.044 243.441C456.39 238.689 463.667 233.095 472.923 228.096C480.002 224.284 486.684 221.661 492.377 219.879C485.991 211.959 483.566 204.484 482.526 200.178C480.744 192.753 481.091 186.367 481.437 180.724C481.784 174.933 482.625 170.131 483.368 166.765C485.694 156.172 479.606 139.392 467.478 133.353C455.499 127.363 437.63 132.412 426.393 147.262Z" fill="white" stroke="#161616" stroke-width="2" stroke-miterlimit="10"/>
<path d="M429.066 194.436C430.452 194.238 431.888 194.089 433.274 193.941C433.769 193.891 433.769 193.149 433.274 193.198C431.789 193.347 430.353 193.545 428.868 193.743C428.423 193.743 428.621 194.485 429.066 194.436Z" fill="#161616"/>
<path d="M473.715 154.935C467.726 156.469 466.637 161.667 459.063 172.507C451.391 183.496 446.54 190.377 437.877 194.386C432.284 196.96 429.512 196.267 427.037 199.584C422.78 205.326 425.651 214.78 428.175 219.631C431.096 225.225 435.551 228.591 439.214 231.363C442.728 233.986 445.946 235.719 448.223 236.758C445.797 233.046 445.649 231.907 445.946 231.561C446.738 230.769 450.104 235.026 454.064 234.481C455.202 234.333 457.232 233.689 461.736 226.611C464.805 221.809 466.884 218.493 468.27 213.741C471.29 203.544 467.033 200.772 468.27 187.357C468.468 185.328 469.854 169.438 475.497 168.399C477.527 168.003 479.606 169.686 480.596 170.973C482.675 173.695 482.427 178.051 479.853 181.813C480.695 181.219 488.763 175.774 488.664 166.914C488.664 165.528 488.615 160.429 484.754 157.113C480.348 153.351 474.21 154.836 473.715 154.935Z" fill="#161616" stroke="#161616" stroke-width="2" stroke-miterlimit="10"/>
<path d="M433.818 177.457C434.966 177.457 435.897 175.795 435.897 173.745C435.897 171.695 434.966 170.032 433.818 170.032C432.67 170.032 431.739 171.695 431.739 173.745C431.739 175.795 432.67 177.457 433.818 177.457Z" fill="#161616"/>
<path d="M417.978 179.19C419.126 179.19 420.057 177.528 420.057 175.477C420.057 173.427 419.126 171.765 417.978 171.765C416.83 171.765 415.899 173.427 415.899 175.477C415.899 177.528 416.83 179.19 417.978 179.19Z" fill="#161616"/>
<path d="M414.86 169.389C416.196 167.854 418.275 167.706 419.76 169.191C420.453 169.884 421.493 168.795 420.8 168.151C418.77 166.171 415.652 166.221 413.771 168.349C413.226 169.092 414.266 170.131 414.86 169.389Z" fill="#161616"/>
<path d="M431.096 166.815C432.828 165.379 435.105 165.577 436.59 167.211C437.234 167.904 438.273 166.864 437.63 166.171C435.551 163.944 432.333 163.845 430.007 165.775C429.314 166.369 430.353 167.409 431.096 166.815Z" fill="#161616"/>
<path d="M424.71 153.153C425.255 149.589 426.641 143.748 430.452 137.709C431.789 135.58 434.66 131.076 439.214 128.007C447.926 122.215 461.34 122.661 471.092 129.789C480.645 136.768 485.397 149.242 483.318 161.617C463.766 158.845 444.263 156.024 424.71 153.153Z" fill="#64748B"/>
<path d="M392.733 153.599C422.78 157.46 452.876 161.321 482.922 165.132C485.744 165.479 485.744 161.024 482.922 160.677C452.876 156.816 422.78 152.955 392.733 149.144C389.912 148.748 389.912 153.203 392.733 153.599Z" fill="#161616"/>
<path d="M450.153 124.394C457.875 126.077 463.716 132.314 464.706 139.788C465.597 146.322 462.726 152.955 457.281 157.014C465.845 158.153 474.458 159.341 483.021 160.479C483.467 158.202 483.863 154.737 483.318 150.678C482.031 141.174 476.537 135.086 474.755 133.254C472.824 131.274 465.993 124.641 455.846 124.047C453.519 123.948 451.539 124.146 450.153 124.394Z" fill="#321693"/>
</svg>
